<svg xmlns="http://www.w3.org/2000/svg" xmlns:xlink="http://www.w3.org/1999/xlink" viewBox="0 0 202.47 409.49"><defs><linearGradient id="a" x1="12.8" y1="-14.76" x2="220.64" y2="501.13" gradientUnits="userSpaceOnUse"><stop offset="0.08" stop-color="#fff"/><stop offset="1" stop-color="#dbe1e2"/></linearGradient><linearGradient id="b" x1="45.04" y1="349.63" x2="176.78" y2="369.25" gradientUnits="userSpaceOnUse"><stop offset="0.05" stop-color="#6bc1cd"/><stop offset="1" stop-color="#a8eba4"/></linearGradient><clipPath id="c"><rect x="11.74" y="9.98" width="179.26" height="389.53" rx="26.11" style="fill:none"/></clipPath><linearGradient id="d" x1="55.55" y1="151.88" x2="128.76" y2="151.88" gradientUnits="userSpaceOnUse"><stop offset="0" stop-color="#e58f7e"/><stop offset="0.14" stop-color="#e4857e"/><stop offset="0.7" stop-color="#e0637f"/><stop offset="1" stop-color="#de567f"/></linearGradient><linearGradient id="e" x1="88.46" y1="128.99" x2="95.35" y2="180.99" xlink:href="#d"/><linearGradient id="f" x1="76.9" y1="-45.25" x2="286.54" y2="475.1" xlink:href="#a"/></defs><title>phone-3</title><g style="isolation:isolate"><rect width="202.47" height="409.49" rx="33.11" style="fill:url(#a)"/><rect x="11.74" y="9.98" width="179.26" height="389.53" rx="26.11" style="fill:#251a51"/><rect x="67.97" y="383.47" width="62.88" height="2.46" rx="1.03" style="fill:#e0e6e9"/><path d="M26.86,295.53h.36v4.59H30v.33H26.86Z" style="fill:#fff"/><path d="M31.63,300.24a1.61,1.61,0,0,1-.65-.67,1.9,1.9,0,0,1-.24-1,2,2,0,0,1,.24-1,1.65,1.65,0,0,1,.65-.66,1.85,1.85,0,0,1,.94-.24,1.81,1.81,0,0,1,.93.24,1.74,1.74,0,0,1,.66.66,2,2,0,0,1,.24,1,1.9,1.9,0,0,1-.24,1,1.7,1.7,0,0,1-.66.67,1.81,1.81,0,0,1-.93.24A1.85,1.85,0,0,1,31.63,300.24Zm1.69-.28a1.4,1.4,0,0,0,.53-.55,1.6,1.6,0,0,0,.19-.8,1.63,1.63,0,0,0-.19-.8,1.47,1.47,0,0,0-.53-.55,1.44,1.44,0,0,0-.75-.19,1.51,1.51,0,0,0-.76.19,1.45,1.45,0,0,0-.52.55,1.63,1.63,0,0,0-.19.8,1.6,1.6,0,0,0,.19.8,1.38,1.38,0,0,0,.52.55,1.51,1.51,0,0,0,.76.2A1.45,1.45,0,0,0,33.32,300Z" style="fill:#fff"/><path d="M36.7,297a1.56,1.56,0,0,1,.87-.22v.35h-.09a1.22,1.22,0,0,0-.95.38,1.55,1.55,0,0,0-.35,1.07v1.91h-.35v-3.67h.34v.8A1.22,1.22,0,0,1,36.7,297Z" style="fill:#fff"/><path d="M41.94,298.7H38.79a1.5,1.5,0,0,0,.22.76,1.52,1.52,0,0,0,.55.52,1.66,1.66,0,0,0,.78.18A1.59,1.59,0,0,0,41,300a1.32,1.32,0,0,0,.51-.38l.21.23a1.56,1.56,0,0,1-.6.44,2,2,0,0,1-.78.16,2,2,0,0,1-1-.24,1.77,1.77,0,0,1-.67-.66,1.94,1.94,0,0,1-.24-1,2.06,2.06,0,0,1,.23-1,1.71,1.71,0,0,1,.62-.66,1.81,1.81,0,0,1,1.8,0,1.62,1.62,0,0,1,.62.65,2,2,0,0,1,.23,1Zm-2.43-1.47a1.38,1.38,0,0,0-.5.49,1.64,1.64,0,0,0-.21.7h2.8a1.4,1.4,0,0,0-.21-.7,1.25,1.25,0,0,0-.49-.48,1.38,1.38,0,0,0-.7-.18A1.41,1.41,0,0,0,39.51,297.23Z" style="fill:#fff"/><path d="M49,297.15a1.59,1.59,0,0,1,.39,1.15v2.15h-.35v-2.12a1.34,1.34,0,0,0-.3-.94,1.11,1.11,0,0,0-.84-.32,1.29,1.29,0,0,0-1,.38,1.48,1.48,0,0,0-.36,1v2h-.35v-2.12a1.3,1.3,0,0,0-.31-.94,1.11,1.11,0,0,0-.84-.32,1.28,1.28,0,0,0-1,.38,1.44,1.44,0,0,0-.37,1v2h-.35v-3.67h.34v.79a1.31,1.31,0,0,1,.54-.6,1.6,1.6,0,0,1,.86-.22A1.54,1.54,0,0,1,46,297a1.23,1.23,0,0,1,.49.66A1.39,1.39,0,0,1,47,297a1.69,1.69,0,0,1,.91-.24A1.42,1.42,0,0,1,49,297.15Z" style="fill:#fff"/><path d="M53.32,295.81a.29.29,0,0,1-.09-.21.28.28,0,0,1,.09-.2.28.28,0,0,1,.2-.08.24.24,0,0,1,.2.08.29.29,0,0,1-.2.49A.28.28,0,0,1,53.32,295.81Zm0,1h.35v3.67h-.35Z" style="fill:#fff"/><path d="M58.29,297a1.79,1.79,0,0,1,.65.66,2,2,0,0,1,.23,1,2,2,0,0,1-.23,1,1.79,1.79,0,0,1-.65.66,1.84,1.84,0,0,1-.93.24,1.71,1.71,0,0,1-.87-.23,1.51,1.51,0,0,1-.61-.64v2.2h-.35v-5h.33v.86a1.56,1.56,0,0,1,.62-.65,1.66,1.66,0,0,1,.88-.24A1.84,1.84,0,0,1,58.29,297Zm-.19,3a1.4,1.4,0,0,0,.53-.55,1.6,1.6,0,0,0,.19-.8,1.63,1.63,0,0,0-.19-.8,1.47,1.47,0,0,0-.53-.55,1.51,1.51,0,0,0-.76-.19,1.44,1.44,0,0,0-.75.19,1.47,1.47,0,0,0-.53.55,1.63,1.63,0,0,0-.19.8,1.6,1.6,0,0,0,.19.8,1.4,1.4,0,0,0,.53.55,1.45,1.45,0,0,0,.75.2A1.51,1.51,0,0,0,58.1,300Z" style="fill:#fff"/><path d="M60.69,300.34a1.89,1.89,0,0,1-.62-.33l.16-.29a1.69,1.69,0,0,0,.58.32,2.26,2.26,0,0,0,.74.13,1.34,1.34,0,0,0,.81-.19.57.57,0,0,0,.27-.5.47.47,0,0,0-.15-.37.79.79,0,0,0-.35-.19,4.52,4.52,0,0,0-.58-.14,4.49,4.49,0,0,1-.7-.17,1.16,1.16,0,0,1-.46-.29.79.79,0,0,1-.19-.56.87.87,0,0,1,.36-.72,1.64,1.64,0,0,1,1-.29,2.35,2.35,0,0,1,.69.1,1.53,1.53,0,0,1,.56.26l-.16.28a1.73,1.73,0,0,0-.51-.25,2.33,2.33,0,0,0-.59-.08,1.27,1.27,0,0,0-.77.19.6.6,0,0,0-.26.5.49.49,0,0,0,.15.38,1.07,1.07,0,0,0,.36.21c.14,0,.34.09.6.14a6.65,6.65,0,0,1,.69.16,1.13,1.13,0,0,1,.45.29.77.77,0,0,1,.18.54.85.85,0,0,1-.38.73,1.82,1.82,0,0,1-1.07.28A2.64,2.64,0,0,1,60.69,300.34Z" style="fill:#fff"/><path d="M67.51,296.78v3.67h-.33v-.79a1.31,1.31,0,0,1-.54.6,1.64,1.64,0,0,1-.84.22,1.4,1.4,0,0,1-1.53-1.56v-2.14h.35v2.11a1.31,1.31,0,0,0,.31.95,1.21,1.21,0,0,0,.89.32,1.26,1.26,0,0,0,1-.39,1.46,1.46,0,0,0,.36-1v-2Z" style="fill:#fff"/><path d="M75,297.15a1.59,1.59,0,0,1,.39,1.15v2.15H75v-2.12a1.34,1.34,0,0,0-.3-.94,1.11,1.11,0,0,0-.84-.32,1.3,1.3,0,0,0-1,.38,1.48,1.48,0,0,0-.36,1v2h-.35v-2.12a1.34,1.34,0,0,0-.3-.94,1.11,1.11,0,0,0-.84-.32,1.3,1.3,0,0,0-1,.38,1.48,1.48,0,0,0-.36,1v2h-.35v-3.67h.34v.79a1.31,1.31,0,0,1,.54-.6,1.6,1.6,0,0,1,.86-.22,1.51,1.51,0,0,1,.84.23,1.2,1.2,0,0,1,.5.66A1.39,1.39,0,0,1,73,297a1.69,1.69,0,0,1,.91-.24A1.42,1.42,0,0,1,75,297.15Z" style="fill:#fff"/><path d="M82.57,295.23v5.22h-.35v-.87a1.5,1.5,0,0,1-.61.66,1.67,1.67,0,0,1-.89.24,1.78,1.78,0,0,1-.92-.24,1.65,1.65,0,0,1-.65-.66,1.94,1.94,0,0,1-.24-1,1.9,1.9,0,0,1,.24-1,1.53,1.53,0,0,1,.65-.66,1.78,1.78,0,0,1,.92-.24,1.72,1.72,0,0,1,.88.23,1.66,1.66,0,0,1,.61.65v-2.4ZM81.5,300a1.38,1.38,0,0,0,.52-.55,1.6,1.6,0,0,0,.19-.8,1.63,1.63,0,0,0-.19-.8,1.45,1.45,0,0,0-.52-.55,1.51,1.51,0,0,0-.76-.19,1.44,1.44,0,0,0-.75.19,1.47,1.47,0,0,0-.53.55,1.63,1.63,0,0,0-.19.8,1.6,1.6,0,0,0,.19.8A1.4,1.4,0,0,0,80,300a1.45,1.45,0,0,0,.75.2A1.51,1.51,0,0,0,81.5,300Z" style="fill:#fff"/><path d="M84.89,300.24a1.7,1.7,0,0,1-.66-.67,1.9,1.9,0,0,1-.24-1,2,2,0,0,1,.24-1,1.74,1.74,0,0,1,.66-.66,1.94,1.94,0,0,1,1.87,0,1.74,1.74,0,0,1,.66.66,2.06,2.06,0,0,1,.23,1,2,2,0,0,1-.23,1,1.7,1.7,0,0,1-.66.67,1.94,1.94,0,0,1-1.87,0Zm1.69-.28a1.32,1.32,0,0,0,.52-.55,1.61,1.61,0,0,0,.2-.8,1.64,1.64,0,0,0-.2-.8,1.38,1.38,0,0,0-.52-.55,1.6,1.6,0,0,0-1.51,0,1.38,1.38,0,0,0-.52.55,1.64,1.64,0,0,0-.2.8,1.61,1.61,0,0,0,.2.8,1.32,1.32,0,0,0,.52.55,1.53,1.53,0,0,0,1.51,0Z" style="fill:#fff"/><path d="M89.09,295.23h.35v5.22h-.35Z" style="fill:#fff"/><path d="M91.77,300.24a1.7,1.7,0,0,1-.66-.67,1.9,1.9,0,0,1-.24-1,2,2,0,0,1,.24-1,1.74,1.74,0,0,1,.66-.66,1.81,1.81,0,0,1,.93-.24,1.85,1.85,0,0,1,.94.24,1.72,1.72,0,0,1,.65.66,2,2,0,0,1,.24,1,1.9,1.9,0,0,1-.24,1,1.68,1.68,0,0,1-.65.67,1.85,1.85,0,0,1-.94.24A1.81,1.81,0,0,1,91.77,300.24Zm1.69-.28a1.38,1.38,0,0,0,.52-.55,1.6,1.6,0,0,0,.19-.8,1.63,1.63,0,0,0-.19-.8,1.45,1.45,0,0,0-.52-.55,1.51,1.51,0,0,0-.76-.19,1.44,1.44,0,0,0-.75.19,1.47,1.47,0,0,0-.53.55,1.63,1.63,0,0,0-.19.8,1.6,1.6,0,0,0,.19.8A1.4,1.4,0,0,0,92,300a1.45,1.45,0,0,0,.75.2A1.51,1.51,0,0,0,93.46,300Z" style="fill:#fff"/><path d="M96.83,297a1.61,1.61,0,0,1,.87-.22v.35h-.08a1.24,1.24,0,0,0-1,.38,1.55,1.55,0,0,0-.34,1.07v1.91H96v-3.67h.33v.8A1.27,1.27,0,0,1,96.83,297Z" style="fill:#fff"/><path d="M101.32,300.34a1.85,1.85,0,0,1-.63-.33l.16-.29a1.79,1.79,0,0,0,.58.32,2.35,2.35,0,0,0,.74.13A1.4,1.4,0,0,0,103,300a.56.56,0,0,0,.26-.5.5.5,0,0,0-.14-.37.92.92,0,0,0-.35-.19,5.24,5.24,0,0,0-.59-.14,4.8,4.8,0,0,1-.7-.17,1.06,1.06,0,0,1-.45-.29.79.79,0,0,1-.19-.56.87.87,0,0,1,.36-.72,1.61,1.61,0,0,1,1-.29,2.37,2.37,0,0,1,.7.1,1.62,1.62,0,0,1,.56.26l-.16.28a1.73,1.73,0,0,0-.51-.25,2.39,2.39,0,0,0-.59-.08,1.27,1.27,0,0,0-.77.19.58.58,0,0,0-.26.5.52.52,0,0,0,.14.38,1,1,0,0,0,.37.21c.14,0,.34.09.6.14s.51.11.69.16a1.09,1.09,0,0,1,.44.29.77.77,0,0,1,.18.54.83.83,0,0,1-.38.73,1.78,1.78,0,0,1-1.06.28A2.55,2.55,0,0,1,101.32,300.34Z" style="fill:#fff"/><path d="M104.91,295.81a.29.29,0,0,1-.09-.21.28.28,0,0,1,.09-.2.28.28,0,0,1,.2-.08.24.24,0,0,1,.2.08.29.29,0,0,1-.2.49A.28.28,0,0,1,104.91,295.81Zm0,1h.36v3.67h-.36Z" style="fill:#fff"/><path d="M108.93,300.22a1.06,1.06,0,0,1-.33.19,1.54,1.54,0,0,1-.42.07,1,1,0,0,1-.74-.27,1,1,0,0,1-.26-.73v-2.4h-.67v-.3h.67V296h.36v.8h1.16v.3h-1.16v2.36a.77.77,0,0,0,.17.55.65.65,0,0,0,.5.18.8.8,0,0,0,.57-.2Z" style="fill:#fff"/><path d="M114.68,297.1a1.32,1.32,0,0,1,.37,1v2.33h-.34v-.66a1.2,1.2,0,0,1-.51.51,1.67,1.67,0,0,1-.81.18,1.5,1.5,0,0,1-1-.29.92.92,0,0,1-.35-.76,1,1,0,0,1,.32-.74,1.57,1.57,0,0,1,1-.29h1.26v-.29a1,1,0,0,0-.28-.78,1.1,1.1,0,0,0-.81-.27,1.89,1.89,0,0,0-.7.13,1.63,1.63,0,0,0-.56.33l-.18-.25a2.15,2.15,0,0,1,.66-.38,2.46,2.46,0,0,1,.81-.14A1.45,1.45,0,0,1,114.68,297.1Zm-.46,2.88a1.34,1.34,0,0,0,.48-.61v-.69h-1.25a1.24,1.24,0,0,0-.78.19.66.66,0,0,0-.24.54.7.7,0,0,0,.26.57,1.19,1.19,0,0,0,.75.21A1.38,1.38,0,0,0,114.22,300Z" style="fill:#fff"/><path d="M122.47,297.15a1.59,1.59,0,0,1,.39,1.15v2.15h-.35v-2.12a1.34,1.34,0,0,0-.3-.94,1.11,1.11,0,0,0-.84-.32,1.29,1.29,0,0,0-1,.38,1.48,1.48,0,0,0-.36,1v2h-.35v-2.12a1.3,1.3,0,0,0-.31-.94,1.11,1.11,0,0,0-.84-.32,1.28,1.28,0,0,0-1,.38,1.44,1.44,0,0,0-.37,1v2h-.35v-3.67h.34v.79a1.31,1.31,0,0,1,.54-.6,1.6,1.6,0,0,1,.86-.22,1.54,1.54,0,0,1,.85.23,1.23,1.23,0,0,1,.49.66,1.39,1.39,0,0,1,.57-.65,1.69,1.69,0,0,1,.91-.24A1.42,1.42,0,0,1,122.47,297.15Z" style="fill:#fff"/><path d="M127.75,298.7H124.6a1.61,1.61,0,0,0,.22.76,1.52,1.52,0,0,0,.55.52,1.79,1.79,0,0,0,1.45,0,1.36,1.36,0,0,0,.5-.38l.21.23a1.56,1.56,0,0,1-.6.44,2,2,0,0,1-.78.16,2,2,0,0,1-1-.24,1.77,1.77,0,0,1-.67-.66,1.94,1.94,0,0,1-.24-1,2.06,2.06,0,0,1,.23-1,1.7,1.7,0,0,1,1.52-.9,1.73,1.73,0,0,1,.9.24,1.62,1.62,0,0,1,.62.65,2,2,0,0,1,.23,1Zm-2.43-1.47a1.28,1.28,0,0,0-.49.49,1.52,1.52,0,0,0-.22.7h2.81a1.64,1.64,0,0,0-.21-.7,1.35,1.35,0,0,0-.5-.48,1.38,1.38,0,0,0-.7-.18A1.44,1.44,0,0,0,125.32,297.23Z" style="fill:#fff"/><path d="M131,300.22a1.06,1.06,0,0,1-.33.19,1.42,1.42,0,0,1-.42.07.9.9,0,0,1-1-1v-2.4h-.68v-.3h.68V296h.35v.8h1.16v.3h-1.16v2.36a.77.77,0,0,0,.17.55.66.66,0,0,0,.51.18.79.79,0,0,0,.56-.2Z" style="fill:#fff"/><path d="M132.57,300a.25.25,0,0,1,.09.2.77.77,0,0,1,0,.15c0,.05,0,.11,0,.18l-.28.95h-.25l.23-1a.32.32,0,0,1-.17-.1.29.29,0,0,1-.06-.19.27.27,0,0,1,.29-.29A.26.26,0,0,1,132.57,300Z" style="fill:#fff"/><path d="M136.81,300.24a1.7,1.7,0,0,1-.66-.67,2,2,0,0,1,0-1.92,1.61,1.61,0,0,1,.66-.66,1.89,1.89,0,0,1,.95-.24,2,2,0,0,1,.81.17,1.5,1.5,0,0,1,.58.51l-.26.19a1.24,1.24,0,0,0-.49-.42,1.63,1.63,0,0,0-1.4.06,1.36,1.36,0,0,0-.54.55,1.8,1.8,0,0,0,0,1.61,1.36,1.36,0,0,0,.54.55,1.58,1.58,0,0,0,1.4,0,1.22,1.22,0,0,0,.49-.41l.26.19a1.4,1.4,0,0,1-.58.5,1.82,1.82,0,0,1-.81.18A1.89,1.89,0,0,1,136.81,300.24Z" style="fill:#fff"/><path d="M141,300.24a1.75,1.75,0,0,1-.65-.67,1.9,1.9,0,0,1-.24-1,2,2,0,0,1,.24-1A1.79,1.79,0,0,1,141,297a1.85,1.85,0,0,1,.94-.24,1.88,1.88,0,0,1,.94.24,1.79,1.79,0,0,1,.65.66,2,2,0,0,1,.24,1,1.9,1.9,0,0,1-.24,1,1.75,1.75,0,0,1-.65.67,1.88,1.88,0,0,1-.94.24A1.85,1.85,0,0,1,141,300.24Zm1.69-.28a1.4,1.4,0,0,0,.53-.55,1.6,1.6,0,0,0,.19-.8,1.63,1.63,0,0,0-.19-.8,1.47,1.47,0,0,0-.53-.55,1.58,1.58,0,0,0-1.5,0,1.4,1.4,0,0,0-.53.55,1.63,1.63,0,0,0-.19.8,1.6,1.6,0,0,0,.19.8,1.34,1.34,0,0,0,.53.55,1.51,1.51,0,0,0,1.5,0Z" style="fill:#fff"/><path d="M148.06,297.15a1.55,1.55,0,0,1,.4,1.15v2.15h-.35v-2.12a1.3,1.3,0,0,0-.31-.94,1.19,1.19,0,0,0-.88-.32,1.37,1.37,0,0,0-1,.38,1.44,1.44,0,0,0-.37,1v2h-.35v-3.67h.33v.79a1.43,1.43,0,0,1,.57-.6,1.67,1.67,0,0,1,.88-.22A1.46,1.46,0,0,1,148.06,297.15Z" style="fill:#fff"/><path d="M150.34,300.34a1.85,1.85,0,0,1-.63-.33l.17-.29a1.69,1.69,0,0,0,.58.32,2.24,2.24,0,0,0,.73.13A1.38,1.38,0,0,0,152,300a.56.56,0,0,0,.26-.5.46.46,0,0,0-.14-.37.85.85,0,0,0-.35-.19,4.75,4.75,0,0,0-.59-.14,4.8,4.8,0,0,1-.7-.17,1.13,1.13,0,0,1-.45-.29.79.79,0,0,1-.19-.56.87.87,0,0,1,.36-.72,1.62,1.62,0,0,1,1-.29,2.35,2.35,0,0,1,.69.1,1.53,1.53,0,0,1,.56.26l-.16.28a1.73,1.73,0,0,0-.51-.25,2.33,2.33,0,0,0-.59-.08,1.27,1.27,0,0,0-.77.19.6.6,0,0,0-.26.5.49.49,0,0,0,.15.38.9.9,0,0,0,.36.21c.14,0,.34.09.6.14s.51.11.69.16a1.09,1.09,0,0,1,.44.29.77.77,0,0,1,.18.54.85.85,0,0,1-.37.73,1.84,1.84,0,0,1-1.07.28A2.64,2.64,0,0,1,150.34,300.34Z" style="fill:#fff"/><path d="M157.05,298.7H153.9a1.5,1.5,0,0,0,.22.76,1.45,1.45,0,0,0,.55.52,1.66,1.66,0,0,0,.78.18,1.59,1.59,0,0,0,.66-.13,1.39,1.39,0,0,0,.51-.38l.2.23a1.56,1.56,0,0,1-.6.44,2,2,0,0,1-.78.16,1.94,1.94,0,0,1-1-.24,1.7,1.7,0,0,1-.67-.66,1.94,1.94,0,0,1-.24-1,2.05,2.05,0,0,1,.22-1,1.82,1.82,0,0,1,.63-.66,1.73,1.73,0,0,1,.9-.24,1.67,1.67,0,0,1,.89.24,1.64,1.64,0,0,1,.63.65,2,2,0,0,1,.22,1Zm-2.43-1.47a1.31,1.31,0,0,0-.5.49,1.64,1.64,0,0,0-.21.7h2.8a1.4,1.4,0,0,0-.21-.7,1.22,1.22,0,0,0-.5-.48,1.31,1.31,0,0,0-.69-.18A1.41,1.41,0,0,0,154.62,297.23Z" style="fill:#fff"/><path d="M159,300.24a1.7,1.7,0,0,1-.66-.67,2,2,0,0,1,0-1.92A1.61,1.61,0,0,1,159,297a1.89,1.89,0,0,1,.95-.24,2,2,0,0,1,.81.17,1.5,1.5,0,0,1,.58.51l-.26.19a1.24,1.24,0,0,0-.49-.42,1.47,1.47,0,0,0-.64-.13,1.54,1.54,0,0,0-.77.19,1.4,1.4,0,0,0-.53.55,1.8,1.8,0,0,0,0,1.61,1.4,1.4,0,0,0,.53.55,1.54,1.54,0,0,0,.77.19,1.47,1.47,0,0,0,.64-.14,1.22,1.22,0,0,0,.49-.41l.26.19a1.4,1.4,0,0,1-.58.5,1.82,1.82,0,0,1-.81.18A1.89,1.89,0,0,1,159,300.24Z" style="fill:#fff"/><path d="M164.59,300.22a1.06,1.06,0,0,1-.33.19,1.54,1.54,0,0,1-.42.07,1,1,0,0,1-.74-.27,1,1,0,0,1-.26-.73v-2.4h-.67v-.3h.67V296h.36v.8h1.16v.3H163.2v2.36a.77.77,0,0,0,.17.55.66.66,0,0,0,.51.18.79.79,0,0,0,.56-.2Z" style="fill:#fff"/><path d="M168.87,298.7h-3.15a1.61,1.61,0,0,0,.22.76,1.52,1.52,0,0,0,.55.52,1.79,1.79,0,0,0,1.45,0,1.48,1.48,0,0,0,.51-.38l.2.23a1.56,1.56,0,0,1-.6.44,2,2,0,0,1-.78.16,2,2,0,0,1-1-.24,1.84,1.84,0,0,1-.67-.66,1.94,1.94,0,0,1-.24-1,2.06,2.06,0,0,1,.23-1,1.7,1.7,0,0,1,1.52-.9,1.71,1.71,0,0,1,.9.24,1.62,1.62,0,0,1,.62.65,2,2,0,0,1,.23,1Zm-2.43-1.47a1.28,1.28,0,0,0-.49.49,1.52,1.52,0,0,0-.22.7h2.81a1.64,1.64,0,0,0-.21-.7,1.35,1.35,0,0,0-.5-.48,1.38,1.38,0,0,0-.7-.18A1.47,1.47,0,0,0,166.44,297.23Z" style="fill:#fff"/><path d="M170,298.4h1.8v.32H170Z" style="fill:#fff"/><path d="M30.22,314.27a.88.88,0,0,1-.34.2,1.4,1.4,0,0,1-.41.06,1,1,0,0,1-.74-.26,1,1,0,0,1-.26-.73v-2.4H27.8v-.3h.67V310h.35v.8H30v.3H28.82v2.36a.82.82,0,0,0,.17.55.69.69,0,0,0,.51.18.84.84,0,0,0,.57-.2Z" style="fill:#fff"/><path d="M34.74,310.84v3.67h-.33v-.79a1.31,1.31,0,0,1-.54.6,1.64,1.64,0,0,1-.84.21A1.39,1.39,0,0,1,31.5,313v-2.14h.35V313a1.29,1.29,0,0,0,.31.94,1.18,1.18,0,0,0,.89.33,1.26,1.26,0,0,0,1-.39,1.46,1.46,0,0,0,.36-1v-2Z" style="fill:#fff"/><path d="M39.67,312.76H36.53a1.49,1.49,0,0,0,.21.76,1.42,1.42,0,0,0,.55.51,1.55,1.55,0,0,0,.78.19,1.86,1.86,0,0,0,.67-.13,1.39,1.39,0,0,0,.51-.39l.2.24a1.56,1.56,0,0,1-.6.44,2,2,0,0,1-.78.15,2,2,0,0,1-1-.24,1.7,1.7,0,0,1-.67-.66,1.9,1.9,0,0,1-.24-1,2,2,0,0,1,.23-1,1.7,1.7,0,0,1,1.52-.9,1.8,1.8,0,0,1,.9.23,1.71,1.71,0,0,1,.62.66,2,2,0,0,1,.23,1Zm-2.43-1.47a1.26,1.26,0,0,0-.49.48,1.56,1.56,0,0,0-.22.71h2.81a1.6,1.6,0,0,0-.21-.7,1.46,1.46,0,0,0-.5-.49,1.51,1.51,0,0,0-1.39,0Z" style="fill:#fff"/><path d="M42,311a1.7,1.7,0,0,1,.87-.21v.34h-.09a1.2,1.2,0,0,0-.95.38,1.52,1.52,0,0,0-.34,1.06v1.92h-.35v-3.67h.33v.8A1.34,1.34,0,0,1,42,311Z" style="fill:#fff"/><path d="M48.66,311.16a1.35,1.35,0,0,1,.36,1v2.33h-.33v-.66a1.23,1.23,0,0,1-.51.5,1.73,1.73,0,0,1-.81.18,1.46,1.46,0,0,1-1-.28,1,1,0,0,1,0-1.51,1.62,1.62,0,0,1,1-.28h1.25v-.3a1.06,1.06,0,0,0-.27-.78,1.18,1.18,0,0,0-.81-.26,2,2,0,0,0-.7.12,1.82,1.82,0,0,0-.56.34l-.18-.25a1.79,1.79,0,0,1,.66-.38,2.19,2.19,0,0,1,.81-.14A1.41,1.41,0,0,1,48.66,311.16ZM48.19,314a1.18,1.18,0,0,0,.48-.61v-.69H47.43a1.29,1.29,0,0,0-.79.2.66.66,0,0,0-.24.54.68.68,0,0,0,.27.57,1.19,1.19,0,0,0,.75.21A1.29,1.29,0,0,0,48.19,314Z" style="fill:#fff"/><path d="M54.08,309.29v5.22h-.35v-.87a1.48,1.48,0,0,1-.6.66,1.7,1.7,0,0,1-.9.23,1.8,1.8,0,0,1-.92-.24,1.65,1.65,0,0,1-.65-.66,1.9,1.9,0,0,1-.23-1,2,2,0,0,1,.23-1,1.72,1.72,0,0,1,.65-.66,1.9,1.9,0,0,1,.92-.23,1.7,1.7,0,0,1,.88.23,1.62,1.62,0,0,1,.62.65v-2.4ZM53,314a1.4,1.4,0,0,0,.53-.55,1.78,1.78,0,0,0,0-1.6,1.47,1.47,0,0,0-.53-.55,1.45,1.45,0,0,0-.75-.2,1.49,1.49,0,0,0-.76.2,1.45,1.45,0,0,0-.52.55,1.7,1.7,0,0,0,0,1.6,1.38,1.38,0,0,0,.52.55,1.49,1.49,0,0,0,.76.2A1.45,1.45,0,0,0,53,314Z" style="fill:#fff"/><path d="M55.88,309.86a.29.29,0,0,1,0-.4.27.27,0,0,1,.2-.09.29.29,0,0,1,.21.09.28.28,0,0,1,.08.2.3.3,0,0,1-.08.2.28.28,0,0,1-.21.08A.26.26,0,0,1,55.88,309.86Zm0,1h.35v3.67h-.35Z" style="fill:#fff"/><path d="M60.85,311.05a1.72,1.72,0,0,1,.65.66,1.9,1.9,0,0,1,.23,1,2,2,0,0,1-.23,1,1.72,1.72,0,0,1-.65.66,1.91,1.91,0,0,1-.93.23,1.71,1.71,0,0,1-.87-.22,1.63,1.63,0,0,1-.61-.64v2.2h-.35v-5h.33v.86A1.64,1.64,0,0,1,59,311a1.75,1.75,0,0,1,.88-.23A1.81,1.81,0,0,1,60.85,311.05Zm-.19,3a1.34,1.34,0,0,0,.53-.55,1.78,1.78,0,0,0,0-1.6,1.4,1.4,0,0,0-.53-.55,1.49,1.49,0,0,0-.76-.2,1.45,1.45,0,0,0-.75.2,1.47,1.47,0,0,0-.53.55,1.78,1.78,0,0,0,0,1.6,1.4,1.4,0,0,0,.53.55,1.45,1.45,0,0,0,.75.2A1.49,1.49,0,0,0,60.66,314Z" style="fill:#fff"/><path d="M63.14,309.86a.29.29,0,0,1,0-.4.29.29,0,0,1,.21-.09.27.27,0,0,1,.2.09.24.24,0,0,1,.08.2.27.27,0,0,1-.28.28A.28.28,0,0,1,63.14,309.86Zm0,1h.35v3.67h-.35Z" style="fill:#fff"/><path d="M65.44,314.4a1.7,1.7,0,0,1-.63-.34l.16-.28a2,2,0,0,0,.58.32,2.3,2.3,0,0,0,.74.12,1.49,1.49,0,0,0,.82-.18.59.59,0,0,0,.26-.5.5.5,0,0,0-.14-.37.91.91,0,0,0-.36-.2l-.58-.13a4.8,4.8,0,0,1-.7-.17,1.16,1.16,0,0,1-.46-.29.85.85,0,0,1-.19-.57.86.86,0,0,1,.37-.72,1.61,1.61,0,0,1,1-.28,2.37,2.37,0,0,1,.7.1,1.62,1.62,0,0,1,.56.26l-.16.28a1.67,1.67,0,0,0-.52-.25,2.25,2.25,0,0,0-.58-.08,1.3,1.3,0,0,0-.78.19.58.58,0,0,0-.25.5.48.48,0,0,0,.14.38.91.91,0,0,0,.36.2,5.19,5.19,0,0,0,.6.15,4.48,4.48,0,0,1,.69.16,1.06,1.06,0,0,1,.45.29.77.77,0,0,1,.18.54.87.87,0,0,1-.38.73,1.81,1.81,0,0,1-1.06.27A2.55,2.55,0,0,1,65.44,314.4Z" style="fill:#fff"/><path d="M69.55,314.29a1.68,1.68,0,0,1-.66-.66,1.9,1.9,0,0,1-.24-1,2,2,0,0,1,.24-1,1.74,1.74,0,0,1,.66-.66,2,2,0,0,1,1-.23,1.92,1.92,0,0,1,.81.17,1.48,1.48,0,0,1,.58.5l-.26.19a1.22,1.22,0,0,0-.49-.41,1.47,1.47,0,0,0-.64-.14,1.49,1.49,0,0,0-.76.2,1.4,1.4,0,0,0-.54.54,1.82,1.82,0,0,0,0,1.62,1.4,1.4,0,0,0,.54.54,1.49,1.49,0,0,0,.76.2,1.47,1.47,0,0,0,.64-.14,1.22,1.22,0,0,0,.49-.41l.26.19a1.4,1.4,0,0,1-.58.5,1.78,1.78,0,0,1-.81.17A1.89,1.89,0,0,1,69.55,314.29Z" style="fill:#fff"/><path d="M73.27,309.86a.28.28,0,1,1,.49-.2.27.27,0,0,1-.09.2.29.29,0,0,1-.4,0Zm0,1h.35v3.67h-.35Z" style="fill:#fff"/><path d="M78.35,311.21a1.59,1.59,0,0,1,.4,1.15v2.15H78.4v-2.12a1.33,1.33,0,0,0-.31-.94,1.15,1.15,0,0,0-.88-.33,1.31,1.31,0,0,0-1,.39,1.45,1.45,0,0,0-.38,1v2h-.35v-3.67h.34v.79a1.36,1.36,0,0,1,.56-.6,1.7,1.7,0,0,1,.89-.22A1.46,1.46,0,0,1,78.35,311.21Z" style="fill:#fff"/><path d="M83.84,310.84v3.27a1.8,1.8,0,0,1-.44,1.35,1.82,1.82,0,0,1-1.33.44,2.71,2.71,0,0,1-.95-.16,1.82,1.82,0,0,1-.73-.43l.19-.26a2,2,0,0,0,.66.39,2.48,2.48,0,0,0,.82.14,1.48,1.48,0,0,0,1.08-.35,1.43,1.43,0,0,0,.35-1.08v-.61a1.52,1.52,0,0,1-.62.61,2,2,0,0,1-1.83,0,1.64,1.64,0,0,1-.65-.63,1.78,1.78,0,0,1-.24-.92,1.75,1.75,0,0,1,.24-.92A1.6,1.6,0,0,1,81,311a1.93,1.93,0,0,1,.93-.22,1.83,1.83,0,0,1,.91.22,1.55,1.55,0,0,1,.63.64v-.83Zm-1.07,3a1.35,1.35,0,0,0,.54-.52,1.48,1.48,0,0,0,.19-.76,1.45,1.45,0,0,0-.19-.76,1.35,1.35,0,0,0-.54-.52,1.66,1.66,0,0,0-.77-.19,1.63,1.63,0,0,0-.77.19,1.39,1.39,0,0,0-.53.52,1.45,1.45,0,0,0-.19.76,1.48,1.48,0,0,0,.19.76,1.39,1.39,0,0,0,.53.52,1.63,1.63,0,0,0,.77.19A1.66,1.66,0,0,0,82.77,313.87Z" style="fill:#fff"/><path d="M90.92,312.76H87.78a1.6,1.6,0,0,0,.21.76,1.38,1.38,0,0,0,.56.51,1.55,1.55,0,0,0,.78.19,1.8,1.8,0,0,0,.66-.13,1.39,1.39,0,0,0,.51-.39l.2.24a1.56,1.56,0,0,1-.6.44,2,2,0,0,1-.78.15,2,2,0,0,1-1-.24,1.77,1.77,0,0,1-.67-.66,1.9,1.9,0,0,1-.24-1,2,2,0,0,1,.23-1,1.7,1.7,0,0,1,1.53-.9,1.79,1.79,0,0,1,.89.23,1.71,1.71,0,0,1,.62.66,1.9,1.9,0,0,1,.23,1Zm-2.43-1.47a1.33,1.33,0,0,0-.49.48,1.56,1.56,0,0,0-.22.71h2.81a1.6,1.6,0,0,0-.21-.7,1.38,1.38,0,0,0-.5-.49,1.51,1.51,0,0,0-1.39,0Z" style="fill:#fff"/><path d="M92.37,309.29h.35v5.22h-.35Z" style="fill:#fff"/><path d="M94.52,309.86a.29.29,0,0,1,0-.4.27.27,0,0,1,.2-.09.29.29,0,0,1,.21.09.28.28,0,0,1,.08.2.3.3,0,0,1-.08.2.28.28,0,0,1-.21.08A.26.26,0,0,1,94.52,309.86Zm0,1h.35v3.67h-.35Z" style="fill:#fff"/><path d="M98.54,314.27a.84.84,0,0,1-.33.2,1.42,1.42,0,0,1-.42.06,1,1,0,0,1-.73-.26,1,1,0,0,1-.26-.73v-2.4h-.67v-.3h.67V310h.35v.8h1.16v.3H97.15v2.36a.82.82,0,0,0,.17.55.67.67,0,0,0,.51.18.84.84,0,0,0,.57-.2Z" style="fill:#fff"/><path d="M100.11,314a.32.32,0,0,1,.08.21.39.39,0,0,1,0,.15,1.36,1.36,0,0,1,0,.17l-.27,1H99.6l.23-1a.29.29,0,0,1-.16-.1.25.25,0,0,1-.07-.19.29.29,0,0,1,.09-.21.25.25,0,0,1,.21-.08A.32.32,0,0,1,100.11,314Z" style="fill:#fff"/><path d="M103.93,314.4a1.7,1.7,0,0,1-.63-.34l.16-.28a2,2,0,0,0,.58.32,2.34,2.34,0,0,0,.74.12,1.49,1.49,0,0,0,.82-.18.56.56,0,0,0,.26-.5.5.5,0,0,0-.14-.37.87.87,0,0,0-.35-.2l-.59-.13a4.8,4.8,0,0,1-.7-.17,1.06,1.06,0,0,1-.45-.29.8.8,0,0,1-.19-.57.88.88,0,0,1,.36-.72,1.62,1.62,0,0,1,1-.28,2.35,2.35,0,0,1,.69.1,1.62,1.62,0,0,1,.56.26l-.16.28a1.73,1.73,0,0,0-.51-.25,2.39,2.39,0,0,0-.59-.08,1.27,1.27,0,0,0-.77.19.56.56,0,0,0-.26.5.52.52,0,0,0,.14.38.88.88,0,0,0,.37.2,4.3,4.3,0,0,0,.6.15,5.13,5.13,0,0,1,.69.16,1.09,1.09,0,0,1,.44.29.77.77,0,0,1,.18.54.86.86,0,0,1-.37.73,1.84,1.84,0,0,1-1.07.27A2.55,2.55,0,0,1,103.93,314.4Z" style="fill:#fff"/><path d="M110.64,312.76h-3.15a1.5,1.5,0,0,0,.22.76,1.35,1.35,0,0,0,.55.51,1.55,1.55,0,0,0,.78.19,1.76,1.76,0,0,0,.66-.13,1.39,1.39,0,0,0,.51-.39l.2.24a1.56,1.56,0,0,1-.6.44,2,2,0,0,1-.78.15,1.94,1.94,0,0,1-1-.24,1.64,1.64,0,0,1-.67-.66,1.9,1.9,0,0,1-.24-1,2,2,0,0,1,.22-1,1.7,1.7,0,0,1,1.53-.9,1.76,1.76,0,0,1,.89.23,1.74,1.74,0,0,1,.63.66,2,2,0,0,1,.22,1Zm-2.44-1.47a1.33,1.33,0,0,0-.49.48,1.55,1.55,0,0,0-.21.71h2.8a1.43,1.43,0,0,0-.71-1.19,1.41,1.41,0,0,0-.69-.17A1.48,1.48,0,0,0,108.2,311.29Z" style="fill:#fff"/><path d="M115.33,309.29v5.22H115v-.87a1.56,1.56,0,0,1-.61.66,1.67,1.67,0,0,1-.89.23,1.84,1.84,0,0,1-.93-.24,1.63,1.63,0,0,1-.64-.66,1.9,1.9,0,0,1-.24-1,2,2,0,0,1,.24-1,1.69,1.69,0,0,1,.64-.66,1.94,1.94,0,0,1,.93-.23,1.72,1.72,0,0,1,.88.23,1.6,1.6,0,0,1,.61.65v-2.4ZM114.26,314a1.34,1.34,0,0,0,.53-.55,1.78,1.78,0,0,0,0-1.6,1.4,1.4,0,0,0-.53-.55,1.51,1.51,0,0,0-1.5,0,1.4,1.4,0,0,0-.53.55,1.78,1.78,0,0,0,0,1.6,1.34,1.34,0,0,0,.53.55,1.51,1.51,0,0,0,1.5,0Z" style="fill:#fff"/><path d="M122.57,309.29v5.22h-.35v-.87a1.45,1.45,0,0,1-.61.66,1.64,1.64,0,0,1-.89.23,1.78,1.78,0,0,1-.92-.24,1.65,1.65,0,0,1-.65-.66,1.9,1.9,0,0,1-.23-1,2,2,0,0,1,.23-1,1.72,1.72,0,0,1,.65-.66,1.87,1.87,0,0,1,.92-.23,1.72,1.72,0,0,1,.88.23,1.62,1.62,0,0,1,.62.65v-2.4ZM121.5,314a1.32,1.32,0,0,0,.52-.55,1.7,1.7,0,0,0,0-1.6,1.38,1.38,0,0,0-.52-.55,1.49,1.49,0,0,0-.76-.2,1.45,1.45,0,0,0-.75.2,1.47,1.47,0,0,0-.53.55,1.78,1.78,0,0,0,0,1.6,1.4,1.4,0,0,0,.53.55,1.45,1.45,0,0,0,.75.2A1.49,1.49,0,0,0,121.5,314Z" style="fill:#fff"/><path d="M124.37,309.86a.29.29,0,0,1,.2-.49.29.29,0,0,1,.21.09.28.28,0,0,1,.08.2.3.3,0,0,1-.08.2.28.28,0,0,1-.21.08A.24.24,0,0,1,124.37,309.86Zm0,1h.35v3.67h-.35Z" style="fill:#fff"/><path d="M128.86,311.16a1.35,1.35,0,0,1,.36,1v2.33h-.34v-.66a1.12,1.12,0,0,1-.51.5,1.66,1.66,0,0,1-.8.18,1.51,1.51,0,0,1-1-.28,1,1,0,0,1,0-1.51,1.64,1.64,0,0,1,1-.28h1.26v-.3a1,1,0,0,0-.28-.78,1.14,1.14,0,0,0-.81-.26,2,2,0,0,0-.69.12,1.76,1.76,0,0,0-.57.34l-.17-.25A1.79,1.79,0,0,1,127,311a2.14,2.14,0,0,1,.8-.14A1.45,1.45,0,0,1,128.86,311.16Zm-.47,2.87a1.29,1.29,0,0,0,.48-.61v-.69h-1.25a1.24,1.24,0,0,0-.78.2.66.66,0,0,0-.24.54.7.7,0,0,0,.26.57,1.19,1.19,0,0,0,.75.21A1.31,1.31,0,0,0,128.39,314Z" style="fill:#fff"/><path d="M136.64,311.21a1.59,1.59,0,0,1,.39,1.15v2.15h-.35v-2.12a1.33,1.33,0,0,0-.3-.94,1.08,1.08,0,0,0-.84-.33,1.27,1.27,0,0,0-1,.39,1.48,1.48,0,0,0-.36,1v2h-.35v-2.12a1.33,1.33,0,0,0-.3-.94,1.11,1.11,0,0,0-.85-.33,1.25,1.25,0,0,0-1,.39,1.48,1.48,0,0,0-.36,1v2H131v-3.67h.34v.78a1.42,1.42,0,0,1,.54-.6,1.69,1.69,0,0,1,.86-.21,1.51,1.51,0,0,1,.85.22,1.23,1.23,0,0,1,.49.66,1.41,1.41,0,0,1,.57-.64,1.72,1.72,0,0,1,.91-.24A1.42,1.42,0,0,1,136.64,311.21Z" style="fill:#fff"/><path d="M143.85,311.21a1.55,1.55,0,0,1,.4,1.15v2.15h-.35v-2.12a1.29,1.29,0,0,0-.31-.94,1.15,1.15,0,0,0-.88-.33,1.34,1.34,0,0,0-1,.39,1.44,1.44,0,0,0-.37,1v2H141v-3.67h.33v.79a1.38,1.38,0,0,1,.57-.6,1.67,1.67,0,0,1,.88-.22A1.46,1.46,0,0,1,143.85,311.21Z" style="fill:#fff"/><path d="M146.55,314.29a1.68,1.68,0,0,1-.66-.66,2,2,0,0,1,0-1.92,1.74,1.74,0,0,1,.66-.66,1.81,1.81,0,0,1,.93-.24,1.85,1.85,0,0,1,.94.24,1.72,1.72,0,0,1,.65.66,2,2,0,0,1,0,1.92,1.65,1.65,0,0,1-.65.66,1.85,1.85,0,0,1-.94.24A1.81,1.81,0,0,1,146.55,314.29Zm1.69-.27a1.38,1.38,0,0,0,.52-.55,1.78,1.78,0,0,0,0-1.6,1.45,1.45,0,0,0-.52-.55,1.51,1.51,0,0,0-.76-.2,1.45,1.45,0,0,0-.75.2,1.47,1.47,0,0,0-.53.55,1.78,1.78,0,0,0,0,1.6,1.4,1.4,0,0,0,.53.55,1.45,1.45,0,0,0,.75.2A1.51,1.51,0,0,0,148.24,314Z" style="fill:#fff"/><path d="M153.62,311.21a1.55,1.55,0,0,1,.4,1.15v2.15h-.35v-2.12a1.29,1.29,0,0,0-.31-.94,1.15,1.15,0,0,0-.87-.33,1.35,1.35,0,0,0-1,.39,1.44,1.44,0,0,0-.37,1v2h-.35v-3.67h.34v.79a1.3,1.3,0,0,1,.56-.6,1.7,1.7,0,0,1,.89-.22A1.44,1.44,0,0,1,153.62,311.21Z" style="fill:#fff"/><path d="M159,310.84v3.67h-.34v-.79a1.31,1.31,0,0,1-.54.6,1.59,1.59,0,0,1-.84.21,1.39,1.39,0,0,1-1.52-1.55v-2.14h.35V313a1.29,1.29,0,0,0,.31.94,1.18,1.18,0,0,0,.89.33,1.27,1.27,0,0,0,1-.39,1.46,1.46,0,0,0,.36-1v-2Z" style="fill:#fff"/><path d="M166.48,311.21a1.59,1.59,0,0,1,.39,1.15v2.15h-.35v-2.12a1.33,1.33,0,0,0-.3-.94,1.08,1.08,0,0,0-.84-.33,1.27,1.27,0,0,0-1,.39,1.48,1.48,0,0,0-.36,1v2h-.35v-2.12a1.33,1.33,0,0,0-.3-.94,1.08,1.08,0,0,0-.84-.33,1.26,1.26,0,0,0-1,.39,1.48,1.48,0,0,0-.36,1v2h-.35v-3.67h.33v.78a1.44,1.44,0,0,1,.55-.6,1.65,1.65,0,0,1,.85-.21,1.51,1.51,0,0,1,.85.22,1.19,1.19,0,0,1,.49.66,1.49,1.49,0,0,1,.58-.64,1.66,1.66,0,0,1,.9-.24A1.4,1.4,0,0,1,166.48,311.21Z" style="fill:#fff"/><path d="M168.36,312.46h1.8v.32h-1.8Z" style="fill:#fff"/><path d="M53.75,325.27a1.57,1.57,0,0,1,.38,1.15v2.14h-.35v-2.11a1.35,1.35,0,0,0-.3-.95,1.11,1.11,0,0,0-.84-.32,1.27,1.27,0,0,0-1,.39,1.46,1.46,0,0,0-.36,1v1.95H51v-2.11a1.35,1.35,0,0,0-.3-.95,1.11,1.11,0,0,0-.84-.32,1.27,1.27,0,0,0-1,.39,1.46,1.46,0,0,0-.36,1v1.95h-.35v-3.67h.34v.79a1.31,1.31,0,0,1,.54-.6,1.69,1.69,0,0,1,.86-.22,1.51,1.51,0,0,1,.84.23,1.25,1.25,0,0,1,.5.66,1.43,1.43,0,0,1,.57-.65,1.69,1.69,0,0,1,.91-.24A1.42,1.42,0,0,1,53.75,325.27Z" style="fill:#fff"/><path d="M58.8,324.89l-1.88,4.17a1.66,1.66,0,0,1-.49.69,1,1,0,0,1-.65.2,1.27,1.27,0,0,1-.48-.08,1,1,0,0,1-.37-.25l.17-.26a.93.93,0,0,0,.68.28.72.72,0,0,0,.46-.14,1.45,1.45,0,0,0,.35-.51l.19-.44-1.64-3.66h.37L57,328.18l1.47-3.29Z" style="fill:#fff"/><path d="M64.94,325.27a1.57,1.57,0,0,1,.4,1.15v2.14H65v-2.11a1.36,1.36,0,0,0-.31-.95,1.19,1.19,0,0,0-.88-.32,1.31,1.31,0,0,0-1,.39,1.43,1.43,0,0,0-.38,1v1.95h-.35v-3.67h.34v.8a1.43,1.43,0,0,1,.56-.61,1.8,1.8,0,0,1,.89-.22A1.47,1.47,0,0,1,64.94,325.27Z" style="fill:#fff"/><path d="M67.1,323.92a.28.28,0,0,1-.08-.2.27.27,0,0,1,.29-.29.3.3,0,0,1,.2.08.26.26,0,0,1,.08.2.28.28,0,0,1-.08.21.3.3,0,0,1-.2.08A.32.32,0,0,1,67.1,323.92Zm0,1h.35v3.67h-.35Z" style="fill:#fff"/><path d="M72.07,325.1a1.65,1.65,0,0,1,.65.66,1.94,1.94,0,0,1,.24,1,1.9,1.9,0,0,1-.24,1,1.65,1.65,0,0,1-.65.66,1.78,1.78,0,0,1-.92.24,1.7,1.7,0,0,1-.89-.24,1.53,1.53,0,0,1-.61-.65v.86h-.34v-5.21h.35v2.38a1.7,1.7,0,0,1,.61-.64,1.75,1.75,0,0,1,.88-.23A1.78,1.78,0,0,1,72.07,325.1Zm-.19,3a1.34,1.34,0,0,0,.53-.55,1.64,1.64,0,0,0,.2-.8,1.61,1.61,0,0,0-.2-.8,1.28,1.28,0,0,0-.53-.55,1.45,1.45,0,0,0-.75-.2,1.51,1.51,0,0,0-.76.2,1.38,1.38,0,0,0-.52.55,1.6,1.6,0,0,0-.19.8,1.63,1.63,0,0,0,.19.8,1.45,1.45,0,0,0,.52.55,1.51,1.51,0,0,0,.76.19A1.44,1.44,0,0,0,71.88,328.08Z" style="fill:#fff"/><path d="M77.27,325.27a1.53,1.53,0,0,1,.4,1.15v2.14h-.35v-2.11a1.36,1.36,0,0,0-.31-.95,1.19,1.19,0,0,0-.88-.32,1.31,1.31,0,0,0-1,.39,1.42,1.42,0,0,0-.37,1v1.95h-.36v-5.21h.36v2.31a1.33,1.33,0,0,1,.56-.59,1.72,1.72,0,0,1,.87-.21A1.47,1.47,0,0,1,77.27,325.27Z" style="fill:#fff"/><path d="M84.71,326.81H81.56a1.47,1.47,0,0,0,.22.76,1.31,1.31,0,0,0,.55.52,1.66,1.66,0,0,0,.78.18,1.59,1.59,0,0,0,.66-.13,1.27,1.27,0,0,0,.51-.38l.2.23a1.56,1.56,0,0,1-.6.44,1.85,1.85,0,0,1-.78.16,1.94,1.94,0,0,1-1-.24,1.7,1.7,0,0,1-.67-.66,1.9,1.9,0,0,1-.24-1,2,2,0,0,1,.22-1,1.7,1.7,0,0,1,.63-.67,1.73,1.73,0,0,1,.9-.24,1.67,1.67,0,0,1,.89.24,1.74,1.74,0,0,1,.63.66,2,2,0,0,1,.22.95Zm-2.44-1.46a1.25,1.25,0,0,0-.49.48,1.55,1.55,0,0,0-.21.71h2.8a1.4,1.4,0,0,0-.71-1.19,1.31,1.31,0,0,0-.69-.18A1.38,1.38,0,0,0,82.27,325.35Z" style="fill:#fff"/><path d="M89.36,324.89v3.67H89v-.79a1.39,1.39,0,0,1-.54.61,1.64,1.64,0,0,1-.84.21A1.41,1.41,0,0,1,86.11,327v-2.15h.35V327a1.26,1.26,0,0,0,.32.94,1.14,1.14,0,0,0,.89.32,1.28,1.28,0,0,0,1-.38,1.48,1.48,0,0,0,.36-1v-2Z" style="fill:#fff"/><path d="M91.16,323.92a.28.28,0,0,1-.08-.2.27.27,0,0,1,.29-.29.3.3,0,0,1,.2.08.26.26,0,0,1,.08.2.28.28,0,0,1-.08.21.3.3,0,0,1-.2.08A.32.32,0,0,1,91.16,323.92Zm0,1h.35v3.67h-.35Z" style="fill:#fff"/><path d="M93.45,328.46a1.73,1.73,0,0,1-.62-.34l.16-.28a1.86,1.86,0,0,0,.58.31,2.06,2.06,0,0,0,.74.13,1.49,1.49,0,0,0,.82-.18.59.59,0,0,0,.26-.51.49.49,0,0,0-.14-.36.91.91,0,0,0-.36-.2,4.81,4.81,0,0,0-.58-.13,4.8,4.8,0,0,1-.7-.17,1.08,1.08,0,0,1-.46-.3.81.81,0,0,1-.19-.56.88.88,0,0,1,.36-.72,1.66,1.66,0,0,1,1-.29,2.75,2.75,0,0,1,.7.1,2.24,2.24,0,0,1,.56.26l-.16.28a1.66,1.66,0,0,0-.52-.24,1.92,1.92,0,0,0-.59-.09,1.36,1.36,0,0,0-.77.19.61.61,0,0,0-.26.5.51.51,0,0,0,.15.39.91.91,0,0,0,.36.2c.14,0,.34.09.6.14a5.78,5.78,0,0,1,.69.17,1,1,0,0,1,.45.28.81.81,0,0,1,.18.55.88.88,0,0,1-.38.73,1.81,1.81,0,0,1-1.06.27A2.65,2.65,0,0,1,93.45,328.46Z" style="fill:#fff"/><path d="M102.7,325.27a1.57,1.57,0,0,1,.39,1.15v2.14h-.35v-2.11a1.36,1.36,0,0,0-.31-.95,1.11,1.11,0,0,0-.84-.32,1.25,1.25,0,0,0-1,.39,1.42,1.42,0,0,0-.37,1v1.95H99.9v-2.11a1.35,1.35,0,0,0-.3-.95,1.11,1.11,0,0,0-.84-.32,1.27,1.27,0,0,0-1,.39,1.46,1.46,0,0,0-.36,1v1.95h-.35v-3.67h.34v.79a1.31,1.31,0,0,1,.54-.6,1.69,1.69,0,0,1,.86-.22,1.51,1.51,0,0,1,.84.23,1.2,1.2,0,0,1,.5.66,1.43,1.43,0,0,1,.57-.65,1.69,1.69,0,0,1,.91-.24A1.42,1.42,0,0,1,102.7,325.27Z" style="fill:#fff"/><path d="M105.38,328.35a1.65,1.65,0,0,1-.65-.66,2,2,0,0,1-.24-1,1.9,1.9,0,0,1,.24-1,1.61,1.61,0,0,1,.65-.67,1.85,1.85,0,0,1,.94-.24,1.81,1.81,0,0,1,.93.24,1.7,1.7,0,0,1,.66.67,1.9,1.9,0,0,1,.24,1,2,2,0,0,1-.24,1,1.74,1.74,0,0,1-.66.66,1.81,1.81,0,0,1-.93.24A1.85,1.85,0,0,1,105.38,328.35Zm1.69-.27a1.47,1.47,0,0,0,.53-.55,1.63,1.63,0,0,0,.19-.8,1.6,1.6,0,0,0-.19-.8,1.4,1.4,0,0,0-.53-.55,1.45,1.45,0,0,0-.75-.2,1.51,1.51,0,0,0-.76.2,1.38,1.38,0,0,0-.52.55,1.6,1.6,0,0,0-.19.8,1.63,1.63,0,0,0,.19.8,1.45,1.45,0,0,0,.52.55,1.51,1.51,0,0,0,.76.19A1.44,1.44,0,0,0,107.07,328.08Z" style="fill:#fff"/><path d="M112.84,323.35v5.21h-.35v-.86a1.55,1.55,0,0,1-.61.66,1.73,1.73,0,0,1-.89.23,1.78,1.78,0,0,1-.92-.24,1.72,1.72,0,0,1-.65-.66,1.9,1.9,0,0,1-.23-1,1.93,1.93,0,0,1,.23-1,1.72,1.72,0,0,1,.65-.66,1.78,1.78,0,0,1,.92-.24,1.64,1.64,0,0,1,.88.24,1.66,1.66,0,0,1,.62.64v-2.39Zm-1.07,4.73a1.38,1.38,0,0,0,.52-.55,1.64,1.64,0,0,0,.2-.8,1.61,1.61,0,0,0-.2-.8,1.32,1.32,0,0,0-.52-.55,1.53,1.53,0,0,0-1.51,0,1.32,1.32,0,0,0-.52.55,1.61,1.61,0,0,0-.2.8,1.64,1.64,0,0,0,.2.8,1.38,1.38,0,0,0,.52.55,1.6,1.6,0,0,0,1.51,0Z" style="fill:#fff"/><path d="M118.63,328.33a.76.76,0,0,1-.33.19,1.16,1.16,0,0,1-.42.07,1,1,0,0,1-.73-.26,1,1,0,0,1-.26-.74V325.2h-.67v-.31h.67v-.8h.35v.8h1.16v.31h-1.16v2.36a.78.78,0,0,0,.17.54.66.66,0,0,0,.51.19.8.8,0,0,0,.57-.21Z" style="fill:#fff"/><path d="M119.93,323.92a.28.28,0,0,1-.08-.2.32.32,0,0,1,.08-.21.32.32,0,0,1,.2-.08.32.32,0,0,1,.21.08.3.3,0,0,1,.08.2.27.27,0,0,1-.29.29A.32.32,0,0,1,119.93,323.92Zm0,1h.35v3.67H120Z" style="fill:#fff"/><path d="M125,325.27a1.53,1.53,0,0,1,.4,1.15v2.14h-.35v-2.11a1.31,1.31,0,0,0-.31-.95,1.18,1.18,0,0,0-.87-.32,1.35,1.35,0,0,0-1,.39,1.42,1.42,0,0,0-.37,1v1.95h-.35v-3.67h.34v.8a1.38,1.38,0,0,1,.56-.61,1.8,1.8,0,0,1,.89-.22A1.45,1.45,0,0,1,125,325.27Z" style="fill:#fff"/><path d="M127.71,328.35a1.74,1.74,0,0,1-.66-.66,2.14,2.14,0,0,1,0-1.93,1.74,1.74,0,0,1,.66-.66,1.9,1.9,0,0,1,1-.24,1.77,1.77,0,0,1,.8.18,1.4,1.4,0,0,1,.58.5l-.25.19a1.36,1.36,0,0,0-.49-.41,1.53,1.53,0,0,0-.64-.14,1.63,1.63,0,0,0-.77.19,1.28,1.28,0,0,0-.53.55,1.62,1.62,0,0,0-.2.81,1.68,1.68,0,0,0,.2.81,1.31,1.31,0,0,0,.53.54,1.65,1.65,0,0,0,1.41.06,1.36,1.36,0,0,0,.49-.41l.25.19a1.48,1.48,0,0,1-.58.5,2,2,0,0,1-1.76-.07Z" style="fill:#fff"/><path d="M131.43,323.92a.25.25,0,0,1-.09-.2.29.29,0,0,1,.09-.21.28.28,0,0,1,.2-.08.32.32,0,0,1,.21.08.3.3,0,0,1,.08.2.27.27,0,0,1-.29.29A.28.28,0,0,1,131.43,323.92Zm0,1h.35v3.67h-.35Z" style="fill:#fff"/><path d="M136.89,323.35v5.21h-.35v-.86a1.55,1.55,0,0,1-.61.66,1.73,1.73,0,0,1-.89.23,1.78,1.78,0,0,1-.92-.24,1.72,1.72,0,0,1-.65-.66,1.9,1.9,0,0,1-.23-1,1.93,1.93,0,0,1,.23-1,1.72,1.72,0,0,1,.65-.66,1.78,1.78,0,0,1,.92-.24,1.64,1.64,0,0,1,.88.24,1.66,1.66,0,0,1,.62.64v-2.39Zm-1.07,4.73a1.38,1.38,0,0,0,.52-.55,1.64,1.64,0,0,0,.2-.8,1.61,1.61,0,0,0-.2-.8,1.32,1.32,0,0,0-.52-.55,1.49,1.49,0,0,0-.76-.2,1.45,1.45,0,0,0-.75.2,1.32,1.32,0,0,0-.52.55,1.61,1.61,0,0,0-.2.8,1.64,1.64,0,0,0,.2.8,1.38,1.38,0,0,0,.52.55,1.44,1.44,0,0,0,.75.19A1.48,1.48,0,0,0,135.82,328.08Z" style="fill:#fff"/><path d="M141.92,324.89v3.67h-.34v-.79a1.39,1.39,0,0,1-.54.61,1.59,1.59,0,0,1-.84.21,1.52,1.52,0,0,1-1.12-.4,1.55,1.55,0,0,1-.41-1.15v-2.15H139V327a1.3,1.3,0,0,0,.31.94,1.17,1.17,0,0,0,.89.32,1.3,1.3,0,0,0,1-.38,1.48,1.48,0,0,0,.36-1v-2Z" style="fill:#fff"/><path d="M146.63,325.27a1.53,1.53,0,0,1,.4,1.15v2.14h-.35v-2.11a1.31,1.31,0,0,0-.31-.95,1.18,1.18,0,0,0-.87-.32,1.35,1.35,0,0,0-1,.39,1.42,1.42,0,0,0-.37,1v1.95h-.35v-3.67h.33v.8a1.46,1.46,0,0,1,.57-.61,1.77,1.77,0,0,1,.88-.22A1.47,1.47,0,0,1,146.63,325.27Z" style="fill:#fff"/><path d="M150.64,328.33a.89.89,0,0,1-.33.19,1.2,1.2,0,0,1-.42.07.89.89,0,0,1-1-1V325.2h-.68v-.31h.68v-.8h.35v.8h1.16v.31h-1.16v2.36a.73.73,0,0,0,.17.54.63.63,0,0,0,.51.19.79.79,0,0,0,.56-.21Z" style="fill:#fff"/><path d="M57.06,280.35v.85H53v-5.47h4v.85H54V278h2.64v.84H54v1.51Z" style="fill:#fff"/><path d="M62.11,277.44a1.85,1.85,0,0,1,.47,1.37v2.39h-1v-2.27a1.17,1.17,0,0,0-.26-.82.92.92,0,0,0-.73-.28,1.15,1.15,0,0,0-.85.32,1.3,1.3,0,0,0-.31.94v2.11h-1V277h.92v.53a1.57,1.57,0,0,1,.61-.43,2.16,2.16,0,0,1,.83-.15A1.73,1.73,0,0,1,62.11,277.44Z" style="fill:#fff"/><path d="M67.83,277.44a1.81,1.81,0,0,1,.48,1.37v2.39h-1v-2.27a1.17,1.17,0,0,0-.25-.82.94.94,0,0,0-.73-.28,1.13,1.13,0,0,0-.85.32,1.3,1.3,0,0,0-.32.94v2.11h-1v-5.8h1v2.11a1.64,1.64,0,0,1,.6-.39,2,2,0,0,1,.79-.14A1.7,1.7,0,0,1,67.83,277.44Z" style="fill:#fff"/><path d="M72.93,277.42a1.7,1.7,0,0,1,.49,1.33v2.45H72.5v-.51a1.18,1.18,0,0,1-.51.42,2.12,2.12,0,0,1-.8.14,1.94,1.94,0,0,1-.82-.16,1.31,1.31,0,0,1-.54-.44,1.13,1.13,0,0,1-.19-.65,1.11,1.11,0,0,1,.42-.9,2,2,0,0,1,1.31-.34h1.07v-.06a.83.83,0,0,0-.26-.67,1.09,1.09,0,0,0-.77-.24,2.26,2.26,0,0,0-.69.11,1.56,1.56,0,0,0-.57.31l-.39-.72a2.64,2.64,0,0,1,.79-.38,3.46,3.46,0,0,1,1-.13A2,2,0,0,1,72.93,277.42ZM72,280.37a.86.86,0,0,0,.4-.48v-.48h-1c-.56,0-.84.18-.84.55a.49.49,0,0,0,.21.42.91.91,0,0,0,.58.16A1.26,1.26,0,0,0,72,280.37Z" style="fill:#fff"/><path d="M78.68,277.44a1.85,1.85,0,0,1,.47,1.37v2.39h-1v-2.27a1.17,1.17,0,0,0-.26-.82.94.94,0,0,0-.73-.28,1.15,1.15,0,0,0-.85.32,1.3,1.3,0,0,0-.31.94v2.11h-1V277H76v.53a1.5,1.5,0,0,1,.61-.43,2.14,2.14,0,0,1,.82-.15A1.74,1.74,0,0,1,78.68,277.44Z" style="fill:#fff"/><path d="M81.57,281a2,2,0,0,1-.81-.76,2.19,2.19,0,0,1-.29-1.11,2.12,2.12,0,0,1,.29-1.1,2.09,2.09,0,0,1,.8-.76,2.46,2.46,0,0,1,1.17-.27,2.14,2.14,0,0,1,1.07.25,1.62,1.62,0,0,1,.7.72l-.75.44a1.16,1.16,0,0,0-.44-.44,1.31,1.31,0,0,0-.59-.14,1.26,1.26,0,0,0-.91.35,1.32,1.32,0,0,0-.35.95,1.27,1.27,0,0,0,.35.95,1.23,1.23,0,0,0,.91.36,1.2,1.2,0,0,0,.59-.15,1.13,1.13,0,0,0,.44-.43l.75.43a1.65,1.65,0,0,1-.7.73,2.2,2.2,0,0,1-1.07.25A2.45,2.45,0,0,1,81.57,281Z" style="fill:#fff"/><path d="M89.56,279.42H86.3a1.15,1.15,0,0,0,.45.73,1.46,1.46,0,0,0,.9.27,1.52,1.52,0,0,0,1.13-.45l.52.6a1.66,1.66,0,0,1-.71.51,2.65,2.65,0,0,1-1,.17,2.6,2.6,0,0,1-1.21-.27,2,2,0,0,1-.81-.76,2.18,2.18,0,0,1-.28-1.11,2.27,2.27,0,0,1,.27-1.1,2,2,0,0,1,.77-.76,2.28,2.28,0,0,1,1.11-.27,2.16,2.16,0,0,1,1.08.27,1.89,1.89,0,0,1,.75.76,2.28,2.28,0,0,1,.27,1.13A1.63,1.63,0,0,1,89.56,279.42ZM86.69,278a1.15,1.15,0,0,0-.4.74h2.36a1.16,1.16,0,0,0-.38-.74,1.25,1.25,0,0,0-1.58,0Z" style="fill:#fff"/><path d="M97,276a1.76,1.76,0,0,1,.81.68,1.83,1.83,0,0,1,.28,1,1.86,1.86,0,0,1-.28,1,1.82,1.82,0,0,1-.81.68,3.1,3.1,0,0,1-1.23.23H94.55v1.58h-1v-5.47h2.24A3.1,3.1,0,0,1,97,276Zm-.27,2.52a1.12,1.12,0,0,0,0-1.61,1.56,1.56,0,0,0-1-.28H94.55v2.17h1.18A1.56,1.56,0,0,0,96.74,278.48Z" style="fill:#fff"/><path d="M101.78,277v.93a.93.93,0,0,0-.23,0,1.19,1.19,0,0,0-.89.33,1.33,1.33,0,0,0-.32.95v2h-1V277h.93v.61A1.61,1.61,0,0,1,101.78,277Z" style="fill:#fff"/><path d="M103.69,281a2,2,0,0,1-.79-.76,2.19,2.19,0,0,1-.29-1.11,2.12,2.12,0,0,1,.29-1.1,2,2,0,0,1,.79-.76,2.33,2.33,0,0,1,1.13-.27,2.41,2.41,0,0,1,1.15.27,2,2,0,0,1,.79.76,2.12,2.12,0,0,1,.28,1.1,2.18,2.18,0,0,1-.28,1.11,2,2,0,0,1-.79.76,2.41,2.41,0,0,1-1.15.27A2.33,2.33,0,0,1,103.69,281Zm2-.92a1.28,1.28,0,0,0,.35-.95,1.26,1.26,0,0,0-.35-.94,1.18,1.18,0,0,0-.89-.36,1.16,1.16,0,0,0-.88.36,1.3,1.3,0,0,0-.35.94,1.32,1.32,0,0,0,.35.95,1.16,1.16,0,0,0,.88.36A1.18,1.18,0,0,0,105.71,280.06Z" style="fill:#fff"/><path d="M112.44,275.4v5.8h-.93v-.54a1.47,1.47,0,0,1-.6.44,2,2,0,0,1-.78.15,2.27,2.27,0,0,1-1.08-.26,1.89,1.89,0,0,1-.75-.76,2.27,2.27,0,0,1-.28-1.12,2.3,2.3,0,0,1,.28-1.12,1.84,1.84,0,0,1,.75-.74,2.16,2.16,0,0,1,1.08-.27,2,2,0,0,1,.75.14,1.46,1.46,0,0,1,.59.42V275.4Zm-1.56,4.86a1.22,1.22,0,0,0,.44-.46,1.57,1.57,0,0,0,0-1.38,1.19,1.19,0,0,0-.44-.45,1.34,1.34,0,0,0-1.27,0,1.19,1.19,0,0,0-.44.45,1.57,1.57,0,0,0,0,1.38,1.22,1.22,0,0,0,.44.46,1.34,1.34,0,0,0,1.27,0Z" style="fill:#fff"/><path d="M118.14,277v4.17h-.93v-.53a1.61,1.61,0,0,1-.59.43,1.86,1.86,0,0,1-.75.15,1.79,1.79,0,0,1-1.31-.46,1.84,1.84,0,0,1-.48-1.38V277h1v2.25a1.23,1.23,0,0,0,.25.83.91.91,0,0,0,.72.28,1.1,1.1,0,0,0,.83-.32,1.29,1.29,0,0,0,.31-.93V277Z" style="fill:#fff"/><path d="M120.55,281a2,2,0,0,1-.8-.76,2.09,2.09,0,0,1-.29-1.11,2.05,2.05,0,0,1,1.09-1.86,2.42,2.42,0,0,1,1.16-.27,2.21,2.21,0,0,1,1.08.25,1.68,1.68,0,0,1,.7.72l-.75.44a1.18,1.18,0,0,0-.45-.44,1.28,1.28,0,0,0-.59-.14,1.25,1.25,0,0,0-.9.35,1.29,1.29,0,0,0-.36.95,1.27,1.27,0,0,0,.36.95,1.19,1.19,0,0,0,.9.36,1.18,1.18,0,0,0,.59-.15,1.16,1.16,0,0,0,.45-.43l.75.43a1.67,1.67,0,0,1-.71.73,2.17,2.17,0,0,1-1.07.25A2.45,2.45,0,0,1,120.55,281Z" style="fill:#fff"/><path d="M127.27,281a1.22,1.22,0,0,1-.41.21,1.81,1.81,0,0,1-.52.07,1.46,1.46,0,0,1-1.06-.36,1.38,1.38,0,0,1-.38-1v-2h-.68v-.78h.68v-1h1v1H127v.78h-1.11v2a.68.68,0,0,0,.15.47.56.56,0,0,0,.42.16.85.85,0,0,0,.55-.18Z" style="fill:#fff"/><path d="M128.51,276.17a.54.54,0,0,1-.18-.42.54.54,0,0,1,.18-.41.6.6,0,0,1,.45-.17.63.63,0,0,1,.44.16.5.5,0,0,1,.18.4.57.57,0,0,1-.18.43.57.57,0,0,1-.44.18A.64.64,0,0,1,128.51,276.17Zm0,.86h1v4.17h-1Z" style="fill:#fff"/><path d="M135,277l-1.79,4.17h-1L130.43,277h1l1.29,3.09,1.33-3.09Z" style="fill:#fff"/><path d="M136,276.17a.54.54,0,0,1-.18-.42.54.54,0,0,1,.18-.41.6.6,0,0,1,.45-.17.63.63,0,0,1,.44.16.5.5,0,0,1,.18.4.57.57,0,0,1-.18.43.57.57,0,0,1-.44.18A.64.64,0,0,1,136,276.17Zm0,.86h1v4.17h-1Z" style="fill:#fff"/><path d="M141.14,281a1.38,1.38,0,0,1-.42.21,1.77,1.77,0,0,1-.52.07,1.46,1.46,0,0,1-1.06-.36,1.38,1.38,0,0,1-.37-1v-2h-.69v-.78h.69v-1h1v1h1.12v.78h-1.12v2a.68.68,0,0,0,.15.47.58.58,0,0,0,.43.16.8.8,0,0,0,.54-.18Z" style="fill:#fff"/><path d="M146.14,277l-1.94,4.5a2.08,2.08,0,0,1-.66,1,1.64,1.64,0,0,1-.95.28,1.83,1.83,0,0,1-.61-.11,1.21,1.21,0,0,1-.5-.28l.39-.71a1.33,1.33,0,0,0,.33.21,1.07,1.07,0,0,0,.39.07.64.64,0,0,0,.42-.13,1.35,1.35,0,0,0,.31-.44l.07-.17L141.57,277h1l1.3,3.08,1.32-3.08Z" style="fill:#fff"/><rect x="42.95" y="344.36" width="119.74" height="27.75" rx="11.61" style="fill:url(#b)"/><path d="M84.57,360.23a2.63,2.63,0,0,1-1-1,2.94,2.94,0,0,1,0-2.89,2.73,2.73,0,0,1,1-1,3.1,3.1,0,0,1,1.49-.37,3.07,3.07,0,0,1,1.23.24,2.41,2.41,0,0,1,.93.68l-.65.62a1.91,1.91,0,0,0-1.46-.65,2.13,2.13,0,0,0-1,.25,1.8,1.8,0,0,0-.69.68,2.09,2.09,0,0,0-.25,1,2,2,0,0,0,.25,1,1.8,1.8,0,0,0,.69.68,2.13,2.13,0,0,0,1,.25,1.91,1.91,0,0,0,1.46-.65l.65.62a2.37,2.37,0,0,1-.94.68,3.05,3.05,0,0,1-1.22.24A3,3,0,0,1,84.57,360.23Z" style="fill:#fff"/><path d="M90.08,360.3a1.93,1.93,0,0,1-.79-.76,2.25,2.25,0,0,1,0-2.21,1.91,1.91,0,0,1,.79-.75,2.23,2.23,0,0,1,1.13-.28,2.3,2.3,0,0,1,1.15.28,2,2,0,0,1,.79.75,2.32,2.32,0,0,1,0,2.21,2,2,0,0,1-.79.76,2.41,2.41,0,0,1-1.15.27A2.33,2.33,0,0,1,90.08,360.3Zm2-.92a1.28,1.28,0,0,0,.35-.95,1.26,1.26,0,0,0-.35-.94,1.18,1.18,0,0,0-.89-.36,1.16,1.16,0,0,0-.88.36,1.3,1.3,0,0,0-.35.94,1.32,1.32,0,0,0,.35.95,1.16,1.16,0,0,0,.88.36A1.18,1.18,0,0,0,92.1,359.38Z" style="fill:#fff"/><path d="M98.38,356.76a1.83,1.83,0,0,1,.48,1.37v2.39h-1v-2.27a1.14,1.14,0,0,0-.26-.82,1,1,0,0,0-.73-.28,1.11,1.11,0,0,0-.85.33,1.3,1.3,0,0,0-.31.93v2.11h-1v-4.17h.92v.54a1.57,1.57,0,0,1,.61-.44,2.19,2.19,0,0,1,.83-.15A1.77,1.77,0,0,1,98.38,356.76Z" style="fill:#fff"/><path d="M103,360.29a.94.94,0,0,1-.41.21,1.81,1.81,0,0,1-.52.07,1.46,1.46,0,0,1-1.06-.36,1.36,1.36,0,0,1-.37-1v-2h-.69v-.78h.69v-.95h1v.95h1.11v.78h-1.11v2a.66.66,0,0,0,.15.47.54.54,0,0,0,.43.16.89.89,0,0,0,.54-.17Z" style="fill:#fff"/><path d="M104.22,355.49a.54.54,0,0,1-.18-.41.54.54,0,0,1,.18-.42.64.64,0,0,1,.45-.17.63.63,0,0,1,.44.16.52.52,0,0,1,.18.4.64.64,0,0,1-1.07.44Zm0,.86h1v4.17h-1Z" style="fill:#fff"/><path d="M110.44,356.76a1.86,1.86,0,0,1,.47,1.37v2.39h-1v-2.27a1.19,1.19,0,0,0-.26-.82,1,1,0,0,0-.73-.28,1.11,1.11,0,0,0-.85.33,1.26,1.26,0,0,0-.31.93v2.11h-1v-4.17h.92v.54a1.5,1.5,0,0,1,.61-.44,2.16,2.16,0,0,1,.83-.15A1.77,1.77,0,0,1,110.44,356.76Z" style="fill:#fff"/><path d="M116.57,356.35v4.17h-.93V360a1.55,1.55,0,0,1-.58.43,1.94,1.94,0,0,1-.76.15,1.81,1.81,0,0,1-1.31-.46,1.84,1.84,0,0,1-.48-1.38v-2.38h1v2.25a1.22,1.22,0,0,0,.26.84.91.91,0,0,0,.72.27,1.09,1.09,0,0,0,.83-.32,1.33,1.33,0,0,0,.3-.93v-2.11Z" style="fill:#fff"/><path d="M122.13,358.75h-3.26a1.12,1.12,0,0,0,.44.73,1.46,1.46,0,0,0,.9.27,1.48,1.48,0,0,0,1.13-.46l.52.6a1.63,1.63,0,0,1-.7.51,2.5,2.5,0,0,1-1,.17,2.6,2.6,0,0,1-1.21-.27,2,2,0,0,1-.8-.76,2.16,2.16,0,0,1-.29-1.11,2.11,2.11,0,0,1,.28-1.09,1.88,1.88,0,0,1,.77-.76,2.12,2.12,0,0,1,1.1-.28,2.18,2.18,0,0,1,1.09.27,1.89,1.89,0,0,1,.75.76,2.39,2.39,0,0,1,.26,1.13C122.14,358.52,122.14,358.62,122.13,358.75Zm-2.88-1.39a1.17,1.17,0,0,0-.39.74h2.36a1.18,1.18,0,0,0-.38-.74,1.27,1.27,0,0,0-1.59,0Z" style="fill:#fff"/><g style="clip-path:url(#c)"><g style="opacity:0.29"><g style="opacity:0.25;mix-blend-mode:multiply"><path d="M23,99.21c-4.49-11.71-5.77-24.16,7.25-29.95,9.69-4.31,17.7.85,27.56,2.42C69,73.46,80.31,70.55,88.6,62.61c15.77-15.09,14-47.89-9.34-54.22C73.43,6.81,67.17,13.76,71,19.23c4.56,6.6,11.91,13.59,9.86,22.53C77.74,55.19,63,54.51,52.86,52.19c-11.5-2.62-22-4.47-32.85,1.64C1.69,64.17-4,90.91,13.51,104.75c3.87,3.06,11.78.43,9.49-5.54Z" style="fill:#3d3d3d"/></g><path d="M21,97.21c-4.49-11.71-5.77-24.16,7.25-29.95,9.69-4.31,17.7.85,27.56,2.42C67,71.46,78.31,68.55,86.6,60.61c15.77-15.09,14-47.89-9.34-54.22C71.43,4.81,65.17,11.76,69,17.23c4.56,6.6,11.91,13.59,9.86,22.53C75.74,53.19,61,52.51,50.86,50.19c-11.5-2.62-22-4.47-32.85,1.64C-.31,62.17-6,88.91,11.51,102.75c3.87,3.06,11.78.43,9.49-5.54Z" style="fill:#e3707f"/></g><g style="opacity:0.36"><g style="opacity:0.25;mix-blend-mode:multiply"><path d="M168.53,262.85c-25.19,3.64-42.51,26.65-32.71,52.2,9.15,23.86,40.33,35.21,62.19,21.64,20.27-12.59,26.62-42.41,12.65-61.87-13.51-18.82-47.42-25.6-62.69-5.56-4.8,6.31,3.16,15.63,10.18,13.28,12.32-4.12,23.87-9.44,35.31.74,10.69,9.5,8,27.74-2.74,36.25-11.4,9.05-29.85,3.73-36.73-8.56-7.61-13.59,2.06-36.59,16.12-42.35a3,3,0,0,0-1.58-5.77Z" style="fill:#3d3d3d"/></g><path d="M166.53,260.85c-25.19,3.64-42.51,26.65-32.71,52.2,9.15,23.86,40.33,35.21,62.19,21.64,20.27-12.59,26.62-42.41,12.65-61.87-13.51-18.82-47.42-25.6-62.69-5.56-4.8,6.31,3.16,15.63,10.18,13.28,12.32-4.12,23.87-9.44,35.31.74,10.69,9.5,8,27.74-2.74,36.25-11.4,9.05-29.85,3.73-36.73-8.56-7.61-13.59,2.06-36.59,16.12-42.35a3,3,0,0,0-1.58-5.77Z" style="fill:#8aa9fc"/></g><g style="opacity:0.46"><g style="opacity:0.25;mix-blend-mode:multiply"><path d="M171.89,81.05c6.85-2.22,12.07-8.24,17.37-12.93q9.31-8.25,18.6-16.52C213,47,205.41,39.4,200.27,44c-5.85,5.23-11.66,10.51-17.49,15.78-5.21,4.72-12.1,9.33-15.06,15.84-1.24,2.7.83,6.52,4.17,5.43Z" style="fill:#3d3d3d"/></g><path d="M169.89,79.05c6.85-2.22,12.07-8.24,17.37-12.93q9.31-8.25,18.6-16.52C211,45,203.41,37.4,198.27,42c-5.85,5.23-11.66,10.51-17.49,15.78-5.21,4.72-12.1,9.33-15.06,15.84-1.24,2.7.83,6.52,4.17,5.43Z" style="fill:#e8947e"/></g><g style="opacity:0.34"><g style="opacity:0.25;mix-blend-mode:multiply"><path d="M-5.61,234.25c2.32,6.83,8.4,12,13.16,17.22q8.37,9.21,16.76,18.4c4.68,5.1,12.13-2.64,7.47-7.73q-8-8.67-16-17.29c-4.79-5.15-9.49-12-16-14.86-2.71-1.2-6.49.94-5.35,4.26Z" style="fill:#3d3d3d"/></g><path d="M-7.61,232.25c2.32,6.83,8.4,12,13.16,17.22q8.37,9.21,16.76,18.4c4.68,5.1,12.13-2.64,7.47-7.73q-8-8.67-16-17.29c-4.79-5.15-9.49-12-16-14.86-2.71-1.2-6.49.94-5.35,4.26Z" style="fill:#f5f7fc"/></g></g><polygon points="53.12 245.1 53.74 251.57 65.12 253.92 63.93 246.74 53.12 245.1" style="fill:#fcb1ad"/><path d="M53.75,251.57s-16-.09-14.87,1,27.19,5,27.19,5l-.95-3.65Z" style="fill:#8aa9fc"/><path d="M48.55,253.77c-.1,0-.32-.47-.48-1.12s-.19-1.19-.08-1.22.32.48.48,1.12S48.66,253.75,48.55,253.77Z" style="fill:#38486d"/><path d="M49.9,253.77c-.11,0-.3-.45-.41-1.05s-.12-1.1,0-1.12.3.45.41,1.05S50,253.75,49.9,253.77Z" style="fill:#38486d"/><path d="M51.49,254.11c-.1,0-.46-.47-.7-1.2s-.27-1.36-.16-1.38.31.55.54,1.25S51.59,254.06,51.49,254.11Z" style="fill:#38486d"/><path d="M51.94,252s-.15-.09-.29-.36a1.94,1.94,0,0,1-.18-1.24,2,2,0,0,1,.34-.82,1.7,1.7,0,0,1,.33-.38.73.73,0,0,1,.26-.17.39.39,0,0,1,.44.13.89.89,0,0,1,0,.66,5.6,5.6,0,0,1-.17.54,4.17,4.17,0,0,1-.55,1,1.07,1.07,0,0,1-.26.26.48.48,0,0,1-.45.05,1.53,1.53,0,0,1-.49-.43,4.12,4.12,0,0,1-.57-1,2.35,2.35,0,0,1-.15-.51.56.56,0,0,1,.26-.58.5.5,0,0,1,.58.18,2.11,2.11,0,0,1,.22.37,2.2,2.2,0,0,1,.27,1.65A5.85,5.85,0,0,0,51,250c-.11-.2-.33-.47-.39-.39a.22.22,0,0,0-.07.23,2.72,2.72,0,0,0,.15.42,3.59,3.59,0,0,0,.53.84,1.38,1.38,0,0,0,.33.32s.13,0,.23-.17a4.45,4.45,0,0,0,.51-1,2.81,2.81,0,0,0,.16-.49.78.78,0,0,0,.05-.35,1.32,1.32,0,0,0-.16.1,2,2,0,0,0-.29.3,1.9,1.9,0,0,0-.33.69,1.92,1.92,0,0,0,0,1.12A2.78,2.78,0,0,1,51.94,252Z" style="fill:#38486d"/><path d="M65.71,256.7l-.27,0-.79-.06-2.9-.31c-2.45-.27-5.83-.7-9.54-1.28s-7.06-1.21-9.47-1.7l-2.86-.6-.77-.18a1.23,1.23,0,0,1-.27-.07l.28,0,.78.15,2.86.55c2.42.46,5.76,1.06,9.48,1.65s7.08,1,9.52,1.33l2.89.35.79.1Z" style="fill:#38486d"/><path d="M61.81,256.44a2.89,2.89,0,0,1,3.53-1.7,4.18,4.18,0,0,0-2,.31A4.08,4.08,0,0,0,61.81,256.44Z" style="fill:#38486d"/><path d="M59.93,255.13a12.22,12.22,0,0,1-2-.34,12.16,12.16,0,0,1-2-.51,13,13,0,0,1,2,.35A12.85,12.85,0,0,1,59.93,255.13Z" style="fill:#38486d"/><polygon points="53.74 251.57 53.61 250.21 64.73 251.24 65.12 253.92 53.74 251.57" style="fill:#fff"/><polygon points="92.63 247.11 95.01 253.16 106.59 252.28 103.47 245.7 92.63 247.11" style="fill:#fcb1ad"/><path d="M95,253.16s-15.44,4.34-14,5.11,27.5-2.74,27.5-2.74l-1.91-3.25Z" style="fill:#8aa9fc"/><path d="M90.62,256.71c-.09.06-.44-.37-.77-.94s-.51-1.09-.41-1.15.44.37.77.95S90.72,256.66,90.62,256.71Z" style="fill:#38486d"/><path d="M91.91,256.34c-.1.05-.4-.35-.67-.89s-.42-1-.32-1.08.4.35.68.89S92,256.29,91.91,256.34Z" style="fill:#38486d"/><path d="M93.54,256.23c-.08.07-.57-.33-1-1S91.9,254,92,254s.45.45.87,1.06S93.62,256.15,93.54,256.23Z" style="fill:#38486d"/><path d="M93.4,254.11s-.17,0-.37-.26a1.9,1.9,0,0,1-.52-1.14,2,2,0,0,1,.1-.89,1.76,1.76,0,0,1,.22-.46.69.69,0,0,1,.2-.23.36.36,0,0,1,.45,0,.77.77,0,0,1,.2.62,3.51,3.51,0,0,1,0,.56,4.28,4.28,0,0,1-.24,1.16.79.79,0,0,1-.18.32.49.49,0,0,1-.42.18,1.62,1.62,0,0,1-.59-.29,3.63,3.63,0,0,1-.8-.76,2.2,2.2,0,0,1-.3-.45.56.56,0,0,1,.1-.63.47.47,0,0,1,.6,0,3.09,3.09,0,0,1,.32.29,2.21,2.21,0,0,1,.71,1.51,6.24,6.24,0,0,0-.92-1.31c-.16-.16-.45-.36-.48-.26a.2.2,0,0,0,0,.24,3,3,0,0,0,.25.36,3.7,3.7,0,0,0,.75.66,1.19,1.19,0,0,0,.4.21s.12,0,.18-.22a4.47,4.47,0,0,0,.23-1.06c0-.17,0-.35,0-.51a1,1,0,0,0,0-.36.71.71,0,0,0-.13.14,3.35,3.35,0,0,0-.2.37,2.1,2.1,0,0,0-.13.76,2.06,2.06,0,0,0,.36,1.06C93.3,254,93.42,254.09,93.4,254.11Z" style="fill:#38486d"/><path d="M107.92,254.78l-.27.07-.78.15-2.87.51c-2.42.41-5.79.93-9.52,1.4s-7.12.79-9.57,1l-2.91.21-.79,0h-.28a1.33,1.33,0,0,1,.28,0L82,258l2.9-.26c2.45-.22,5.83-.57,9.56-1s7.09-1,9.52-1.35l2.88-.46.79-.13Z" style="fill:#38486d"/><path d="M104.1,255.62A2.88,2.88,0,0,1,107,253a4,4,0,0,0-1.86.85A4.14,4.14,0,0,0,104.1,255.62Z" style="fill:#38486d"/><path d="M101.93,254.88a13.8,13.8,0,0,1-2,.22,11.89,11.89,0,0,1-2,.06,14.06,14.06,0,0,1,2-.22A11.78,11.78,0,0,1,101.93,254.88Z" style="fill:#38486d"/><polygon points="95.01 253.16 94.51 251.89 105.48 249.8 106.59 252.28 95.01 253.16" style="fill:#fff"/><path d="M115.32,71.84a10.29,10.29,0,0,1,5-2.72,18.79,18.79,0,0,1,5.89.1,19.69,19.69,0,0,1,5.22,1.18,7.14,7.14,0,0,1,3.89,3.53,16.16,16.16,0,0,1,.79,4.56,5.57,5.57,0,0,0,2,4.07c1.31.89,3.07.72,4.53,1.35,2,.87,3.12,3.18,3.21,5.38a17.87,17.87,0,0,1-1.36,6.44,19,19,0,0,1,7.1,1.48,7,7,0,0,1,4.19,5.57c.14,2.3-1.21,4.39-2.51,6.29a4.6,4.6,0,0,1,5.89,2.12,6.38,6.38,0,0,1-.76,6.56,10.32,10.32,0,0,1-5.8,3.58,28.44,28.44,0,0,1-6.9.64,87.32,87.32,0,0,1-15.84-.93,35.15,35.15,0,0,1-14.66-5.77,12.83,12.83,0,0,1-4.84-5.76c-.86-2.4-.42-5.4,1.57-7a4,4,0,0,0,1.3-1.26c.47-1.06-.49-2.22-1.51-2.77s-2.24-.88-2.88-1.84c-.82-1.22-.33-2.9.55-4.07s2.1-2,3-3.21c1.82-2.48,1.75-5.82,1.77-8.89s-1.08-6.59,1.21-8.64" style="fill:#6a437c"/><path d="M151.9,117.41c-2.45-4.18-5-7.62-6.87-8.88h0s-5.78-5.93-23-5.94a16.21,16.21,0,0,0-10.48,3.72h0c-.22.19.21-.2,0,0L79.88,135l3.83,17.19,26.09-21L111,142.92l-5.29,26.37,38.44.94s0-3.78,0-9.46c8.83-.27,17.57-1.06,20-3C169.59,153.44,155,122.65,151.9,117.41Zm-7.14,29.36c0-3.27-1.77-13.76-1.76-17.1L149.3,146Z" style="fill:#fff"/><path d="M77.15,169.41H56.39s-8.19,1.89-8,10.32,0,67.37,0,67.37H69.76l-1.17-58.73,14.08-.84Z" style="fill:#312a77"/><path d="M74.54,169.41s-10.29,2.66-8.3,14.32,19.14,64.85,19.14,64.85l24.91-1.66L92.81,192.38h34.9A16.46,16.46,0,0,0,144,178.79a37.75,37.75,0,0,0,.31-9.38Z" style="fill:#3e308e"/><path d="M135.85,79.58l-.42,5.64s4.39.6,3.14,4.61-4.26,2.26-4.26,2.26-.75,10.29-11.26,7c-8.44-2.62-7.85-13.64-6.77-22.94A6,6,0,0,1,123.36,71l7,1.37A6.81,6.81,0,0,1,135.85,79.58Z" style="fill:#f9b9b4"/><path d="M135.43,89.52l-2.84,15.15a6.06,6.06,0,0,1-7.36,4.79h0a6.09,6.09,0,0,1-4.56-7l1.54-8.68Z" style="fill:#f9b9b4"/><path d="M123.75,89.69s-.11.12-.35.18a.93.93,0,0,1-.9-.37,2.33,2.33,0,0,1-.19-1.56c.07-.66.13-1.35.2-2.08.13-1.49.23-2.83.28-3.81a7,7,0,0,0,0-1.58,6.71,6.71,0,0,0-.27,1.56c-.13,1-.26,2.31-.4,3.79-.06.73-.11,1.43-.17,2.09a2.53,2.53,0,0,0,.32,1.75,1.06,1.06,0,0,0,1.16.35C123.73,89.89,123.76,89.69,123.75,89.69Z" style="fill:#251a51"/><path d="M120,97.73a3.63,3.63,0,0,0,1.27.94,8.07,8.07,0,0,0,3.69,1,8.22,8.22,0,0,0,3.74-.82,4,4,0,0,0,1.31-.89s-.54.28-1.42.64a8.85,8.85,0,0,1-7.2-.15C120.47,98,120,97.68,120,97.73Z" style="fill:#251a51"/><path d="M122.44,91.82s.12.34.58.64a2.46,2.46,0,0,0,2.07.27,2.5,2.5,0,0,0,1.53-1.43c.2-.52.14-.86.1-.86s-.11.31-.34.74a2.4,2.4,0,0,1-3.23,1C122.71,92,122.49,91.77,122.44,91.82Z" style="fill:#251a51"/><path d="M126.2,90.24c0,.11.41.19.78.49s.58.66.68.64,0-.56-.45-.94S126.19,90.13,126.2,90.24Z" style="fill:#251a51"/><path d="M135.76,90.33s.25.14.68,0a.94.94,0,0,0,.57-.56.91.91,0,0,0,0-.52.65.65,0,0,0-.41-.43.62.62,0,0,0-.77.23l.32.17a4.06,4.06,0,0,0,.47-1.51c-.08,0-.41.54-.8,1.36l.32.17a.27.27,0,0,1,.33-.06.37.37,0,0,1,.18.48.72.72,0,0,1-.35.43C136,90.25,135.75,90.27,135.76,90.33Z" style="fill:#251a51"/><path d="M118.81,83.07c.1,0,.27-.33.37-.79s.1-.85,0-.87-.27.33-.37.79S118.71,83.05,118.81,83.07Z" style="fill:#251a51"/><path d="M127.12,83.9c.1,0,.29-.32.41-.78s.15-.85,0-.88-.29.32-.41.78S127,83.87,127.12,83.9Z" style="fill:#251a51"/><ellipse cx="65.98" cy="105.33" rx="12.24" ry="12.27" style="fill:#f5f7fc"/><polygon points="76.78 118.53 71.06 115.72 75.81 112.26 76.78 118.53" style="fill:#f5f7fc"/><polygon points="55.55 134.47 62.92 169.28 128.76 169.28 128.76 167.51 103.56 167.76 96.06 134.47 55.55 134.47" style="fill:url(#d)"/><polygon points="53.99 134.47 61.37 169.28 128.76 169.28 128.76 167.51 102.01 167.76 95.3 134.47 53.99 134.47" style="fill:url(#e)"/><path d="M81.93,151.18a4,4,0,1,1-4-4A4,4,0,0,1,81.93,151.18Z" style="fill:#f5f7fc;opacity:0.24"/><ellipse cx="77.91" cy="151.2" rx="2.48" ry="2.48" style="fill:#f5f7fc;opacity:0.71"/><path d="M124.7,153.85H111.86s-7.85,7-6.49,7.35,6.15-4.4,6.15-4.4l-3.65,8.14s5.61-.76,7.43-2.3,3.53-2.72,3.53-2.72l7.3.68Z" style="fill:#fcb1ad"/><g style="opacity:0.45"><path d="M150.05,145.75a4.67,4.67,0,0,1-1,.28l-2.87.62c-2.42.54-5.76,1.32-9.41,2.32l-9.33,2.61-2.84.76a4.92,4.92,0,0,1-1.06.22,5.13,5.13,0,0,1,1-.37c.73-.24,1.67-.53,2.8-.88,2.37-.73,5.65-1.74,9.31-2.73s7-1.75,9.45-2.21c1.22-.23,2.21-.4,2.9-.5A7,7,0,0,1,150.05,145.75Z" style="fill:#251a51"/></g><g style="opacity:0.45"><path d="M142.69,129a11.3,11.3,0,0,1,1.18,2.38c.64,1.51,1.44,3.63,2.28,6s1.58,4.36,2.17,6,1,2.46.92,2.48a11,11,0,0,1-1.18-2.38c-.64-1.51-1.44-3.63-2.29-6s-1.57-4.37-2.17-6S142.64,129,142.69,129Z" style="fill:#251a51"/></g><g style="opacity:0.45"><path d="M132.53,103.35a2.15,2.15,0,0,1,0,.81,6.25,6.25,0,0,1-.61,2.11,6.46,6.46,0,0,1-2.15,2.47,6.22,6.22,0,0,1-3.86,1,6.31,6.31,0,0,1-3.73-1.45,6.5,6.5,0,0,1-1.87-2.69,6,6,0,0,1-.37-2.16,2.2,2.2,0,0,1,.1-.8,8.51,8.51,0,0,0,.54,2.86,6.41,6.41,0,0,0,1.84,2.5,6,6,0,0,0,3.51,1.34,6.09,6.09,0,0,0,3.64-.95,6.47,6.47,0,0,0,2.09-2.29A8.37,8.37,0,0,0,132.53,103.35Z" style="fill:#251a51"/></g><g style="opacity:0.45"><path d="M127.29,161.69a29.19,29.19,0,0,1-1.61-4.59,29.18,29.18,0,0,1-1.22-4.71,28.72,28.72,0,0,1,1.61,4.59A28.9,28.9,0,0,1,127.29,161.69Z" style="fill:#251a51"/></g><g style="opacity:0.45"><path d="M151.65,160.3c0,.11-5.37.69-12,1.31s-12.05,1-12.06.9,5.37-.7,12-1.31S151.64,160.18,151.65,160.3Z" style="fill:#251a51"/></g><g style="opacity:0.51"><path d="M119.71,133.69c-.43-1.11-.55-2.3.69-2.85.92-.42,1.69.08,2.63.23a3.42,3.42,0,0,0,2.94-.87c1.5-1.44,1.34-4.57-.89-5.17-.56-.16-1.16.51-.8,1s1.14,1.3.94,2.15c-.29,1.28-1.69,1.22-2.66,1a4.12,4.12,0,0,0-3.14.15,3,3,0,0,0-.62,4.86c.37.29,1.13,0,.91-.53Z" style="fill:#e3707f"/></g><g style="opacity:0.51"><path d="M139,156.56c-.67,1-1.58,1.77-2.74,1.05-.86-.52-.89-1.44-1.3-2.3a3.44,3.44,0,0,0-2.38-1.93c-2-.42-4.52,1.49-3.75,3.67a.71.71,0,0,0,1.3.07c.27-.72.42-1.67,1.23-2,1.22-.48,2,.71,2.34,1.64a4.09,4.09,0,0,0,1.91,2.5,3,3,0,0,0,4.34-2.25c0-.47-.61-.95-1-.45Z" style="fill:#8aa9fc"/></g><g style="opacity:0.51"><path d="M151.55,128.42c-.67,1-1.58,1.77-2.74,1.05-.86-.53-.89-1.44-1.3-2.3a3.44,3.44,0,0,0-2.38-1.93c-2-.42-4.51,1.49-3.74,3.67a.71.71,0,0,0,1.3.07c.27-.72.42-1.67,1.23-2,1.22-.48,2,.71,2.33,1.64a4.09,4.09,0,0,0,1.91,2.5,3,3,0,0,0,4.34-2.25c0-.47-.6-1-.95-.45Z" style="fill:#e3707f"/></g><g style="opacity:0.51"><path d="M114.56,132.15c1,.56,1.92,1.38,1.34,2.61-.43.92-1.33,1.05-2.14,1.56a3.43,3.43,0,0,0-1.65,2.58c-.2,2.08,2,4.33,4,3.33a.72.72,0,0,0-.07-1.31c-.74-.19-1.71-.23-2.12-1-.61-1.16.49-2,1.37-2.51a4.08,4.08,0,0,0,2.26-2.17c.68-1.9-.57-4.19-2.7-4.08-.47,0-.88.7-.34,1Z" style="fill:#89cfc6"/></g><g style="opacity:0.51"><path d="M100.16,123.79c1.06.56,1.93,1.38,1.35,2.61-.43.92-1.33,1-2.14,1.55a3.44,3.44,0,0,0-1.65,2.59c-.2,2.08,2,4.33,4,3.32a.71.71,0,0,0-.08-1.3c-.74-.19-1.7-.23-2.11-1-.62-1.16.49-2,1.36-2.5a4.08,4.08,0,0,0,2.27-2.18,3,3,0,0,0-2.71-4.08c-.47,0-.87.71-.34,1Z" style="fill:#edc483"/></g><g style="opacity:0.51"><path d="M131.91,145.32c-1,.69-2.1,1.1-2.94,0-.62-.8-.33-1.66-.42-2.61A3.42,3.42,0,0,0,127,140.1c-1.76-1.11-4.75-.18-4.78,2.13a.71.71,0,0,0,1.19.52c.5-.58,1-1.42,1.85-1.44,1.31,0,1.59,1.35,1.62,2.35a4.1,4.1,0,0,0,.92,3,3,3,0,0,0,4.85-.59c.19-.43-.23-1.1-.73-.75Z" style="fill:#8aa9fc"/></g><g style="opacity:0.51"><path d="M134.83,129.33a6.49,6.49,0,0,0,2-1.51l2.18-1.94c.6-.54-.29-1.42-.89-.89l-2.05,1.85a6.59,6.59,0,0,0-1.76,1.85c-.14.32.1.77.49.64Z" style="fill:#e8947e"/></g><g style="opacity:0.51"><path d="M132.27,111.76a6.34,6.34,0,0,0,2-1.51l2.18-1.93c.6-.54-.29-1.43-.89-.89s-1.37,1.23-2.05,1.85a6.59,6.59,0,0,0-1.76,1.85c-.14.32.1.76.49.63Z" style="fill:#e8947e"/></g><g style="opacity:0.51"><path d="M117.87,166.6a6.34,6.34,0,0,0,2-1.51l2.17-1.93c.61-.54-.28-1.43-.88-.89l-2,1.84a6.76,6.76,0,0,0-1.76,1.86c-.14.31.1.76.49.63Z" style="fill:#e8947e"/></g><g style="opacity:0.51"><path d="M93.26,127.67a6.34,6.34,0,0,0,2-1.51l2.17-1.93c.61-.54-.28-1.43-.88-.89l-2,1.84A6.59,6.59,0,0,0,92.77,127c-.14.32.1.77.49.64Z" style="fill:#e8947e"/></g><g style="opacity:0.51"><path d="M144.85,155.92a6.34,6.34,0,0,0,2.1,1.42l2.54,1.41c.71.39,1.25-.75.54-1.14l-2.41-1.31a6.43,6.43,0,0,0-2.33-1.05c-.35,0-.69.35-.44.67Z" style="fill:#e8947e"/></g><g style="opacity:0.51"><path d="M131,123.72a.94.94,0,0,0,0-1.87.94.94,0,1,0,0,1.87Z" style="fill:#251a51"/></g><g style="opacity:0.51"><path d="M110.35,126.37a.94.94,0,1,0-.94-.94,1,1,0,0,0,.94.94Z" style="fill:#251a51"/></g><g style="opacity:0.51"><path d="M146.39,115.86a.94.94,0,1,0-.93-.94,1,1,0,0,0,.93.94Z" style="fill:#251a51"/></g><g style="opacity:0.51"><path d="M150.05,151.48a.94.94,0,1,0-.93-.94,1,1,0,0,0,.93.94Z" style="fill:#251a51"/></g><g style="opacity:0.51"><path d="M123.36,135.47a.94.94,0,1,0-.93-.94,1,1,0,0,0,.93.94Z" style="fill:#251a51"/></g><g style="opacity:0.51"><path d="M148.19,136.81a.94.94,0,1,0-.94-.93.95.95,0,0,0,.94.93Z" style="fill:#251a51"/></g><g style="opacity:0.51"><path d="M136.26,114.55a2.78,2.78,0,0,0-2.37,3.78,3.18,3.18,0,0,0,4.5,1.56,3.22,3.22,0,0,0,.92-4.47c-1-1.37-3.43-1.86-4.54-.41-.35.46.23,1.14.74,1,.89-.3,1.72-.69,2.55,0a1.77,1.77,0,0,1-.2,2.62,1.86,1.86,0,0,1-2.65-.62,2.44,2.44,0,0,1,1.16-3.06.22.22,0,0,0-.11-.42Z" style="fill:#8aa9fc"/></g><g style="opacity:0.51"><path d="M154.14,135.52a2.78,2.78,0,0,0-2.36,3.78,3.18,3.18,0,0,0,4.5,1.56,3.24,3.24,0,0,0,.91-4.48c-1-1.36-3.43-1.85-4.54-.4-.34.46.23,1.13.74,1,.89-.3,1.73-.68,2.56.06a1.78,1.78,0,0,1-.2,2.62,1.87,1.87,0,0,1-2.66-.62,2.46,2.46,0,0,1,1.17-3.06.22.22,0,0,0-.12-.42Z" style="fill:#edc483"/></g><g style="opacity:0.51"><path d="M106.3,115.86a2.79,2.79,0,0,0-2.37,3.78,3.19,3.19,0,0,0,4.51,1.57,3.24,3.24,0,0,0,.91-4.48c-1-1.36-3.43-1.85-4.54-.4-.34.45.23,1.13.74,1,.89-.3,1.73-.68,2.56,0a1.79,1.79,0,0,1-.2,2.63,1.87,1.87,0,0,1-2.66-.62,2.47,2.47,0,0,1,1.17-3.07.22.22,0,0,0-.12-.42Z" style="fill:#e3707f"/></g><g style="opacity:0.51"><path d="M118.28,145a2.77,2.77,0,0,0-2.37,3.77,3.18,3.18,0,0,0,4.5,1.57,3.23,3.23,0,0,0,.92-4.48c-1-1.36-3.44-1.85-4.54-.4-.35.46.23,1.13.74,1,.89-.3,1.72-.68,2.55.05a1.78,1.78,0,0,1-.2,2.63,1.88,1.88,0,0,1-2.66-.62,2.47,2.47,0,0,1,1.17-3.07.21.21,0,0,0-.11-.41Z" style="fill:#edc483"/></g><g style="opacity:0.51"><path d="M126.32,120.31a16.49,16.49,0,0,0,1.65-4.54c.1-.71-.89-1.32-1.28-.54a17,17,0,0,0-1.27,4.7c-.08.51.64.93.9.38Z" style="fill:#6e3281"/></g><g style="opacity:0.51"><path d="M132.69,137.27a16.65,16.65,0,0,0-.31-4.83c-.19-.69-1.34-.84-1.39,0a16.76,16.76,0,0,0,.73,4.82c.13.5.95.6,1,0Z" style="fill:#6e3281"/></g><g style="opacity:0.51"><path d="M137,131.87a16.72,16.72,0,0,0,2.95,3.83c.55.47,1.59,0,1.14-.79a16.51,16.51,0,0,0-3.28-3.6c-.38-.33-1.13,0-.81.56Z" style="fill:#89cfc6"/></g><g style="opacity:0.51"><path d="M147.06,120.85a16.67,16.67,0,0,0,2.95,3.82c.54.47,1.58,0,1.14-.79a16.5,16.5,0,0,0-3.29-3.59c-.38-.34-1.12,0-.8.56Z" style="fill:#89cfc6"/></g><g style="opacity:0.51"><path d="M135.89,163.91a16.51,16.51,0,0,0,3,3.83c.55.47,1.59-.05,1.14-.79a16.46,16.46,0,0,0-3.28-3.59c-.39-.34-1.13,0-.81.55Z" style="fill:#89cfc6"/></g><g style="opacity:0.51"><path d="M144.06,149.89a16.9,16.9,0,0,0-4.1,2.56c-.51.49-.11,1.58.67,1.21a16.33,16.33,0,0,0,3.9-2.91c.38-.34.08-1.12-.47-.86Z" style="fill:#6e3281"/></g><g style="opacity:0.51"><path d="M116.79,107.37a16.67,16.67,0,0,0-4.1,2.55c-.52.5-.12,1.59.67,1.22a16.74,16.74,0,0,0,3.9-2.91c.37-.35.07-1.12-.47-.86Z" style="fill:#6e3281"/></g><g style="opacity:0.51"><path d="M113.94,149.29a16.86,16.86,0,0,0-4.1,2.55c-.51.5-.11,1.58.67,1.21a16.55,16.55,0,0,0,3.91-2.9c.37-.35.07-1.13-.48-.86Z" style="fill:#6e3281"/></g><g style="opacity:0.51"><path d="M117.32,115.79c-.69,1.36-1.8,3-1.95,4.57-.18,1.89,1.82,1.32,2.95,1.07s3.61-.35,3.31-2c-.14-.75-.91-1.33-1.4-1.84l-2.14-2.22c-.72-.74-1.88.42-1.14,1.14l1.66,1.62c.3.3,1.61,1.25,1.55,1.74l.21-.51c-.37.46-1.69.55-2.23.69-.37.09-.77.16-1.13.28-.58.2-.29.09-.17-.4a32.93,32.93,0,0,0,.91-3.93c0-.24-.3-.44-.43-.18Z" style="fill:#edc483"/></g><g style="opacity:0.51"><path d="M155.21,150c-.09,1.52-.45,3.48,0,5,.6,1.81,2.2.48,3.13-.21s3.17-1.76,2.22-3.18c-.43-.63-1.36-.85-2-1.12l-2.85-1.18a.8.8,0,0,0-.58,1.5l2.16.82c.4.15,2,.5,2.12,1V152c-.15.58-1.33,1.2-1.77,1.54s-.64.45-.92.71c-.45.42-.23.2-.31-.3a32.92,32.92,0,0,0-.75-4c-.06-.23-.45-.29-.46,0Z" style="fill:#e3707f"/></g><g style="opacity:0.51"><path d="M137.38,140c-.09,1.53-.45,3.49,0,5,.6,1.81,2.2.48,3.13-.21s3.17-1.77,2.22-3.18c-.43-.64-1.36-.86-2-1.13l-2.85-1.17a.8.8,0,0,0-.58,1.5l2.16.82c.4.15,2,.5,2.12,1,0-.19,0-.37,0-.56-.15.58-1.33,1.19-1.77,1.54s-.64.45-.92.71c-.45.41-.23.19-.31-.31a35.22,35.22,0,0,0-.74-4c-.07-.24-.46-.29-.47,0Z" style="fill:#e3707f"/></g><path d="M59.83,100.9s.33,0,1,0l2.87.11c2.46.09,6,.24,10.15.45H74v.18c.06,2.35.14,4.92.22,7.61v.2h-.73l-13.29.44h-.17v-.17c-.08-2.68-.15-4.9-.19-6.5,0-.73,0-1.31,0-1.77a5.14,5.14,0,0,1,0-.59s0,.24.06.66l.12,1.8c.09,1.58.21,3.76.36,6.39l-.17-.15,13.3-.52.53,0-.2.21c-.07-2.69-.13-5.26-.19-7.61l.18.18c-4.07-.23-7.53-.46-10-.63L60.9,101l-.79-.06Z" style="fill:#343b5b"/><path d="M73.83,101.86a12.83,12.83,0,0,1-1.94,1.3c-1.22.75-2.94,1.78-4.86,2.91l-.11.06-.1-.07-.29-.2c-1.88-1.32-3.57-2.54-4.79-3.44a13.68,13.68,0,0,1-1.91-1.52,15.8,15.8,0,0,1,2.08,1.29c1.25.84,3,2,4.86,3.34l.28.2h-.22c1.92-1.12,3.66-2.11,4.92-2.81A14.58,14.58,0,0,1,73.83,101.86Z" style="fill:#343b5b"/><path d="M65.12,104.62a15.55,15.55,0,0,1-2.31,2.71,15.4,15.4,0,0,1-2.6,2.43,15.55,15.55,0,0,1,2.31-2.71A15.84,15.84,0,0,1,65.12,104.62Z" style="fill:#343b5b"/><path d="M74,109.26a13.2,13.2,0,0,1-2.16-2.47,14,14,0,0,1-1.83-2.72,13.2,13.2,0,0,1,2.16,2.47A14.9,14.9,0,0,1,74,109.26Z" style="fill:#343b5b"/><path d="M115.67,76.84l6.77.7.41-2.27.49,2.68H130l.48-2.28.54,3.45,2.71.42s-.76,5.7,1.74,5.68c0,0,3.34-11.74-2.9-13.62S115.66,68.08,115.67,76.84Z" style="fill:#6a437c"/><path d="M136.14,78.09a4.68,4.68,0,0,1,1.23-3.21,4.62,4.62,0,0,1,3.09-1.47,2.73,2.73,0,0,1,1.93.5,2.46,2.46,0,0,1,.87,1.7,4.2,4.2,0,0,1-3.1,4.2,7.12,7.12,0,0,1-5.43-.92" style="fill:#6a437c"/><path d="M143.92,81.07a2.66,2.66,0,0,1-1.2,1.09,4.53,4.53,0,0,1-6.59-2.51A2.68,2.68,0,0,1,136,78a13.31,13.31,0,0,0,.44,1.52,4.5,4.5,0,0,0,6.19,2.36C143.46,81.49,143.87,81,143.92,81.07Z" style="fill:#6a437c"/><path d="M113.15,79.61s-.12-.16-.24-.49a6.21,6.21,0,0,1-.34-1.45,7.41,7.41,0,0,1,1.08-4.75,7.29,7.29,0,0,1,3.83-3,5.83,5.83,0,0,1,1.45-.31,1.4,1.4,0,0,1,.55,0c0,.08-.77.12-1.9.57a7.37,7.37,0,0,0-4.72,7.43C112.93,78.86,113.22,79.58,113.15,79.61Z" style="fill:#6a437c"/><path d="M152,93.64a.76.76,0,0,1-.33.14,1.71,1.71,0,0,1-1-.06,1,1,0,0,1-.55-.55,1,1,0,0,1,.19-.92,1.59,1.59,0,0,1,.92-.51,2,2,0,0,1,1.17.17A2.77,2.77,0,0,1,153.93,94a3.37,3.37,0,0,1-1,2.82,4.71,4.71,0,0,1-3,1.29,5.54,5.54,0,0,1-3.46-.79,2.78,2.78,0,0,1-1.14-1.47,3.37,3.37,0,0,1,0-1.81A20.54,20.54,0,0,0,146.2,91a6.35,6.35,0,0,0-1.54-5,6.57,6.57,0,0,0-3-1.89c-.84-.24-1.33-.24-1.32-.28a1.35,1.35,0,0,1,.35,0,6.45,6.45,0,0,1,1,.14,6.42,6.42,0,0,1,4.93,7,19.61,19.61,0,0,1-.89,3.14,3,3,0,0,0,0,1.59,2.43,2.43,0,0,0,1,1.25,5.2,5.2,0,0,0,3.2.73,4.28,4.28,0,0,0,2.81-1.16,3,3,0,0,0,.95-2.5,2.49,2.49,0,0,0-1.35-1.87,1.81,1.81,0,0,0-1-.18,1.37,1.37,0,0,0-.8.41.72.72,0,0,0-.17.7.8.8,0,0,0,.43.47,1.71,1.71,0,0,0,.94.13A2.69,2.69,0,0,1,152,93.64Z" style="fill:#6a437c"/><path d="M128.57,80.59c-.06.1-.52-.07-1.09-.22s-1-.24-1-.35.52-.21,1.15,0S128.63,80.5,128.57,80.59Z" style="fill:#251a51"/><path d="M117.69,79.9c0-.1.27-.35.73-.49s.87-.13.89,0-.33.27-.76.4S117.73,80,117.69,79.9Z" style="fill:#251a51"/><g style="opacity:0.14"><path d="M131,87.72a2.11,2.11,0,0,1-4.2,0,2.1,2.1,0,1,1,4.2,0Z" style="fill:#e3707f"/></g><g style="opacity:0.14"><path d="M120.78,88.6a2.11,2.11,0,0,1-4.21,0,2.11,2.11,0,0,1,4.21,0Z" style="fill:#e3707f"/></g><path d="M108.88,241.78a3.89,3.89,0,0,1-1,.08l-2.6.11c-2.2.1-5.23.29-8.56.66s-6.34.86-8.5,1.25l-2.57.47a4.57,4.57,0,0,1-1,.14,4.27,4.27,0,0,1,.92-.29c.59-.16,1.46-.37,2.54-.6,2.16-.46,5.16-1,8.51-1.37s6.4-.52,8.6-.55c1.1,0,2,0,2.61,0A4.63,4.63,0,0,1,108.88,241.78Z" style="fill:#322772"/><path d="M143.15,180.9a5.72,5.72,0,0,1-.47,1,9.23,9.23,0,0,1-2.1,2.51A12.94,12.94,0,0,1,136,186.9a25.86,25.86,0,0,1-6.8,1l-17.86.26-10.54.13-5.58.07-2.85,0a24.14,24.14,0,0,0-2.85.12,2,2,0,0,0-1.16.58,1.8,1.8,0,0,0-.44,1.19,14.83,14.83,0,0,0,.41,2.77q.56,2.78,1.25,5.43c.92,3.53,2,6.9,3,10.1,2.08,6.39,4,12.14,5.54,17s2.83,8.72,3.72,11.45c.42,1.34.76,2.39,1,3.12.1.34.19.61.25.82a1.45,1.45,0,0,1,.07.28,1,1,0,0,1-.11-.27l-.29-.8c-.25-.73-.61-1.77-1.06-3.1-.91-2.72-2.22-6.61-3.84-11.41s-3.51-10.58-5.63-17c-1-3.2-2.08-6.58-3-10.12-.46-1.77-.89-3.59-1.27-5.45a15.4,15.4,0,0,1-.41-2.86,2.16,2.16,0,0,1,.54-1.45,2.46,2.46,0,0,1,1.38-.71,24.18,24.18,0,0,1,2.92-.12l2.85,0,5.58-.06,10.55-.11,17.85-.18a25.56,25.56,0,0,0,6.75-.89,12.71,12.71,0,0,0,4.53-2.34,9.49,9.49,0,0,0,2.14-2.43C143,181.27,143.13,180.89,143.15,180.9Z" style="fill:#322772"/><path d="M69.29,242c0,.11-4.68,0-10.44-.3s-10.43-.6-10.42-.71,4.68,0,10.44.3S69.29,241.87,69.29,242Z" style="fill:#322772"/><path d="M67.9,187.66a2.08,2.08,0,0,1-.05.55c-.06.4-.13.92-.22,1.57-.22,1.36-.5,3.33-.82,5.76-.64,4.88-1.34,11.64-1.68,19.13s-.21,14.29,0,19.21c.1,2.45.21,4.44.3,5.81,0,.66.07,1.18.09,1.58a3.38,3.38,0,0,1,0,.56,2.08,2.08,0,0,1-.09-.55c0-.4-.1-.92-.16-1.58-.14-1.37-.3-3.35-.44-5.81a192.06,192.06,0,0,1-.12-19.24c.33-7.5,1.08-14.28,1.8-19.15.35-2.43.68-4.4.94-5.75q.18-1,.3-1.56A2.72,2.72,0,0,1,67.9,187.66Z" style="fill:#322772"/><g style="opacity:0.46"><path d="M85.36,188.88a11.41,11.41,0,0,1,4,1.43,11.4,11.4,0,0,1,3.43,2.45c-.08.1-1.58-1-3.61-2.09S85.32,189,85.36,188.88Z" style="fill:#322772"/></g><g style="opacity:0.46"><path d="M86.21,182.27a47.76,47.76,0,0,1,3.4,5.18,45.88,45.88,0,0,1,3.06,5.39,47.76,47.76,0,0,1-3.4-5.18A45.88,45.88,0,0,1,86.21,182.27Z" style="fill:#322772"/></g><g style="opacity:0.46"><path d="M138.31,180.12a7.9,7.9,0,0,1-1.57-1.34,32.68,32.68,0,0,1-3.25-3.75,3.89,3.89,0,0,1-.93-2.64,2.73,2.73,0,0,1,1.31-1.88,6.63,6.63,0,0,1,1.37-.65,1.64,1.64,0,0,1,.54-.13c0,.07-.73.32-1.75,1a2.5,2.5,0,0,0-1.1,1.69,3.62,3.62,0,0,0,.89,2.36,48,48,0,0,0,3.13,3.78A13.2,13.2,0,0,1,138.31,180.12Z" style="fill:#322772"/></g><g style="opacity:0.46"><path d="M135.79,180.84A35.88,35.88,0,0,1,131,175a17.88,17.88,0,0,1,2.57,2.81A18.43,18.43,0,0,1,135.79,180.84Z" style="fill:#322772"/></g><polygon points="107.98 192.9 107.98 196.46 149.21 194.68 147.63 190.89 107.98 192.9" style="fill:#edc483"/><path d="M118.89,196c-.32,1-7.53,58.64-7.53,58.64l1.17.14,10.43-59-4.1.14" style="fill:#edc483"/><polygon points="126.22 195.67 134.76 254.18 135.88 254.04 129.65 195.52 126.22 195.67" style="fill:#edc483"/><polygon points="134.03 194.98 155.73 250.98 157.33 250.63 136.96 194.37 134.03 194.98" style="fill:#edc483"/><path d="M117.16,222.67c.31,0,28.46-.06,28.46-.06L144.44,220l-26.67,1.32Z" style="fill:#edc483"/><path d="M47.5,6v5.63A11.37,11.37,0,0,0,58.85,23h79.57a11.37,11.37,0,0,0,11.35-11.38V3.55Z" style="fill:url(#f)"/><g style="opacity:0.46"><path d="M155.27,17.26a.46.46,0,0,1,.46.46.47.47,0,0,1-.46.46.46.46,0,0,1-.46-.46A.45.45,0,0,1,155.27,17.26Z" style="fill:#fff"/><path d="M156.36,16.61l0,0,0,0h0a1.5,1.5,0,0,0-2.07.05l-.07.06-.09.1a.28.28,0,0,0,0,.4.28.28,0,0,0,.41,0l.16-.15A.91.91,0,0,1,156,17l.11.11a.28.28,0,0,0,.4,0,.29.29,0,0,0,.09-.21.32.32,0,0,0-.08-.2Z" style="fill:#fff"/><path d="M157.15,16l-.1-.1h0l-.07-.07,0,0a2.49,2.49,0,0,0-3.38.08h0l-.17.17a.27.27,0,0,0,0,.38.27.27,0,0,0,.37,0l.17-.18h0a2,2,0,0,1,2.73,0l.14.13a.26.26,0,1,0,.37-.37Z" style="fill:#fff"/></g><g style="opacity:0.48"><path d="M25.91,18.53a.11.11,0,0,1-.09,0,.1.1,0,0,1,0-.09V15.87l0,0-.57.34-.06,0a.14.14,0,0,1-.1-.05.18.18,0,0,1,0-.09.12.12,0,0,1,.07-.1l.71-.43a.12.12,0,0,1,.1,0,.12.12,0,0,1,.11.13V18.4a.1.1,0,0,1,0,.09A.13.13,0,0,1,25.91,18.53Z" style="fill:#fff"/><path d="M27.69,18.57a.83.83,0,0,1-.56-.2,1.23,1.23,0,0,1-.34-.55,2.3,2.3,0,0,1-.12-.77,2.35,2.35,0,0,1,.12-.77,1.14,1.14,0,0,1,.34-.54.79.79,0,0,1,.56-.2.8.8,0,0,1,.57.2,1.22,1.22,0,0,1,.34.54,2.65,2.65,0,0,1,.11.77,2.6,2.6,0,0,1-.11.77,1.32,1.32,0,0,1-.34.55A.84.84,0,0,1,27.69,18.57Zm0-.26a.54.54,0,0,0,.41-.16,1,1,0,0,0,.26-.44,2.76,2.76,0,0,0,0-1.32A1,1,0,0,0,28.1,16a.58.58,0,0,0-.41-.16.6.6,0,0,0-.41.16,1,1,0,0,0-.25.44,2.46,2.46,0,0,0,0,1.32,1,1,0,0,0,.25.44A.56.56,0,0,0,27.69,18.31Z" style="fill:#fff"/><path d="M29.32,16.77a.14.14,0,0,1-.11,0,.21.21,0,0,1,0-.12v-.09a.21.21,0,0,1,0-.12.14.14,0,0,1,.11,0h0a.14.14,0,0,1,.11,0,.16.16,0,0,1,0,.12v.09a.16.16,0,0,1,0,.12.14.14,0,0,1-.11,0Zm0,1.76a.18.18,0,0,1-.11,0,.21.21,0,0,1,0-.12v-.09a.21.21,0,0,1,0-.12.14.14,0,0,1,.11,0h0a.14.14,0,0,1,.11,0,.16.16,0,0,1,0,.12v.09a.16.16,0,0,1,0,.12.18.18,0,0,1-.11,0Z" style="fill:#fff"/><path d="M30.09,18.1h.05l.06,0a.48.48,0,0,0,.2.14.66.66,0,0,0,.28,0,.79.79,0,0,0,.38-.09.75.75,0,0,0,.27-.26.7.7,0,0,0,.1-.38.63.63,0,0,0-.11-.4.64.64,0,0,0-.27-.22.8.8,0,0,0-.34-.07h-.09l-.08,0h-.06a.1.1,0,0,1-.08,0,.1.1,0,0,1,0-.09.43.43,0,0,1,0,0l0-.05.86-1,0,.07H30a.12.12,0,0,1-.09,0,.11.11,0,0,1,0-.08.14.14,0,0,1,0-.09l.09,0h1.41a.12.12,0,0,1,.11,0,.29.29,0,0,1,0,.09.09.09,0,0,1,0,0,.05.05,0,0,1,0,0l-.85,1-.09-.06.08,0,.12,0a1,1,0,0,1,.43.11.85.85,0,0,1,.33.32.87.87,0,0,1,.13.5,1,1,0,0,1-.14.52,1,1,0,0,1-.37.34,1.14,1.14,0,0,1-.52.12,1,1,0,0,1-.64-.23l0-.05a.14.14,0,0,1,0-.06.18.18,0,0,1,0-.09A.1.1,0,0,1,30.09,18.1Z" style="fill:#fff"/><path d="M33.16,18.57a.83.83,0,0,1-.56-.2,1.32,1.32,0,0,1-.34-.55,2.31,2.31,0,0,1-.11-.77,2.35,2.35,0,0,1,.11-.77,1.22,1.22,0,0,1,.34-.54.79.79,0,0,1,.56-.2.8.8,0,0,1,.57.2,1.14,1.14,0,0,1,.34.54,2.35,2.35,0,0,1,.12.77,2.3,2.3,0,0,1-.12.77,1.23,1.23,0,0,1-.34.55A.84.84,0,0,1,33.16,18.57Zm0-.26a.57.57,0,0,0,.42-.16,1,1,0,0,0,.25-.44,2.46,2.46,0,0,0,0-1.32,1,1,0,0,0-.25-.44.61.61,0,0,0-.42-.16.6.6,0,0,0-.41.16,1,1,0,0,0-.25.44,2.76,2.76,0,0,0,0,1.32,1,1,0,0,0,.25.44A.56.56,0,0,0,33.16,18.31Z" style="fill:#fff"/><path d="M36.94,15.9l-1,2.55a.15.15,0,0,1,0,.06.1.1,0,0,1-.07,0,.12.12,0,0,1-.09,0,.1.1,0,0,1,0-.08,0,0,0,0,1,0-.05l1.11-2.72a.1.1,0,0,1,.05-.06.11.11,0,0,1,.08,0,.1.1,0,0,1,.07,0l0,.06,1.1,2.71a.09.09,0,0,1,0,.05.1.1,0,0,1,0,.09.11.11,0,0,1-.08,0,.11.11,0,0,1-.08,0s0,0-.05-.06l-1-2.56Zm-.77,1.78.1-.25h1.3l0,.25Z" style="fill:#fff"/><path d="M38.81,15.58h.06l.05,0,1.16,1.75H40l1.16-1.74a.11.11,0,0,1,.11-.05.1.1,0,0,1,.09,0,.13.13,0,0,1,0,.09V18.4a.13.13,0,0,1,0,.09.13.13,0,0,1-.1,0,.11.11,0,0,1-.09,0,.1.1,0,0,1,0-.09V16h.08l-1.07,1.62s0,0,0,0H40s0,0,0,0L38.85,16l.08,0v2.5a.13.13,0,0,1-.22.09.12.12,0,0,1,0-.09V15.71a.12.12,0,0,1,0-.09A.13.13,0,0,1,38.81,15.58Z" style="fill:#fff"/></g><g style="opacity:0.48"><path d="M161,16.75v0a1,1,0,0,1,.25.15,1.08,1.08,0,0,1,.18.24.8.8,0,0,1,.06.3.77.77,0,0,1-.11.4.93.93,0,0,1-.31.28,1,1,0,0,1-.43.1,1,1,0,0,1-.43-.1.93.93,0,0,1-.31-.28.69.69,0,0,1-.11-.4.64.64,0,0,1,.07-.31.58.58,0,0,1,.18-.23.75.75,0,0,1,.24-.15l0,0a.66.66,0,0,1-.2-.14.71.71,0,0,1-.15-.22.6.6,0,0,1-.06-.27.71.71,0,0,1,.1-.39.83.83,0,0,1,.29-.27.77.77,0,0,1,.4-.1.79.79,0,0,1,.4.1.8.8,0,0,1,.28.27.71.71,0,0,1,.1.39.67.67,0,0,1-.06.28.8.8,0,0,1-.15.21A.9.9,0,0,1,161,16.75Zm-.37,1.2a.65.65,0,0,0,.44-.15.54.54,0,0,0,.17-.4.54.54,0,0,0-.08-.28.56.56,0,0,0-.23-.2.6.6,0,0,0-.3-.07.67.67,0,0,0-.31.07.6.6,0,0,0-.22.2.54.54,0,0,0-.08.28.51.51,0,0,0,.17.4A.63.63,0,0,0,160.61,18Zm-.55-1.83a.54.54,0,0,0,.08.28.58.58,0,0,0,.47.25.48.48,0,0,0,.26-.07.44.44,0,0,0,.2-.18.54.54,0,0,0,.08-.28.53.53,0,0,0-.15-.39.56.56,0,0,0-.39-.14.59.59,0,0,0-.4.14A.53.53,0,0,0,160.06,16.12Z" style="fill:#fff"/><path d="M162.63,18.16a1,1,0,0,1-.33-.06.87.87,0,0,1-.3-.16l0,0a.14.14,0,0,1,0-.06.13.13,0,0,1,0-.08.15.15,0,0,1,.09,0,.18.18,0,0,1,.09,0,.78.78,0,0,0,.22.12.7.7,0,0,0,.25.05.87.87,0,0,0,.4-.09.68.68,0,0,0,.27-.26.7.7,0,0,0,.1-.38.69.69,0,0,0-.09-.36.56.56,0,0,0-.25-.23.74.74,0,0,0-.38-.09.75.75,0,0,0-.26.05l-.21.09a.24.24,0,0,1-.11,0l-.09,0,0-.06a.19.19,0,0,1,0-.08l.17-1.08a.16.16,0,0,1,0-.07.14.14,0,0,1,.09,0h1.2a.13.13,0,0,1,.08,0,.14.14,0,0,1,0,.09.11.11,0,0,1,0,.08.13.13,0,0,1-.08,0h-1.15l0,0-.16,1-.07-.05a.37.37,0,0,1,.14-.08l.22-.07a1.09,1.09,0,0,1,.26,0,.87.87,0,0,1,.78.42.91.91,0,0,1,.12.47,1.23,1.23,0,0,1-.07.39,1,1,0,0,1-.21.31,1.16,1.16,0,0,1-.32.2A1.35,1.35,0,0,1,162.63,18.16Z" style="fill:#fff"/><path d="M164.64,16.78a.44.44,0,0,1-.3-.1.55.55,0,0,1-.18-.26,1,1,0,0,1-.06-.36,1.15,1.15,0,0,1,.06-.37.55.55,0,0,1,.18-.26.46.46,0,0,1,.31-.1.47.47,0,0,1,.3.1.55.55,0,0,1,.18.26,1.15,1.15,0,0,1,.06.37,1.13,1.13,0,0,1-.06.36.65.65,0,0,1-.19.26A.44.44,0,0,1,164.64,16.78Zm0-.2a.25.25,0,0,0,.24-.15.82.82,0,0,0,.07-.37.74.74,0,0,0-.08-.38.25.25,0,0,0-.24-.15.25.25,0,0,0-.24.16.9.9,0,0,0,0,.74A.27.27,0,0,0,164.65,16.58Zm-.06,1.58a.09.09,0,0,1-.07,0,.08.08,0,0,1,0-.07.14.14,0,0,1,0-.07l1.7-2.59a.11.11,0,0,1,.09-.05l.08,0a.11.11,0,0,1,0,.08.11.11,0,0,1,0,.07l-1.7,2.59A.09.09,0,0,1,164.59,18.16Zm1.69,0a.44.44,0,0,1-.3-.1.57.57,0,0,1-.19-.26,1,1,0,0,1-.06-.36.94.94,0,0,1,.07-.37.55.55,0,0,1,.18-.26.45.45,0,0,1,.3-.1.44.44,0,0,1,.3.1.51.51,0,0,1,.19.26,1.06,1.06,0,0,1,0,.73.55.55,0,0,1-.18.26A.44.44,0,0,1,166.28,18.18Zm0-.2a.26.26,0,0,0,.25-.15.82.82,0,0,0,.07-.37.74.74,0,0,0-.08-.38.27.27,0,0,0-.49,0,1,1,0,0,0,0,.74A.27.27,0,0,0,166.28,18Z" style="fill:#fff"/><path d="M170.84,18.53a.35.35,0,0,1-.36-.33V15.59a.35.35,0,0,1,.36-.33h6a.35.35,0,0,1,.36.33v.54h.47v1.53h-.46v.53a.35.35,0,0,1-.36.33Zm6.13-3h-6.25v2.8H177Zm-6,.27h4.54V18H171Z" style="fill:#f8f8f6"/></g></g></svg>