<svg xmlns="http://www.w3.org/2000/svg" xmlns:xlink="http://www.w3.org/1999/xlink" viewBox="0 0 202.47 409.49"><defs><linearGradient id="a" x1="12.8" y1="-14.76" x2="220.64" y2="501.13" gradientUnits="userSpaceOnUse"><stop offset="0.08" stop-color="#fff"/><stop offset="1" stop-color="#dbe1e2"/></linearGradient><clipPath id="b"><path d="M31.45,7.56H169.93A20.36,20.36,0,0,1,190.27,28v228H11.11V28A20.36,20.36,0,0,1,31.45,7.56Z" style="fill:none"/></clipPath><linearGradient id="c" x1="159.16" y1="81.64" x2="72.87" y2="161.25" gradientUnits="userSpaceOnUse"><stop offset="0.05" stop-color="#9668f7"/><stop offset="1" stop-color="#78d8fb"/></linearGradient><linearGradient id="d" x1="171.1" y1="94.51" x2="84.62" y2="174.3" xlink:href="#c"/><linearGradient id="e" x1="178" y1="100.71" x2="90.64" y2="181.3" xlink:href="#c"/><linearGradient id="f" x1="189.02" y1="114.04" x2="102.73" y2="193.65" xlink:href="#c"/><linearGradient id="g" x1="194.93" y1="119.59" x2="107.57" y2="200.18" xlink:href="#c"/><linearGradient id="h" x1="71.44" y1="158.03" x2="92.66" y2="214.2" gradientUnits="userSpaceOnUse"><stop offset="0" stop-color="#e58f7e"/><stop offset="0.14" stop-color="#e4857e"/><stop offset="0.7" stop-color="#e0637f"/><stop offset="1" stop-color="#de567f"/></linearGradient><linearGradient id="i" x1="76.54" y1="-45.33" x2="286.17" y2="475.02" xlink:href="#a"/><linearGradient id="j" x1="44.67" y1="349.55" x2="176.41" y2="369.17" gradientUnits="userSpaceOnUse"><stop offset="0" stop-color="#d7a584"/><stop offset="1" stop-color="#e0557f"/></linearGradient></defs><title>screen-1</title><g style="isolation:isolate"><rect width="202.47" height="409.49" rx="33.11" style="fill:url(#a)"/><rect x="11.37" y="9.9" width="179.26" height="389.53" rx="26.11" style="fill:#fff"/><path d="M11.33,27.82A20.37,20.37,0,0,1,31.67,7.43H170.26a20.36,20.36,0,0,1,20.33,20.39V255.41H11.33Z" style="fill:#f5f7fc"/><g style="opacity:0.25;mix-blend-mode:multiply"><path d="M115.87,87c-.6-1.77-.77-3.64,1-4.52,1.31-.65,2.39.13,3.71.37a4.47,4.47,0,0,0,4.15-1.37c2.13-2.28,1.89-7.23-1.26-8.18a1.09,1.09,0,0,0-1.12,1.63c.62,1,1.61,2,1.33,3.4-.41,2-2.4,1.93-3.76,1.58-1.55-.4-3-.68-4.43.24-2.47,1.56-3.24,5.6-.87,7.69a.78.78,0,0,0,1.27-.84Z" style="fill:#3d3d3d"/></g><path d="M113.87,85c-.6-1.77-.77-3.64,1-4.52,1.31-.65,2.39.13,3.71.37a4.47,4.47,0,0,0,4.15-1.37c2.13-2.28,1.89-7.23-1.26-8.18a1.09,1.09,0,0,0-1.12,1.63c.62,1,1.61,2,1.33,3.4-.41,2-2.4,1.93-3.76,1.58-1.55-.4-3-.68-4.43.24-2.47,1.56-3.24,5.6-.87,7.69a.78.78,0,0,0,1.27-.84Z" style="fill:#e3707f"/><g style="opacity:0.25;mix-blend-mode:multiply"><path d="M137.88,83c1.36-.44,2.39-1.63,3.44-2.56,1.23-1.09,2.46-2.17,3.68-3.27,1-.91-.49-2.41-1.5-1.5-1.16,1-2.31,2.08-3.46,3.12s-2.4,1.84-3,3.13c-.25.54.16,1.29.82,1.08Z" style="fill:#3d3d3d"/></g><path d="M135.88,81c1.36-.44,2.39-1.63,3.44-2.56,1.23-1.09,2.46-2.17,3.68-3.27,1-.91-.49-2.41-1.5-1.5-1.16,1-2.31,2.08-3.46,3.12s-2.4,1.84-3,3.13c-.25.54.16,1.29.82,1.08Z" style="fill:#e8947e"/><g style="opacity:0.25;mix-blend-mode:multiply"><path d="M160.33,68.07c-3.08.45-5.2,3.27-4,6.39A5.38,5.38,0,0,0,164,77.11a5.46,5.46,0,0,0,1.54-7.57c-1.65-2.31-5.8-3.14-7.67-.68-.59.77.38,1.91,1.24,1.62,1.51-.5,2.93-1.15,4.33.09a3,3,0,0,1-.34,4.44,3.16,3.16,0,0,1-4.5-1.05c-.93-1.66.26-4.48,2-5.18a.37.37,0,0,0-.2-.71Z" style="fill:#3d3d3d"/></g><path d="M158.33,66.07c-3.08.45-5.2,3.27-4,6.39A5.38,5.38,0,0,0,162,75.11a5.46,5.46,0,0,0,1.54-7.57c-1.65-2.31-5.8-3.14-7.67-.68-.59.77.38,1.91,1.24,1.62,1.51-.5,2.93-1.15,4.33.09a3,3,0,0,1-.34,4.44,3.16,3.16,0,0,1-4.5-1.05c-.93-1.66.26-4.48,2-5.18a.37.37,0,0,0-.2-.71Z" style="fill:#8aa9fc"/><g style="opacity:0.25;mix-blend-mode:multiply"><path d="M125.05,59.32a28.35,28.35,0,0,0,2.78-7.69c.17-1.2-1.5-2.23-2.16-.91a28,28,0,0,0-2.14,8c-.14.85,1.07,1.57,1.52.64Z" style="fill:#3d3d3d"/></g><path d="M123.05,57.32a28.35,28.35,0,0,0,2.78-7.69c.17-1.2-1.5-2.23-2.16-.91a28,28,0,0,0-2.14,8c-.14.85,1.07,1.57,1.52.64Z" style="fill:#6e3281"/><g style="opacity:0.25;mix-blend-mode:multiply"><path d="M150.45,63.21a.69.69,0,0,0,0-1.38.69.69,0,0,0,0,1.38Z" style="fill:#3d3d3d"/></g><path d="M148.45,61.21a.69.69,0,0,0,0-1.38.69.69,0,0,0,0,1.38Z" style="fill:#e2adfc"/><g style="opacity:0.25;mix-blend-mode:multiply"><path d="M109.63,52.6c-1.16,2.3-3,5.09-3.29,7.72-.3,3.21,3.08,2.24,5,1.81s6.11-.58,5.6-3.43c-.23-1.26-1.54-2.24-2.37-3.11l-3.62-3.75c-1.22-1.26-3.18.7-1.92,1.92l2.8,2.74c.52.51,2.73,2.12,2.62,3l.36-.87c-.62.79-2.86.94-3.78,1.17-.63.16-1.29.27-1.9.48-1,.34-.5.14-.28-.69a57.37,57.37,0,0,0,1.52-6.63c.06-.41-.5-.76-.73-.31Z" style="fill:#3d3d3d"/></g><path d="M107.63,50.6c-1.16,2.3-3,5.09-3.29,7.72-.3,3.21,3.08,2.24,5,1.81s6.11-.58,5.6-3.43c-.23-1.26-1.54-2.24-2.37-3.11l-3.62-3.75c-1.22-1.26-3.18.7-1.92,1.92l2.8,2.74c.52.51,2.73,2.12,2.62,3l.36-.87c-.62.79-2.86.94-3.78,1.17-.63.16-1.29.27-1.9.48-1,.34-.5.14-.28-.69a57.37,57.37,0,0,0,1.52-6.63c.06-.41-.5-.76-.73-.31Z" style="fill:#edc483"/><g style="opacity:0.1;mix-blend-mode:multiply"><path d="M25.87,91.82,28.8,109a1.36,1.36,0,0,0,1.43,1.13L56,108.81l2.63,4.07,0-4.24,5.12-.33a1.35,1.35,0,0,0,1.41-1.3l.56-15.37a1.36,1.36,0,0,0-1.35-1.41H27.2A1.36,1.36,0,0,0,25.87,91.82Z" style="fill:#7f7f7f"/><rect x="32.05" y="96.96" width="29.72" height="1.38" rx="0.58" style="fill:#7f7f7f"/><rect x="32.37" y="100.17" width="18.41" height="1.38" rx="0.58" style="fill:#7f7f7f"/></g><path d="M21.87,87.82,24.8,105a1.36,1.36,0,0,0,1.43,1.13L52,104.81l2.63,4.07,0-4.24,5.12-.33a1.35,1.35,0,0,0,1.41-1.3l.56-15.37a1.36,1.36,0,0,0-1.35-1.41H23.2A1.36,1.36,0,0,0,21.87,87.82Z" style="fill:#edc483"/><rect x="28.05" y="92.96" width="29.72" height="1.38" rx="0.58" style="fill:#fff"/><rect x="28.37" y="96.17" width="18.41" height="1.38" rx="0.58" style="fill:#fff"/><rect x="67.6" y="383.39" width="62.88" height="2.46" rx="1.03" style="fill:#e0e6e9"/><path d="M26.5,295.45h.35v4.6h2.83v.32H26.5Z" style="fill:#939393"/><path d="M31.26,300.16a1.75,1.75,0,0,1-.65-.67,2,2,0,0,1,0-1.91,1.75,1.75,0,0,1,.65-.67,2,2,0,0,1,1.88,0,1.75,1.75,0,0,1,.65.67,2,2,0,0,1,0,1.91,1.75,1.75,0,0,1-.65.67,2,2,0,0,1-1.88,0Zm1.69-.28a1.38,1.38,0,0,0,.53-.54,1.63,1.63,0,0,0,.19-.8,1.67,1.67,0,0,0-.19-.81,1.38,1.38,0,0,0-.53-.54,1.51,1.51,0,0,0-1.5,0,1.38,1.38,0,0,0-.53.54,1.67,1.67,0,0,0-.19.81,1.63,1.63,0,0,0,.19.8,1.38,1.38,0,0,0,.53.54,1.51,1.51,0,0,0,1.5,0Z" style="fill:#939393"/><path d="M36.33,296.89a1.61,1.61,0,0,1,.87-.22V297h-.08a1.24,1.24,0,0,0-1,.38,1.55,1.55,0,0,0-.34,1.07v1.91h-.35V296.7h.33v.8A1.27,1.27,0,0,1,36.33,296.89Z" style="fill:#939393"/><path d="M41.57,298.62H38.43a1.57,1.57,0,0,0,.21.76,1.37,1.37,0,0,0,.55.52,1.73,1.73,0,0,0,.79.18,1.65,1.65,0,0,0,.66-.13,1.37,1.37,0,0,0,.51-.38l.2.23a1.56,1.56,0,0,1-.6.44,1.85,1.85,0,0,1-.78.16,2,2,0,0,1-1-.24,1.84,1.84,0,0,1-.67-.66,1.9,1.9,0,0,1-.24-1,2,2,0,0,1,.23-1,1.63,1.63,0,0,1,.63-.67,1.79,1.79,0,0,1,1.79,0,1.65,1.65,0,0,1,.62.66,1.88,1.88,0,0,1,.23.95Zm-2.43-1.47a1.35,1.35,0,0,0-.49.49,1.52,1.52,0,0,0-.22.71h2.81a1.64,1.64,0,0,0-.21-.71,1.44,1.44,0,0,0-.5-.48,1.37,1.37,0,0,0-.69-.18A1.48,1.48,0,0,0,39.14,297.15Z" style="fill:#939393"/><path d="M48.64,297.07a1.6,1.6,0,0,1,.39,1.16v2.14h-.35v-2.12a1.34,1.34,0,0,0-.3-.94,1.11,1.11,0,0,0-.84-.32,1.27,1.27,0,0,0-1,.39,1.45,1.45,0,0,0-.36,1v1.95h-.35v-2.12a1.34,1.34,0,0,0-.3-.94,1.11,1.11,0,0,0-.84-.32,1.27,1.27,0,0,0-1,.39,1.45,1.45,0,0,0-.36,1v1.95H43V296.7h.33v.79a1.39,1.39,0,0,1,.55-.6,1.57,1.57,0,0,1,.86-.22,1.51,1.51,0,0,1,.84.23,1.25,1.25,0,0,1,.5.66,1.43,1.43,0,0,1,.57-.65,1.68,1.68,0,0,1,.9-.24A1.44,1.44,0,0,1,48.64,297.07Z" style="fill:#939393"/><path d="M53,295.73a.3.3,0,0,1-.08-.2.32.32,0,0,1,.08-.21.32.32,0,0,1,.2-.08.32.32,0,0,1,.21.08.29.29,0,0,1,0,.4.29.29,0,0,1-.21.09A.32.32,0,0,1,53,295.73Zm0,1h.35v3.67H53Z" style="fill:#939393"/><path d="M57.92,296.91a1.72,1.72,0,0,1,.65.66,2.14,2.14,0,0,1,0,1.93,1.59,1.59,0,0,1-.65.66,1.8,1.8,0,0,1-.92.24,1.72,1.72,0,0,1-.88-.23,1.51,1.51,0,0,1-.61-.64v2.2h-.35v-5h.33v.87a1.58,1.58,0,0,1,.62-.66,1.67,1.67,0,0,1,.89-.24A1.8,1.8,0,0,1,57.92,296.91Zm-.19,3a1.38,1.38,0,0,0,.53-.54,1.63,1.63,0,0,0,.19-.8,1.67,1.67,0,0,0-.19-.81,1.38,1.38,0,0,0-.53-.54A1.39,1.39,0,0,0,57,297a1.36,1.36,0,0,0-.75.2,1.45,1.45,0,0,0-.53.54,1.79,1.79,0,0,0-.19.81,1.75,1.75,0,0,0,.19.8,1.45,1.45,0,0,0,.53.54,1.36,1.36,0,0,0,.75.2A1.39,1.39,0,0,0,57.73,299.88Z" style="fill:#939393"/><path d="M60.32,300.26a1.72,1.72,0,0,1-.62-.33l.16-.28a1.86,1.86,0,0,0,.58.31,2.06,2.06,0,0,0,.74.13,1.49,1.49,0,0,0,.82-.18.6.6,0,0,0,.26-.51.5.5,0,0,0-.14-.37.89.89,0,0,0-.36-.19c-.14,0-.33-.09-.58-.14a5,5,0,0,1-.7-.16,1.19,1.19,0,0,1-.46-.3.82.82,0,0,1-.19-.56.88.88,0,0,1,.36-.72,1.66,1.66,0,0,1,1-.29,2.75,2.75,0,0,1,.7.1,1.94,1.94,0,0,1,.56.26l-.16.28a1.46,1.46,0,0,0-.52-.24,1.9,1.9,0,0,0-.58-.09,1.38,1.38,0,0,0-.78.19.6.6,0,0,0-.26.5.49.49,0,0,0,.15.38.93.93,0,0,0,.36.21c.15,0,.34.09.6.14a4.33,4.33,0,0,1,.69.17,1,1,0,0,1,.45.28.77.77,0,0,1,.18.54.85.85,0,0,1-.38.73,1.73,1.73,0,0,1-1.06.28A2.66,2.66,0,0,1,60.32,300.26Z" style="fill:#939393"/><path d="M67.15,296.7v3.67h-.34v-.79a1.31,1.31,0,0,1-.54.6,1.5,1.5,0,0,1-2.37-1.34V296.7h.35v2.12a1.26,1.26,0,0,0,.32.94,1.2,1.2,0,0,0,.89.32,1.25,1.25,0,0,0,1-.39,1.45,1.45,0,0,0,.37-1V296.7Z" style="fill:#939393"/><path d="M74.61,297.07a1.6,1.6,0,0,1,.39,1.16v2.14h-.35v-2.12a1.34,1.34,0,0,0-.3-.94,1.15,1.15,0,0,0-.85-.32,1.25,1.25,0,0,0-1,.39,1.41,1.41,0,0,0-.37,1v1.95h-.35v-2.12a1.34,1.34,0,0,0-.3-.94,1.11,1.11,0,0,0-.84-.32,1.27,1.27,0,0,0-1,.39,1.45,1.45,0,0,0-.36,1v1.95H69V296.7h.34v.79a1.31,1.31,0,0,1,.54-.6,1.6,1.6,0,0,1,.86-.22,1.51,1.51,0,0,1,.84.23,1.2,1.2,0,0,1,.5.66,1.43,1.43,0,0,1,.57-.65,1.69,1.69,0,0,1,.91-.24A1.46,1.46,0,0,1,74.61,297.07Z" style="fill:#939393"/><path d="M82.2,295.15v5.22h-.35v-.86a1.62,1.62,0,0,1-.61.66,1.76,1.76,0,0,1-.89.23,1.78,1.78,0,0,1-.92-.24,1.72,1.72,0,0,1-.65-.66,2.06,2.06,0,0,1,0-1.93,1.72,1.72,0,0,1,.65-.66,1.78,1.78,0,0,1,.92-.24,1.72,1.72,0,0,1,.88.23,1.76,1.76,0,0,1,.62.65v-2.4Zm-1.07,4.73a1.42,1.42,0,0,0,.52-.54,1.64,1.64,0,0,0,.2-.8,1.68,1.68,0,0,0-.2-.81,1.42,1.42,0,0,0-.52-.54,1.39,1.39,0,0,0-.76-.2,1.36,1.36,0,0,0-.75.2,1.45,1.45,0,0,0-.53.54,1.79,1.79,0,0,0-.19.81,1.75,1.75,0,0,0,.19.8,1.45,1.45,0,0,0,.53.54,1.36,1.36,0,0,0,.75.2A1.39,1.39,0,0,0,81.13,299.88Z" style="fill:#939393"/><path d="M84.52,300.16a1.7,1.7,0,0,1-.66-.67,2.1,2.1,0,0,1,0-1.91,1.7,1.7,0,0,1,.66-.67,1.94,1.94,0,0,1,1.87,0,1.7,1.7,0,0,1,.66.67,2,2,0,0,1,0,1.91,1.7,1.7,0,0,1-.66.67,1.94,1.94,0,0,1-1.87,0Zm1.69-.28a1.35,1.35,0,0,0,.52-.54,1.64,1.64,0,0,0,.2-.8,1.68,1.68,0,0,0-.2-.81,1.42,1.42,0,0,0-1.27-.74,1.39,1.39,0,0,0-.76.2,1.42,1.42,0,0,0-.52.54,1.68,1.68,0,0,0-.2.81,1.64,1.64,0,0,0,.2.8,1.42,1.42,0,0,0,.52.54,1.39,1.39,0,0,0,.76.2A1.36,1.36,0,0,0,86.21,299.88Z" style="fill:#939393"/><path d="M88.72,295.15h.35v5.22h-.35Z" style="fill:#939393"/><path d="M91.4,300.16a1.7,1.7,0,0,1-.66-.67,2,2,0,0,1,0-1.91,1.7,1.7,0,0,1,.66-.67,1.94,1.94,0,0,1,1.87,0,1.68,1.68,0,0,1,.65.67,2,2,0,0,1,0,1.91,1.68,1.68,0,0,1-.65.67,1.94,1.94,0,0,1-1.87,0Zm1.69-.28a1.42,1.42,0,0,0,.52-.54,1.64,1.64,0,0,0,.2-.8,1.68,1.68,0,0,0-.2-.81,1.42,1.42,0,0,0-1.28-.74,1.36,1.36,0,0,0-.75.2,1.45,1.45,0,0,0-.53.54,1.79,1.79,0,0,0-.19.81,1.75,1.75,0,0,0,.19.8,1.45,1.45,0,0,0,.53.54,1.36,1.36,0,0,0,.75.2A1.42,1.42,0,0,0,93.09,299.88Z" style="fill:#939393"/><path d="M96.46,296.89a1.61,1.61,0,0,1,.87-.22V297h-.08a1.24,1.24,0,0,0-1,.38,1.55,1.55,0,0,0-.34,1.07v1.91H95.6V296.7h.34v.8A1.2,1.2,0,0,1,96.46,296.89Z" style="fill:#939393"/><path d="M101,300.26a1.69,1.69,0,0,1-.63-.33l.17-.28a1.92,1.92,0,0,0,.57.31,2.1,2.1,0,0,0,.74.13,1.47,1.47,0,0,0,.82-.18.58.58,0,0,0,.26-.51.46.46,0,0,0-.14-.37.85.85,0,0,0-.35-.19l-.59-.14a5,5,0,0,1-.7-.16,1.15,1.15,0,0,1-.45-.3.78.78,0,0,1-.19-.56.88.88,0,0,1,.36-.72,1.62,1.62,0,0,1,1-.29,2.74,2.74,0,0,1,.69.1,1.72,1.72,0,0,1,.56.26l-.16.28a1.5,1.5,0,0,0-.51-.24,2,2,0,0,0-.59-.09,1.34,1.34,0,0,0-.77.19.58.58,0,0,0-.26.5.49.49,0,0,0,.15.38.8.8,0,0,0,.36.21c.14,0,.34.09.6.14a5,5,0,0,1,.69.17,1.07,1.07,0,0,1,.44.28.77.77,0,0,1,.18.54.85.85,0,0,1-.37.73,1.77,1.77,0,0,1-1.07.28A2.64,2.64,0,0,1,101,300.26Z" style="fill:#939393"/><path d="M104.54,295.73a.27.27,0,0,1-.09-.2.29.29,0,0,1,.09-.21.29.29,0,0,1,.4,0,.29.29,0,0,1-.2.49A.28.28,0,0,1,104.54,295.73Zm0,1h.35v3.67h-.35Z" style="fill:#939393"/><path d="M108.56,300.14a.89.89,0,0,1-.33.19,1.16,1.16,0,0,1-.42.07.9.9,0,0,1-1-1V297h-.68v-.3h.68v-.8h.35v.8h1.16v.3h-1.16v2.36a.76.76,0,0,0,.17.55.66.66,0,0,0,.51.19.79.79,0,0,0,.56-.21Z" style="fill:#939393"/><path d="M114.32,297a1.35,1.35,0,0,1,.36,1v2.33h-.34v-.65a1.17,1.17,0,0,1-.51.5,1.66,1.66,0,0,1-.8.18,1.52,1.52,0,0,1-1-.29,1,1,0,0,1-.35-.76,1,1,0,0,1,.32-.74,1.57,1.57,0,0,1,1-.29h1.26V298a1,1,0,0,0-.28-.78,1.1,1.1,0,0,0-.81-.27,1.8,1.8,0,0,0-.69.13,1.69,1.69,0,0,0-.57.34l-.17-.26a1.94,1.94,0,0,1,.66-.38,2.36,2.36,0,0,1,.8-.14A1.5,1.5,0,0,1,114.32,297Zm-.47,2.88a1.34,1.34,0,0,0,.48-.61v-.69h-1.25a1.18,1.18,0,0,0-.78.2.66.66,0,0,0-.24.54.68.68,0,0,0,.26.56,1.19,1.19,0,0,0,.75.21A1.38,1.38,0,0,0,113.85,299.9Z" style="fill:#939393"/><path d="M122.1,297.07a1.6,1.6,0,0,1,.39,1.16v2.14h-.35v-2.12a1.34,1.34,0,0,0-.3-.94A1.11,1.11,0,0,0,121,297a1.27,1.27,0,0,0-1,.39,1.45,1.45,0,0,0-.36,1v1.95h-.35v-2.12a1.34,1.34,0,0,0-.3-.94,1.13,1.13,0,0,0-.85-.32,1.25,1.25,0,0,0-1,.39,1.45,1.45,0,0,0-.36,1v1.95h-.36V296.7h.34v.79a1.31,1.31,0,0,1,.54-.6,1.62,1.62,0,0,1,.86-.22,1.52,1.52,0,0,1,.85.23,1.23,1.23,0,0,1,.49.66,1.43,1.43,0,0,1,.57-.65,1.72,1.72,0,0,1,.91-.24A1.46,1.46,0,0,1,122.1,297.07Z" style="fill:#939393"/><path d="M127.38,298.62h-3.15a1.57,1.57,0,0,0,.22.76,1.37,1.37,0,0,0,.55.52,1.79,1.79,0,0,0,1.45.05,1.37,1.37,0,0,0,.51-.38l.2.23a1.56,1.56,0,0,1-.6.44,1.85,1.85,0,0,1-.78.16,2,2,0,0,1-1-.24,1.84,1.84,0,0,1-.67-.66,1.9,1.9,0,0,1-.24-1,2,2,0,0,1,.23-1,1.63,1.63,0,0,1,.63-.67,1.67,1.67,0,0,1,.89-.24,1.71,1.71,0,0,1,.9.24,1.65,1.65,0,0,1,.62.66,2,2,0,0,1,.23.95ZM125,297.15a1.28,1.28,0,0,0-.49.49,1.52,1.52,0,0,0-.22.71h2.81a1.64,1.64,0,0,0-.21-.71,1.53,1.53,0,0,0-.5-.48,1.38,1.38,0,0,0-.7-.18A1.47,1.47,0,0,0,125,297.15Z" style="fill:#939393"/><path d="M130.64,300.14a.89.89,0,0,1-.33.19,1.16,1.16,0,0,1-.42.07,1,1,0,0,1-.73-.27,1,1,0,0,1-.26-.73V297h-.68v-.3h.68v-.8h.35v.8h1.16v.3h-1.16v2.36a.76.76,0,0,0,.17.55.66.66,0,0,0,.51.19.76.76,0,0,0,.56-.21Z" style="fill:#939393"/><path d="M132.21,299.89a.32.32,0,0,1,.08.21.78.78,0,0,1,0,.14c0,.05,0,.11,0,.18l-.28.95h-.25l.23-1a.37.37,0,0,1-.17-.1.28.28,0,0,1-.06-.18.28.28,0,0,1,.3-.3A.29.29,0,0,1,132.21,299.89Z" style="fill:#939393"/><path d="M136.44,300.16a1.7,1.7,0,0,1-.66-.67,1.89,1.89,0,0,1-.24-.95,1.91,1.91,0,0,1,.24-1,1.74,1.74,0,0,1,.66-.66,1.89,1.89,0,0,1,.95-.24,1.79,1.79,0,0,1,.81.18,1.4,1.4,0,0,1,.58.5l-.26.19a1.18,1.18,0,0,0-.48-.41,1.41,1.41,0,0,0-.65-.14,1.48,1.48,0,0,0-.76.19,1.36,1.36,0,0,0-.54.55,1.8,1.8,0,0,0,0,1.61,1.36,1.36,0,0,0,.54.55,1.48,1.48,0,0,0,.76.19,1.41,1.41,0,0,0,.65-.14,1.18,1.18,0,0,0,.48-.41l.26.19a1.5,1.5,0,0,1-.58.51,1.92,1.92,0,0,1-.81.17A1.89,1.89,0,0,1,136.44,300.16Z" style="fill:#939393"/><path d="M140.61,300.16a1.75,1.75,0,0,1-.65-.67,2,2,0,0,1,0-1.91,1.75,1.75,0,0,1,.65-.67,2,2,0,0,1,1.88,0,1.75,1.75,0,0,1,.65.67,2,2,0,0,1,0,1.91,1.75,1.75,0,0,1-.65.67,2,2,0,0,1-1.88,0Zm1.69-.28a1.38,1.38,0,0,0,.53-.54,1.63,1.63,0,0,0,.19-.8,1.67,1.67,0,0,0-.19-.81,1.38,1.38,0,0,0-.53-.54,1.51,1.51,0,0,0-1.5,0,1.38,1.38,0,0,0-.53.54,1.67,1.67,0,0,0-.19.81,1.63,1.63,0,0,0,.19.8,1.38,1.38,0,0,0,.53.54,1.51,1.51,0,0,0,1.5,0Z" style="fill:#939393"/><path d="M147.69,297.07a1.56,1.56,0,0,1,.4,1.16v2.14h-.35v-2.12a1.3,1.3,0,0,0-.31-.94,1.18,1.18,0,0,0-.87-.32,1.35,1.35,0,0,0-1,.39,1.41,1.41,0,0,0-.37,1v1.95h-.35V296.7h.33v.79a1.49,1.49,0,0,1,.57-.6,1.77,1.77,0,0,1,.88-.22A1.49,1.49,0,0,1,147.69,297.07Z" style="fill:#939393"/><path d="M150,300.26a1.64,1.64,0,0,1-.62-.33l.16-.28a1.86,1.86,0,0,0,.58.31,2,2,0,0,0,.74.13,1.45,1.45,0,0,0,.81-.18.58.58,0,0,0,.26-.51.46.46,0,0,0-.14-.37.79.79,0,0,0-.35-.19l-.58-.14a5.15,5.15,0,0,1-.71-.16,1.23,1.23,0,0,1-.45-.3.78.78,0,0,1-.19-.56.88.88,0,0,1,.36-.72,1.62,1.62,0,0,1,1-.29,2.74,2.74,0,0,1,.69.1,1.72,1.72,0,0,1,.56.26l-.16.28a1.5,1.5,0,0,0-.51-.24,2,2,0,0,0-.59-.09,1.34,1.34,0,0,0-.77.19.6.6,0,0,0-.26.5.49.49,0,0,0,.15.38.93.93,0,0,0,.36.21c.14,0,.34.09.6.14a5,5,0,0,1,.69.17,1.07,1.07,0,0,1,.44.28.77.77,0,0,1,.19.54.85.85,0,0,1-.38.73,1.77,1.77,0,0,1-1.07.28A2.64,2.64,0,0,1,150,300.26Z" style="fill:#939393"/><path d="M156.68,298.62h-3.15a1.47,1.47,0,0,0,.22.76,1.31,1.31,0,0,0,.55.52,1.66,1.66,0,0,0,.78.18,1.59,1.59,0,0,0,.66-.13,1.22,1.22,0,0,0,.51-.38l.2.23a1.42,1.42,0,0,1-.6.44,1.85,1.85,0,0,1-.78.16,1.94,1.94,0,0,1-1-.24,1.7,1.7,0,0,1-.67-.66,2.08,2.08,0,0,1,0-1.92,1.67,1.67,0,0,1,.62-.67,1.73,1.73,0,0,1,.9-.24,1.67,1.67,0,0,1,.89.24,1.6,1.6,0,0,1,.63.66,2,2,0,0,1,.23.95Zm-2.43-1.47a1.38,1.38,0,0,0-.5.49,1.64,1.64,0,0,0-.21.71h2.8a1.41,1.41,0,0,0-.21-.71,1.36,1.36,0,0,0-.5-.48,1.31,1.31,0,0,0-.69-.18A1.41,1.41,0,0,0,154.25,297.15Z" style="fill:#939393"/><path d="M158.62,300.16a1.7,1.7,0,0,1-.66-.67,1.89,1.89,0,0,1-.24-.95,1.91,1.91,0,0,1,.24-1,1.74,1.74,0,0,1,.66-.66,1.89,1.89,0,0,1,.95-.24,1.79,1.79,0,0,1,.81.18,1.4,1.4,0,0,1,.58.5l-.26.19a1.18,1.18,0,0,0-.48-.41,1.41,1.41,0,0,0-.65-.14,1.48,1.48,0,0,0-.76.19,1.36,1.36,0,0,0-.54.55,1.8,1.8,0,0,0,0,1.61,1.36,1.36,0,0,0,.54.55,1.48,1.48,0,0,0,.76.19,1.41,1.41,0,0,0,.65-.14,1.18,1.18,0,0,0,.48-.41l.26.19a1.5,1.5,0,0,1-.58.51,1.92,1.92,0,0,1-.81.17A1.89,1.89,0,0,1,158.62,300.16Z" style="fill:#939393"/><path d="M164.22,300.14a.89.89,0,0,1-.33.19,1.16,1.16,0,0,1-.42.07.9.9,0,0,1-1-1V297h-.68v-.3h.68v-.8h.35v.8H164v.3h-1.16v2.36a.76.76,0,0,0,.17.55.66.66,0,0,0,.51.19.79.79,0,0,0,.56-.21Z" style="fill:#939393"/><path d="M168.5,298.62h-3.14a1.57,1.57,0,0,0,.21.76,1.37,1.37,0,0,0,.55.52,1.7,1.7,0,0,0,.79.18,1.65,1.65,0,0,0,.66-.13,1.37,1.37,0,0,0,.51-.38l.2.23a1.56,1.56,0,0,1-.6.44,1.85,1.85,0,0,1-.78.16,2,2,0,0,1-1-.24,1.84,1.84,0,0,1-.67-.66,1.9,1.9,0,0,1-.24-1,2,2,0,0,1,.23-1,1.63,1.63,0,0,1,.63-.67,1.67,1.67,0,0,1,.89-.24,1.71,1.71,0,0,1,.9.24,1.65,1.65,0,0,1,.62.66,2,2,0,0,1,.23.95Zm-2.43-1.47a1.35,1.35,0,0,0-.49.49,1.52,1.52,0,0,0-.22.71h2.81a1.64,1.64,0,0,0-.21-.71,1.44,1.44,0,0,0-.5-.48,1.38,1.38,0,0,0-.7-.18A1.47,1.47,0,0,0,166.07,297.15Z" style="fill:#939393"/><path d="M169.64,298.32h1.8v.32h-1.8Z" style="fill:#939393"/><path d="M29.85,314.19a.91.91,0,0,1-.33.2,1.54,1.54,0,0,1-.42.07,1,1,0,0,1-.74-.27,1,1,0,0,1-.26-.73v-2.4h-.67v-.3h.67V310h.36v.8h1.16v.3H28.46v2.36a.77.77,0,0,0,.17.55.66.66,0,0,0,.51.18.79.79,0,0,0,.56-.2Z" style="fill:#939393"/><path d="M34.38,310.76v3.67H34v-.79a1.31,1.31,0,0,1-.54.6,1.64,1.64,0,0,1-.84.22,1.55,1.55,0,0,1-1.12-.4,1.58,1.58,0,0,1-.41-1.16v-2.14h.35v2.11a1.31,1.31,0,0,0,.32.95,1.21,1.21,0,0,0,.89.32,1.27,1.27,0,0,0,1-.39,1.46,1.46,0,0,0,.36-1v-1.95Z" style="fill:#939393"/><path d="M39.31,312.68H36.16a1.5,1.5,0,0,0,.22.76,1.45,1.45,0,0,0,.55.52,1.66,1.66,0,0,0,.78.18,1.59,1.59,0,0,0,.66-.13,1.48,1.48,0,0,0,.51-.38l.2.23a1.56,1.56,0,0,1-.6.44,2,2,0,0,1-.78.16,1.94,1.94,0,0,1-1-.24,1.7,1.7,0,0,1-.67-.66,1.94,1.94,0,0,1-.24-1,2.05,2.05,0,0,1,.22-1,1.7,1.7,0,0,1,1.53-.9,1.67,1.67,0,0,1,.89.24,1.64,1.64,0,0,1,.63.65,2,2,0,0,1,.22,1Zm-2.44-1.47a1.35,1.35,0,0,0-.49.49,1.47,1.47,0,0,0-.21.7H39a1.4,1.4,0,0,0-.21-.7,1.28,1.28,0,0,0-.5-.48,1.31,1.31,0,0,0-.69-.18A1.48,1.48,0,0,0,36.87,311.21Z" style="fill:#939393"/><path d="M41.61,310.94a1.7,1.7,0,0,1,.87-.21v.34H42.4a1.24,1.24,0,0,0-1,.38,1.6,1.6,0,0,0-.34,1.07v1.91h-.35v-3.67h.34v.8A1.27,1.27,0,0,1,41.61,310.94Z" style="fill:#939393"/><path d="M48.29,311.08a1.32,1.32,0,0,1,.37,1v2.33h-.34v-.66a1.25,1.25,0,0,1-.51.51,1.67,1.67,0,0,1-.81.18,1.5,1.5,0,0,1-1-.29,1,1,0,0,1,0-1.5,1.57,1.57,0,0,1,1-.29h1.26v-.29a1,1,0,0,0-.28-.78,1.1,1.1,0,0,0-.81-.27,1.89,1.89,0,0,0-.7.13,1.63,1.63,0,0,0-.56.33l-.18-.25a2.15,2.15,0,0,1,.66-.38,2.46,2.46,0,0,1,.81-.14A1.45,1.45,0,0,1,48.29,311.08ZM47.83,314a1.34,1.34,0,0,0,.48-.61v-.69H47.06a1.24,1.24,0,0,0-.78.19.66.66,0,0,0-.24.54.68.68,0,0,0,.26.57,1.19,1.19,0,0,0,.75.21A1.4,1.4,0,0,0,47.83,314Z" style="fill:#939393"/><path d="M53.71,309.21v5.22h-.34v-.87a1.56,1.56,0,0,1-.61.66,1.67,1.67,0,0,1-.89.24,1.84,1.84,0,0,1-.93-.24,1.79,1.79,0,0,1-.65-.66,2,2,0,0,1-.23-1,2,2,0,0,1,.23-1,1.65,1.65,0,0,1,.65-.66,1.84,1.84,0,0,1,.93-.24,1.72,1.72,0,0,1,.88.23,1.66,1.66,0,0,1,.61.65v-2.4Zm-1.07,4.73a1.4,1.4,0,0,0,.53-.55,1.6,1.6,0,0,0,.19-.8,1.63,1.63,0,0,0-.19-.8,1.47,1.47,0,0,0-.53-.55,1.58,1.58,0,0,0-1.5,0,1.4,1.4,0,0,0-.53.55,1.63,1.63,0,0,0-.19.8,1.6,1.6,0,0,0,.19.8,1.34,1.34,0,0,0,.53.55,1.51,1.51,0,0,0,1.5,0Z" style="fill:#939393"/><path d="M55.51,309.78a.28.28,0,0,1-.08-.2.32.32,0,0,1,.08-.2.28.28,0,0,1,.21-.08.26.26,0,0,1,.2.08.29.29,0,0,1,0,.4.27.27,0,0,1-.2.09A.29.29,0,0,1,55.51,309.78Zm0,1h.35v3.67h-.35Z" style="fill:#939393"/><path d="M60.48,311a1.72,1.72,0,0,1,.65.66,1.9,1.9,0,0,1,.24,1,1.94,1.94,0,0,1-.24,1,1.72,1.72,0,0,1-.65.66,1.78,1.78,0,0,1-.92.24,1.72,1.72,0,0,1-.88-.23,1.7,1.7,0,0,1-.61-.64v2.2h-.35v-5h.34v.86a1.53,1.53,0,0,1,.61-.65,1.67,1.67,0,0,1,.89-.24A1.78,1.78,0,0,1,60.48,311Zm-.19,3a1.34,1.34,0,0,0,.53-.55,1.6,1.6,0,0,0,.19-.8,1.63,1.63,0,0,0-.19-.8,1.4,1.4,0,0,0-.53-.55,1.44,1.44,0,0,0-.75-.19,1.48,1.48,0,0,0-.76.19,1.45,1.45,0,0,0-.52.55,1.64,1.64,0,0,0-.2.8,1.61,1.61,0,0,0,.2.8,1.38,1.38,0,0,0,.52.55,1.49,1.49,0,0,0,.76.2A1.45,1.45,0,0,0,60.29,313.94Z" style="fill:#939393"/><path d="M62.77,309.78a.28.28,0,0,1-.08-.2.32.32,0,0,1,.08-.2.28.28,0,0,1,.21-.08.26.26,0,0,1,.2.08.29.29,0,0,1,0,.4.27.27,0,0,1-.2.09A.29.29,0,0,1,62.77,309.78Zm0,1h.35v3.67H62.8Z" style="fill:#939393"/><path d="M65.07,314.32a1.7,1.7,0,0,1-.63-.34l.16-.28a1.79,1.79,0,0,0,.58.32,2.3,2.3,0,0,0,.74.13,1.4,1.4,0,0,0,.82-.19.59.59,0,0,0,.26-.5.5.5,0,0,0-.14-.37.89.89,0,0,0-.36-.19,4.52,4.52,0,0,0-.58-.14,4.8,4.8,0,0,1-.7-.17,1.16,1.16,0,0,1-.46-.29.92.92,0,0,1,.18-1.28,1.55,1.55,0,0,1,1-.29,2.37,2.37,0,0,1,.7.1,1.62,1.62,0,0,1,.56.26l-.16.28a1.73,1.73,0,0,0-.51-.25A2.39,2.39,0,0,0,66,311a1.3,1.3,0,0,0-.78.19.59.59,0,0,0-.25.5.48.48,0,0,0,.14.38,1.07,1.07,0,0,0,.36.21l.6.14a6.08,6.08,0,0,1,.69.16,1.06,1.06,0,0,1,.45.29.77.77,0,0,1,.18.54.85.85,0,0,1-.38.73,1.8,1.8,0,0,1-1.06.28A2.55,2.55,0,0,1,65.07,314.32Z" style="fill:#939393"/><path d="M69.18,314.22a1.7,1.7,0,0,1-.66-.67,2,2,0,0,1,0-1.92,1.61,1.61,0,0,1,.66-.66,1.89,1.89,0,0,1,.95-.24,1.92,1.92,0,0,1,.81.17,1.56,1.56,0,0,1,.58.5l-.26.2a1.28,1.28,0,0,0-.48-.42,1.54,1.54,0,0,0-.65-.13,1.48,1.48,0,0,0-.76.19,1.4,1.4,0,0,0-.54.54,1.79,1.79,0,0,0-.19.81,1.73,1.73,0,0,0,.19.81,1.36,1.36,0,0,0,.54.55,1.59,1.59,0,0,0,.76.19,1.55,1.55,0,0,0,.65-.14,1.26,1.26,0,0,0,.48-.41l.26.19a1.4,1.4,0,0,1-.58.5,1.79,1.79,0,0,1-.81.18A1.89,1.89,0,0,1,69.18,314.22Z" style="fill:#939393"/><path d="M72.9,309.78a.25.25,0,0,1-.09-.2.28.28,0,0,1,.09-.2.29.29,0,0,1,.4,0,.28.28,0,1,1-.4.4Zm0,1h.35v3.67h-.35Z" style="fill:#939393"/><path d="M78,311.13a1.59,1.59,0,0,1,.4,1.15v2.15H78v-2.12a1.35,1.35,0,0,0-.31-.94,1.15,1.15,0,0,0-.88-.32,1.34,1.34,0,0,0-1,.38,1.45,1.45,0,0,0-.38,1v2H75.1v-3.67h.34v.79A1.41,1.41,0,0,1,76,311a1.7,1.7,0,0,1,.89-.22A1.46,1.46,0,0,1,78,311.13Z" style="fill:#939393"/><path d="M83.47,310.76V314a1.8,1.8,0,0,1-.44,1.35,1.82,1.82,0,0,1-1.33.44,2.71,2.71,0,0,1-1-.16,1.92,1.92,0,0,1-.73-.42l.19-.27a2,2,0,0,0,.66.39,2.25,2.25,0,0,0,.82.14,1.25,1.25,0,0,0,1.43-1.42v-.62a1.61,1.61,0,0,1-.62.62,2.05,2.05,0,0,1-1.83,0,1.74,1.74,0,0,1-.65-.64,1.88,1.88,0,0,1,0-1.84,1.64,1.64,0,0,1,.65-.63,1.94,1.94,0,0,1,.93-.23,1.84,1.84,0,0,1,.91.23,1.59,1.59,0,0,1,.63.63v-.83Zm-1.07,3a1.35,1.35,0,0,0,.54-.52,1.48,1.48,0,0,0,.19-.76,1.45,1.45,0,0,0-.19-.76,1.42,1.42,0,0,0-.54-.52,1.62,1.62,0,0,0-.77-.18,1.65,1.65,0,0,0-.77.18,1.53,1.53,0,0,0-.53,2,1.39,1.39,0,0,0,.53.52,1.54,1.54,0,0,0,.77.19A1.52,1.52,0,0,0,82.4,313.79Z" style="fill:#939393"/><path d="M90.56,312.68H87.41a1.6,1.6,0,0,0,.21.76,1.48,1.48,0,0,0,.56.52,1.66,1.66,0,0,0,.78.18,1.62,1.62,0,0,0,.66-.13,1.48,1.48,0,0,0,.51-.38l.2.23a1.56,1.56,0,0,1-.6.44,2,2,0,0,1-.78.16,2,2,0,0,1-1-.24,1.74,1.74,0,0,1-.66-.66,1.85,1.85,0,0,1-.25-1,2.06,2.06,0,0,1,.23-1,1.76,1.76,0,0,1,2.42-.66,1.62,1.62,0,0,1,.62.65,1.9,1.9,0,0,1,.23,1Zm-2.44-1.47a1.35,1.35,0,0,0-.49.49,1.48,1.48,0,0,0-.22.7h2.81a1.64,1.64,0,0,0-.21-.7,1.28,1.28,0,0,0-.5-.48,1.37,1.37,0,0,0-.69-.18A1.48,1.48,0,0,0,88.12,311.21Z" style="fill:#939393"/><path d="M92,309.21h.35v5.22H92Z" style="fill:#939393"/><path d="M94.15,309.78a.24.24,0,0,1-.08-.2.27.27,0,0,1,.08-.2.26.26,0,0,1,.2-.08.28.28,0,0,1,.21.48.29.29,0,0,1-.21.09A.27.27,0,0,1,94.15,309.78Zm0,1h.35v3.67h-.35Z" style="fill:#939393"/><path d="M98.17,314.19a.84.84,0,0,1-.33.2,1.42,1.42,0,0,1-.42.07.92.92,0,0,1-1-1v-2.4h-.67v-.3h.67V310h.35v.8h1.16v.3H96.78v2.36A.82.82,0,0,0,97,314a.67.67,0,0,0,.51.18A.8.8,0,0,0,98,314Z" style="fill:#939393"/><path d="M99.74,314a.28.28,0,0,1,.08.2.39.39,0,0,1,0,.15c0,.05,0,.11,0,.18l-.27.95h-.26l.23-1a.29.29,0,0,1-.16-.1.25.25,0,0,1-.07-.19.3.3,0,0,1,.51-.2Z" style="fill:#939393"/><path d="M103.56,314.32a1.7,1.7,0,0,1-.63-.34l.17-.28a1.64,1.64,0,0,0,.57.32,2.35,2.35,0,0,0,.74.13,1.38,1.38,0,0,0,.82-.19.56.56,0,0,0,.26-.5.5.5,0,0,0-.14-.37.85.85,0,0,0-.35-.19,5.24,5.24,0,0,0-.59-.14,4.8,4.8,0,0,1-.7-.17,1.06,1.06,0,0,1-.45-.29.8.8,0,0,1-.19-.57.85.85,0,0,1,.36-.71,1.56,1.56,0,0,1,1-.29,2.35,2.35,0,0,1,.69.1,1.62,1.62,0,0,1,.56.26l-.16.28a1.73,1.73,0,0,0-.51-.25,2.33,2.33,0,0,0-.59-.08,1.27,1.27,0,0,0-.77.19.58.58,0,0,0-.26.5.52.52,0,0,0,.14.38,1,1,0,0,0,.37.21c.14,0,.34.09.6.14s.51.11.69.16a1.09,1.09,0,0,1,.44.29.77.77,0,0,1,.18.54.85.85,0,0,1-.37.73,1.84,1.84,0,0,1-1.07.28A2.55,2.55,0,0,1,103.56,314.32Z" style="fill:#939393"/><path d="M110.27,312.68h-3.15a1.5,1.5,0,0,0,.22.76,1.45,1.45,0,0,0,.55.52,1.66,1.66,0,0,0,.78.18,1.59,1.59,0,0,0,.66-.13,1.48,1.48,0,0,0,.51-.38l.2.23a1.56,1.56,0,0,1-.6.44,2,2,0,0,1-.78.16,1.94,1.94,0,0,1-1-.24,1.7,1.7,0,0,1-.67-.66,1.94,1.94,0,0,1-.24-1,2.05,2.05,0,0,1,.22-1,1.7,1.7,0,0,1,1.53-.9,1.67,1.67,0,0,1,.89.24,1.64,1.64,0,0,1,.63.65,2,2,0,0,1,.22,1Zm-2.44-1.47a1.35,1.35,0,0,0-.49.49,1.47,1.47,0,0,0-.21.7h2.8a1.4,1.4,0,0,0-.21-.7,1.28,1.28,0,0,0-.5-.48,1.31,1.31,0,0,0-.69-.18A1.48,1.48,0,0,0,107.83,311.21Z" style="fill:#939393"/><path d="M115,309.21v5.22h-.34v-.87a1.56,1.56,0,0,1-.61.66,1.67,1.67,0,0,1-.89.24,1.84,1.84,0,0,1-.93-.24,1.69,1.69,0,0,1-.64-.66,1.94,1.94,0,0,1-.24-1,1.9,1.9,0,0,1,.24-1,1.57,1.57,0,0,1,.64-.66,1.84,1.84,0,0,1,.93-.24,1.72,1.72,0,0,1,.88.23,1.66,1.66,0,0,1,.61.65v-2.4Zm-1.07,4.73a1.34,1.34,0,0,0,.53-.55,1.6,1.6,0,0,0,.19-.8,1.63,1.63,0,0,0-.19-.8,1.4,1.4,0,0,0-.53-.55,1.58,1.58,0,0,0-1.5,0,1.4,1.4,0,0,0-.53.55,1.63,1.63,0,0,0-.19.8,1.6,1.6,0,0,0,.19.8,1.34,1.34,0,0,0,.53.55,1.51,1.51,0,0,0,1.5,0Z" style="fill:#939393"/><path d="M122.2,309.21v5.22h-.35v-.87a1.45,1.45,0,0,1-.61.66,1.65,1.65,0,0,1-.89.24,1.78,1.78,0,0,1-.92-.24,1.72,1.72,0,0,1-.65-.66,1.93,1.93,0,0,1-.23-1,1.9,1.9,0,0,1,.23-1,1.59,1.59,0,0,1,.65-.66,1.78,1.78,0,0,1,.92-.24,1.72,1.72,0,0,1,.88.23,1.69,1.69,0,0,1,.62.65v-2.4Zm-1.07,4.73a1.32,1.32,0,0,0,.52-.55,1.61,1.61,0,0,0,.2-.8,1.64,1.64,0,0,0-.2-.8,1.38,1.38,0,0,0-.52-.55,1.48,1.48,0,0,0-.76-.19,1.44,1.44,0,0,0-.75.19,1.38,1.38,0,0,0-.52.55,1.64,1.64,0,0,0-.2.8,1.61,1.61,0,0,0,.2.8,1.32,1.32,0,0,0,.52.55,1.45,1.45,0,0,0,.75.2A1.49,1.49,0,0,0,121.13,313.94Z" style="fill:#939393"/><path d="M124,309.78a.25.25,0,0,1-.09-.2.28.28,0,0,1,.09-.2.26.26,0,0,1,.2-.08.28.28,0,0,1,.21.48.29.29,0,0,1-.21.09A.27.27,0,0,1,124,309.78Zm0,1h.35v3.67H124Z" style="fill:#939393"/><path d="M128.48,311.08a1.32,1.32,0,0,1,.37,1v2.33h-.34v-.66a1.2,1.2,0,0,1-.51.51,1.67,1.67,0,0,1-.81.18,1.5,1.5,0,0,1-1-.29.92.92,0,0,1-.35-.76,1,1,0,0,1,.32-.74,1.57,1.57,0,0,1,1-.29h1.26v-.29a1,1,0,0,0-.28-.78,1.1,1.1,0,0,0-.81-.27,1.89,1.89,0,0,0-.7.13,1.63,1.63,0,0,0-.56.33l-.18-.25a2.15,2.15,0,0,1,.66-.38,2.46,2.46,0,0,1,.81-.14A1.45,1.45,0,0,1,128.48,311.08ZM128,314a1.34,1.34,0,0,0,.48-.61v-.69h-1.25a1.24,1.24,0,0,0-.78.19.66.66,0,0,0-.24.54.7.7,0,0,0,.26.57,1.19,1.19,0,0,0,.75.21A1.38,1.38,0,0,0,128,314Z" style="fill:#939393"/><path d="M136.27,311.13a1.59,1.59,0,0,1,.39,1.15v2.15h-.35v-2.12a1.34,1.34,0,0,0-.3-.94,1.07,1.07,0,0,0-.84-.32,1.29,1.29,0,0,0-1,.38,1.48,1.48,0,0,0-.36,1v2h-.35v-2.12a1.3,1.3,0,0,0-.31-.94,1.07,1.07,0,0,0-.84-.32,1.28,1.28,0,0,0-1,.38,1.44,1.44,0,0,0-.37,1v2h-.35v-3.67H131v.79a1.39,1.39,0,0,1,.54-.61,1.69,1.69,0,0,1,.86-.21,1.54,1.54,0,0,1,.85.23,1.23,1.23,0,0,1,.49.66,1.39,1.39,0,0,1,.57-.65,1.69,1.69,0,0,1,.91-.24A1.42,1.42,0,0,1,136.27,311.13Z" style="fill:#939393"/><path d="M143.48,311.13a1.55,1.55,0,0,1,.4,1.15v2.15h-.35v-2.12a1.3,1.3,0,0,0-.31-.94,1.15,1.15,0,0,0-.88-.32,1.36,1.36,0,0,0-1,.38,1.44,1.44,0,0,0-.37,1v2h-.35v-3.67h.33v.79a1.43,1.43,0,0,1,.57-.6,1.67,1.67,0,0,1,.88-.22A1.46,1.46,0,0,1,143.48,311.13Z" style="fill:#939393"/><path d="M146.18,314.22a1.7,1.7,0,0,1-.66-.67,1.9,1.9,0,0,1-.24-1,2,2,0,0,1,.24-1,1.74,1.74,0,0,1,.66-.66,1.79,1.79,0,0,1,.93-.24,1.85,1.85,0,0,1,.94.24,1.79,1.79,0,0,1,.65.66,2,2,0,0,1,.24,1,1.9,1.9,0,0,1-.24,1,1.75,1.75,0,0,1-.65.67,1.85,1.85,0,0,1-.94.24A1.79,1.79,0,0,1,146.18,314.22Zm1.68-.28a1.34,1.34,0,0,0,.53-.55,1.6,1.6,0,0,0,.19-.8,1.63,1.63,0,0,0-.19-.8,1.4,1.4,0,0,0-.53-.55,1.58,1.58,0,0,0-1.5,0,1.47,1.47,0,0,0-.53.55,1.63,1.63,0,0,0-.19.8,1.6,1.6,0,0,0,.19.8,1.4,1.4,0,0,0,.53.55,1.51,1.51,0,0,0,1.5,0Z" style="fill:#939393"/><path d="M153.25,311.13a1.55,1.55,0,0,1,.4,1.15v2.15h-.35v-2.12a1.3,1.3,0,0,0-.31-.94,1.14,1.14,0,0,0-.87-.32,1.38,1.38,0,0,0-1,.38,1.44,1.44,0,0,0-.37,1v2h-.35v-3.67h.33v.79a1.43,1.43,0,0,1,.57-.6,1.68,1.68,0,0,1,.89-.22A1.44,1.44,0,0,1,153.25,311.13Z" style="fill:#939393"/><path d="M158.65,310.76v3.67h-.34v-.79a1.31,1.31,0,0,1-.54.6,1.59,1.59,0,0,1-.84.22,1.41,1.41,0,0,1-1.53-1.56v-2.14h.36v2.11a1.31,1.31,0,0,0,.31.95,1.21,1.21,0,0,0,.89.32,1.27,1.27,0,0,0,1-.39,1.46,1.46,0,0,0,.36-1v-1.95Z" style="fill:#939393"/><path d="M166.11,311.13a1.59,1.59,0,0,1,.39,1.15v2.15h-.35v-2.12a1.34,1.34,0,0,0-.3-.94,1.07,1.07,0,0,0-.84-.32,1.3,1.3,0,0,0-1,.38,1.48,1.48,0,0,0-.36,1v2h-.35v-2.12a1.34,1.34,0,0,0-.3-.94,1.09,1.09,0,0,0-.84-.32,1.29,1.29,0,0,0-1,.38,1.48,1.48,0,0,0-.36,1v2h-.35v-3.67h.33v.79a1.35,1.35,0,0,1,.55-.61,1.65,1.65,0,0,1,.85-.21,1.52,1.52,0,0,1,.85.23,1.19,1.19,0,0,1,.49.66,1.44,1.44,0,0,1,.57-.65,1.72,1.72,0,0,1,.91-.24A1.4,1.4,0,0,1,166.11,311.13Z" style="fill:#939393"/><path d="M168,312.38h1.8v.32H168Z" style="fill:#939393"/><path d="M53.38,325.19a1.57,1.57,0,0,1,.39,1.15v2.14h-.35v-2.11a1.33,1.33,0,0,0-.3-.94,1.09,1.09,0,0,0-.85-.33,1.25,1.25,0,0,0-1,.39,1.46,1.46,0,0,0-.36,1v2h-.35v-2.11a1.33,1.33,0,0,0-.31-.94,1.08,1.08,0,0,0-.84-.33,1.25,1.25,0,0,0-1,.39,1.42,1.42,0,0,0-.37,1v2h-.35v-3.66h.34v.78a1.31,1.31,0,0,1,.54-.6,1.69,1.69,0,0,1,.86-.21,1.56,1.56,0,0,1,.85.22,1.23,1.23,0,0,1,.49.66,1.41,1.41,0,0,1,.57-.64,1.69,1.69,0,0,1,.91-.24A1.42,1.42,0,0,1,53.38,325.19Z" style="fill:#939393"/><path d="M58.43,324.82,56.55,329a1.53,1.53,0,0,1-.49.69,1,1,0,0,1-.65.21,1.28,1.28,0,0,1-.48-.09,1.18,1.18,0,0,1-.37-.24l.18-.27a.91.91,0,0,0,.68.29.72.72,0,0,0,.45-.15,1.33,1.33,0,0,0,.35-.51l.2-.44-1.65-3.65h.37l1.47,3.28,1.46-3.28Z" style="fill:#939393"/><path d="M64.57,325.19a1.53,1.53,0,0,1,.4,1.15v2.14h-.35v-2.11a1.29,1.29,0,0,0-.31-.94,1.15,1.15,0,0,0-.88-.33,1.34,1.34,0,0,0-1,.39,1.42,1.42,0,0,0-.37,1v2H61.7v-3.66H62v.79a1.46,1.46,0,0,1,.57-.61,1.76,1.76,0,0,1,.88-.21A1.46,1.46,0,0,1,64.57,325.19Z" style="fill:#939393"/><path d="M66.74,323.84a.29.29,0,0,1,.2-.49.28.28,0,0,1,.2.08.27.27,0,0,1,.09.2.29.29,0,0,1-.09.21.28.28,0,0,1-.2.08A.24.24,0,0,1,66.74,323.84Zm0,1h.36v3.66h-.36Z" style="fill:#939393"/><path d="M71.71,325a1.79,1.79,0,0,1,.65.66,2.07,2.07,0,0,1,.23,1,2,2,0,0,1-.23,1,1.79,1.79,0,0,1-.65.66,1.84,1.84,0,0,1-.93.24,1.75,1.75,0,0,1-.88-.23,1.64,1.64,0,0,1-.62-.66v.86H69v-5.21h.35v2.38a1.48,1.48,0,0,1,.61-.63,1.62,1.62,0,0,1,.87-.23A1.94,1.94,0,0,1,71.71,325Zm-.19,3a1.4,1.4,0,0,0,.53-.55,1.78,1.78,0,0,0,0-1.6,1.4,1.4,0,0,0-.53-.55,1.51,1.51,0,0,0-.76-.2,1.45,1.45,0,0,0-.75.2,1.4,1.4,0,0,0-.53.55,1.78,1.78,0,0,0,0,1.6A1.4,1.4,0,0,0,70,328a1.45,1.45,0,0,0,.75.2A1.51,1.51,0,0,0,71.52,328Z" style="fill:#939393"/><path d="M76.9,325.19a1.53,1.53,0,0,1,.4,1.15v2.14H77v-2.11a1.29,1.29,0,0,0-.31-.94,1.15,1.15,0,0,0-.87-.33,1.35,1.35,0,0,0-1,.39,1.42,1.42,0,0,0-.37,1v2H74v-5.21h.35v2.31a1.33,1.33,0,0,1,.56-.59,1.86,1.86,0,0,1,.87-.2A1.45,1.45,0,0,1,76.9,325.19Z" style="fill:#939393"/><path d="M84.34,326.73H81.19a1.54,1.54,0,0,0,.22.77A1.35,1.35,0,0,0,82,328a1.55,1.55,0,0,0,.78.19,1.76,1.76,0,0,0,.66-.13,1.25,1.25,0,0,0,.51-.39l.2.23a1.44,1.44,0,0,1-.6.45,2,2,0,0,1-.78.15,1.94,1.94,0,0,1-1-.24,1.7,1.7,0,0,1-.67-.66,2.08,2.08,0,0,1,0-1.92,1.71,1.71,0,0,1,.62-.66,1.73,1.73,0,0,1,.9-.24,1.76,1.76,0,0,1,.89.23,1.67,1.67,0,0,1,.63.66,2,2,0,0,1,.23,1Zm-2.43-1.46a1.28,1.28,0,0,0-.5.48,1.68,1.68,0,0,0-.21.71H84a1.37,1.37,0,0,0-.21-.7,1.43,1.43,0,0,0-1.88-.49Z" style="fill:#939393"/><path d="M89,324.82v3.66h-.34v-.78a1.42,1.42,0,0,1-.54.6,1.64,1.64,0,0,1-.84.21,1.51,1.51,0,0,1-1.12-.4,1.55,1.55,0,0,1-.41-1.15v-2.14h.35v2.11a1.29,1.29,0,0,0,.32.94,1.16,1.16,0,0,0,.89.33,1.25,1.25,0,0,0,1-.39,1.48,1.48,0,0,0,.37-1v-1.95Z" style="fill:#939393"/><path d="M90.79,323.84a.29.29,0,0,1,0-.4.29.29,0,0,1,.21-.09.3.3,0,0,1,.2.08.27.27,0,0,1,.09.2.29.29,0,0,1-.09.21.3.3,0,0,1-.2.08A.28.28,0,0,1,90.79,323.84Zm0,1h.35v3.66h-.35Z" style="fill:#939393"/><path d="M93.09,328.38a1.7,1.7,0,0,1-.63-.34l.16-.28a2,2,0,0,0,.58.32,2.34,2.34,0,0,0,.74.12,1.49,1.49,0,0,0,.82-.18.59.59,0,0,0,.26-.51.49.49,0,0,0-.14-.36.91.91,0,0,0-.36-.2,4.81,4.81,0,0,0-.58-.13,4.8,4.8,0,0,1-.7-.17,1,1,0,0,1-.45-.3.76.76,0,0,1-.19-.56.88.88,0,0,1,.36-.72,1.61,1.61,0,0,1,1-.28,2.37,2.37,0,0,1,.7.1,1.62,1.62,0,0,1,.56.26l-.16.28a1.73,1.73,0,0,0-.51-.25,2,2,0,0,0-.59-.08,1.27,1.27,0,0,0-.77.19.56.56,0,0,0-.26.49.53.53,0,0,0,.14.39.88.88,0,0,0,.37.2c.14.05.34.09.6.15a5.13,5.13,0,0,1,.69.16,1,1,0,0,1,.44.29.77.77,0,0,1,.18.54.84.84,0,0,1-.38.73,1.79,1.79,0,0,1-1.06.27A2.55,2.55,0,0,1,93.09,328.38Z" style="fill:#939393"/><path d="M102.33,325.19a1.57,1.57,0,0,1,.39,1.15v2.14h-.35v-2.11a1.33,1.33,0,0,0-.3-.94,1.08,1.08,0,0,0-.84-.33,1.26,1.26,0,0,0-1,.39,1.46,1.46,0,0,0-.36,1v2h-.35v-2.11a1.29,1.29,0,0,0-.31-.94,1.08,1.08,0,0,0-.84-.33,1.25,1.25,0,0,0-1,.39,1.46,1.46,0,0,0-.36,1v2H96.7v-3.66H97v.78a1.31,1.31,0,0,1,.54-.6,1.69,1.69,0,0,1,.86-.21,1.54,1.54,0,0,1,.85.22,1.23,1.23,0,0,1,.49.66,1.41,1.41,0,0,1,.57-.64,1.72,1.72,0,0,1,.91-.24A1.42,1.42,0,0,1,102.33,325.19Z" style="fill:#939393"/><path d="M105,328.27a1.79,1.79,0,0,1-.65-.66,2,2,0,0,1,0-1.92A1.79,1.79,0,0,1,105,325a2,2,0,0,1,1.88,0,1.79,1.79,0,0,1,.65.66,2,2,0,0,1,0,1.92,1.79,1.79,0,0,1-.65.66,2,2,0,0,1-1.88,0Zm1.69-.27a1.34,1.34,0,0,0,.53-.55,1.78,1.78,0,0,0,0-1.6,1.34,1.34,0,0,0-.53-.55,1.51,1.51,0,0,0-1.5,0,1.34,1.34,0,0,0-.53.55,1.78,1.78,0,0,0,0,1.6,1.34,1.34,0,0,0,.53.55,1.51,1.51,0,0,0,1.5,0Z" style="fill:#939393"/><path d="M112.47,323.27v5.21h-.34v-.86a1.62,1.62,0,0,1-.61.66,1.67,1.67,0,0,1-.89.23,1.84,1.84,0,0,1-.93-.24,1.79,1.79,0,0,1-.65-.66,2,2,0,0,1-.23-1,2.07,2.07,0,0,1,.23-1,1.79,1.79,0,0,1,.65-.66,1.94,1.94,0,0,1,.93-.23,1.65,1.65,0,0,1,.88.23,1.6,1.6,0,0,1,.61.65v-2.4ZM111.4,328a1.4,1.4,0,0,0,.53-.55,1.78,1.78,0,0,0,0-1.6,1.4,1.4,0,0,0-.53-.55,1.45,1.45,0,0,0-.75-.2,1.51,1.51,0,0,0-.76.2,1.38,1.38,0,0,0-.52.55,1.78,1.78,0,0,0,0,1.6,1.38,1.38,0,0,0,.52.55,1.51,1.51,0,0,0,.76.2A1.45,1.45,0,0,0,111.4,328Z" style="fill:#939393"/><path d="M118.27,328.25a.75.75,0,0,1-.34.19,1.14,1.14,0,0,1-.41.07,1,1,0,0,1-.74-.26,1,1,0,0,1-.26-.74v-2.39h-.67v-.3h.67V324h.35v.81H118v.3h-1.17v2.36a.73.73,0,0,0,.18.54.62.62,0,0,0,.5.19.84.84,0,0,0,.57-.2Z" style="fill:#939393"/><path d="M119.56,323.84a.29.29,0,0,1,0-.4.29.29,0,0,1,.21-.09.28.28,0,0,1,.2.08.27.27,0,0,1,.09.2.29.29,0,0,1-.09.21.3.3,0,0,1-.41,0Zm0,1h.35v3.66h-.35Z" style="fill:#939393"/><path d="M124.65,325.19a1.57,1.57,0,0,1,.4,1.15v2.14h-.35v-2.11a1.29,1.29,0,0,0-.32-.94,1.12,1.12,0,0,0-.87-.33,1.35,1.35,0,0,0-1,.39,1.47,1.47,0,0,0-.37,1v2h-.35v-3.66h.34v.79a1.43,1.43,0,0,1,.56-.61,1.8,1.8,0,0,1,.89-.21A1.46,1.46,0,0,1,124.65,325.19Z" style="fill:#939393"/><path d="M127.35,328.27a1.68,1.68,0,0,1-.66-.66,1.9,1.9,0,0,1-.24-1,2,2,0,0,1,.24-1,1.68,1.68,0,0,1,.66-.66,2,2,0,0,1,1-.23,1.77,1.77,0,0,1,.8.17,1.43,1.43,0,0,1,.59.5l-.26.19a1.29,1.29,0,0,0-.49-.41,1.5,1.5,0,0,0-.64-.14,1.52,1.52,0,0,0-.77.2,1.45,1.45,0,0,0-.53.54,1.82,1.82,0,0,0,0,1.62,1.45,1.45,0,0,0,.53.54,1.52,1.52,0,0,0,.77.2,1.5,1.5,0,0,0,.64-.14,1.29,1.29,0,0,0,.49-.41l.26.19a1.43,1.43,0,0,1-.59.5,1.91,1.91,0,0,1-.8.17A1.86,1.86,0,0,1,127.35,328.27Z" style="fill:#939393"/><path d="M131.06,323.84a.29.29,0,0,1,0-.4.27.27,0,0,1,.2-.09.32.32,0,0,1,.21.08.3.3,0,0,1,.08.2.27.27,0,0,1-.29.29A.26.26,0,0,1,131.06,323.84Zm0,1h.35v3.66h-.35Z" style="fill:#939393"/><path d="M136.52,323.27v5.21h-.34v-.86a1.62,1.62,0,0,1-.61.66,1.67,1.67,0,0,1-.89.23,1.84,1.84,0,0,1-.93-.24,1.79,1.79,0,0,1-.65-.66,2,2,0,0,1-.23-1,2.07,2.07,0,0,1,.23-1,1.79,1.79,0,0,1,.65-.66,1.94,1.94,0,0,1,.93-.23,1.65,1.65,0,0,1,.88.23,1.6,1.6,0,0,1,.61.65v-2.4ZM135.45,328a1.4,1.4,0,0,0,.53-.55,1.78,1.78,0,0,0,0-1.6,1.4,1.4,0,0,0-.53-.55,1.45,1.45,0,0,0-.75-.2,1.51,1.51,0,0,0-.76.2,1.38,1.38,0,0,0-.52.55,1.78,1.78,0,0,0,0,1.6,1.38,1.38,0,0,0,.52.55,1.51,1.51,0,0,0,.76.2A1.45,1.45,0,0,0,135.45,328Z" style="fill:#939393"/><path d="M141.55,324.82v3.66h-.33v-.78a1.42,1.42,0,0,1-.54.6,1.64,1.64,0,0,1-.84.21,1.39,1.39,0,0,1-1.53-1.55v-2.14h.35v2.11a1.29,1.29,0,0,0,.31.94,1.18,1.18,0,0,0,.89.33,1.26,1.26,0,0,0,1-.39,1.48,1.48,0,0,0,.36-1v-1.95Z" style="fill:#939393"/><path d="M146.26,325.19a1.53,1.53,0,0,1,.4,1.15v2.14h-.35v-2.11a1.29,1.29,0,0,0-.31-.94,1.15,1.15,0,0,0-.87-.33,1.35,1.35,0,0,0-1,.39,1.42,1.42,0,0,0-.37,1v2h-.35v-3.66h.34v.79a1.38,1.38,0,0,1,.56-.61,1.8,1.8,0,0,1,.89-.21A1.43,1.43,0,0,1,146.26,325.19Z" style="fill:#939393"/><path d="M150.27,328.25a.78.78,0,0,1-.33.19,1.16,1.16,0,0,1-.42.07,1,1,0,0,1-.73-.26,1,1,0,0,1-.26-.74v-2.39h-.67v-.3h.67V324h.35v.81H150v.3h-1.16v2.36a.78.78,0,0,0,.17.54.64.64,0,0,0,.51.19.84.84,0,0,0,.57-.2Z" style="fill:#939393"/><g style="clip-path:url(#b)"><g style="opacity:0.29"><g style="opacity:0.25;mix-blend-mode:multiply"><path d="M99.59,257.47c-4.5-11.72-5.77-24.17,7.24-30,9.7-4.3,17.71.86,27.56,2.43,11.17,1.78,22.51-1.13,30.8-9.07,15.76-15.1,14-47.89-9.34-54.23-5.83-1.58-12.1,5.38-8.32,10.85,4.57,6.6,11.91,13.58,9.87,22.52-3.07,13.44-17.81,12.75-28,10.44-11.49-2.62-22-4.48-32.84,1.63C78.28,222.42,72.54,249.17,90.09,263c3.88,3.05,11.79.42,9.5-5.54Z" style="fill:#3d3d3d"/></g><path d="M98,255.91c-4.5-11.71-5.77-24.17,7.25-29.95,9.69-4.31,17.7.85,27.55,2.42,11.17,1.78,22.51-1.13,30.8-9.07,15.76-15.09,14-47.89-9.34-54.22-5.83-1.59-12.1,5.37-8.31,10.84,4.56,6.6,11.9,13.59,9.86,22.52-3.07,13.44-17.8,12.76-27.95,10.44-11.5-2.62-22-4.47-32.85,1.64-18.32,10.33-24.06,37.08-6.5,50.92,3.87,3.06,11.78.43,9.49-5.54Z" style="fill:#e3707f"/></g><g style="opacity:0.25;mix-blend-mode:multiply"><rect x="75.39" y="91.27" width="121.51" height="90.59" rx="3.89" style="fill:#3d3d3d"/><rect x="108.1" y="113.92" width="14.8" height="44.51" rx="1.56" style="fill:#3d3d3d"/><rect x="89.41" y="113.92" width="14.8" height="44.51" rx="1.56" style="fill:#3d3d3d"/><rect x="89.41" y="131.88" width="14.8" height="26.55" rx="1.56" style="fill:#3d3d3d;opacity:0.72"/><rect x="108.1" y="145.16" width="14.8" height="13.28" rx="1.56" style="fill:#3d3d3d;opacity:0.72"/><rect x="126.8" y="113.92" width="14.8" height="44.51" rx="1.56" style="fill:#3d3d3d"/><rect x="145.49" y="113.92" width="14.8" height="44.51" rx="1.56" style="fill:#3d3d3d"/><rect x="164.18" y="113.92" width="14.8" height="44.51" rx="1.56" style="fill:#3d3d3d"/><rect x="126.8" y="135.79" width="14.8" height="22.65" rx="1.56" style="fill:#3d3d3d;opacity:0.72"/><rect x="145.49" y="148.28" width="14.8" height="10.15" rx="1.56" style="fill:#3d3d3d;opacity:0.72"/><rect x="164.18" y="135.79" width="14.8" height="22.65" rx="1.56" style="fill:#3d3d3d;opacity:0.72"/><rect x="89.41" y="164.68" width="89.58" height="2.34" style="fill:#3d3d3d"/><rect x="89.41" y="169.37" width="48.29" height="2.34" style="fill:#3d3d3d"/><rect x="89.41" y="102.99" width="18.69" height="2.34" style="fill:#3d3d3d"/></g><rect x="72.27" y="88.16" width="121.51" height="90.59" rx="3.89" style="fill:#fff"/><rect x="104.99" y="110.81" width="14.8" height="44.51" rx="1.56" style="fill:#f3f9ff"/><rect x="86.29" y="110.81" width="14.8" height="44.51" rx="1.56" style="fill:#f3f9ff"/><rect x="86.29" y="128.77" width="14.8" height="26.55" rx="1.56" style="opacity:0.72;fill:url(#c)"/><rect x="104.99" y="142.04" width="14.8" height="13.28" rx="1.56" style="opacity:0.72;fill:url(#d)"/><rect x="123.68" y="110.81" width="14.8" height="44.51" rx="1.56" style="fill:#f3f9ff"/><rect x="142.38" y="110.81" width="14.8" height="44.51" rx="1.56" style="fill:#f3f9ff"/><rect x="161.07" y="110.81" width="14.8" height="44.51" rx="1.56" style="fill:#f3f9ff"/><rect x="123.68" y="132.67" width="14.8" height="22.65" rx="1.56" style="opacity:0.72;fill:url(#e)"/><rect x="142.38" y="145.17" width="14.8" height="10.15" rx="1.56" style="opacity:0.72;fill:url(#f)"/><rect x="161.07" y="132.67" width="14.8" height="22.65" rx="1.56" style="opacity:0.72;fill:url(#g)"/><rect x="86.29" y="161.57" width="89.58" height="2.34" style="fill:#f3f9ff"/><rect x="86.29" y="166.25" width="48.29" height="2.34" style="fill:#f3f9ff"/><rect x="86.29" y="99.87" width="18.69" height="2.34" style="fill:#e9998f"/><g style="opacity:0.36"><g style="opacity:0.25;mix-blend-mode:multiply"><path d="M39.18-7.72C14-4.09-3.32,18.92,6.48,44.47c9.15,23.86,40.33,35.22,62.19,21.64C88.93,53.53,95.28,23.7,81.31,4.24,67.8-14.58,33.89-21.35,18.63-1.32,13.82,5,21.79,14.31,28.81,12c12.32-4.12,23.86-9.43,35.31.74,10.69,9.51,8,27.74-2.74,36.26C50,58,31.52,52.69,24.64,40.39,17,26.8,26.71,3.8,40.77-2a3,3,0,0,0-1.59-5.76Z" style="fill:#3d3d3d"/></g><path d="M37.63-9.28C12.44-5.65-4.88,17.36,4.92,42.92c9.15,23.85,40.33,35.21,62.19,21.63C87.37,52,93.72,22.15,79.75,2.69c-13.5-18.82-47.41-25.6-62.68-5.56C12.26,3.44,20.23,12.75,27.25,10.4,39.57,6.28,51.12,1,62.56,11.14c10.69,9.51,8,27.74-2.74,36.26C48.42,56.45,30,51.13,23.08,38.83,15.48,25.24,25.15,2.24,39.21-3.51a3,3,0,0,0-1.58-5.77Z" style="fill:#8aa9fc"/></g><g style="opacity:0.25;mix-blend-mode:multiply"><path d="M127,107.37s3.86-9.73,4.44-8.81-.46,2.26-.24,4.62c0,0,7.12-8.58,7.49-7.58s-4,6.78-3.92,6.91,5.27-5.94,5.82-5.27-4.29,6.31-4.29,6.31,4.89-4.88,5.52-4.19-3.89,5.19-3.89,5.19,3.81-3.74,4.37-3.1c.34.38-9.31,12.45-9,12.71s-6.26-6.79-6.26-6.79" style="fill:#3d3d3d"/><path d="M45.47,224.66c.4,2.52,4.82,86.23,10,140.63H76.11s-10.2-125.53-7.78-125.74c2.78-.24,26.3,125.74,26.3,125.74h19.69L84.35,221Z" style="fill:#3d3d3d"/><path d="M127.88,104.83S110.5,125.63,101,134.4,72.2,154.56,72.2,154.56l0,0c-4.51.89-7.51,1.77-9.56,2.32-6.34,1.71-7.74,1.92-12.11,3.64a37.23,37.23,0,0,0-19,16.4c-6,10.7-13.69,27.56-12.46,42.47,1.34,16.08,14.91,11.26,24.77,5.47,0,.42.06.65.06.65H86.22V176.78s0-.48-.06-1.3l.06.09s15.37-18.64,22.6-25.87C121.13,137.38,135,113.94,135,113.94ZM38,208.46l4.83-19.77c.32,3.41-1.36,14.89-1,18.08Z" style="fill:#3d3d3d"/><path d="M56.84,158.35s-2.76,12.82,1.11,11,6.74-3.55,6.74-3.55,3.85,4.74,5.71,1.85-1.77-12.33-1.77-12.33Z" style="fill:#3d3d3d"/><path d="M53.61,129.81l.88,11.7s-4.39.6-3.14,4.61,4.26,2.26,4.26,2.26.75,10.29,11.27,7,7-19.58,6-29.37Z" style="fill:#3d3d3d"/><path d="M54.49,145.81,57.33,161a6.06,6.06,0,0,0,7.36,4.79h0a6.09,6.09,0,0,0,4.56-7l-1.54-8.68Z" style="fill:#3d3d3d"/><path d="M56,214a3,3,0,0,1-.43.6c-.3.37-.74.88-1.31,1.51a52.3,52.3,0,0,1-4.78,4.55,49.37,49.37,0,0,1-5.33,3.88c-.71.45-1.3.8-1.72,1a3.36,3.36,0,0,1-.66.32A24.7,24.7,0,0,1,44,224.33c1.39-1,3.27-2.32,5.24-4s3.64-3.25,4.82-4.44S56,214,56,214Z" style="fill:#3d3d3d"/><path d="M34.85,213.51a12,12,0,0,1,1.31-2.68,12.13,12.13,0,0,1,1.65-2.5A11.74,11.74,0,0,1,36.49,211,12.45,12.45,0,0,1,34.85,213.51Z" style="fill:#3d3d3d"/><path d="M37.71,208.72a6.63,6.63,0,0,1,1.09-.57l3-1.43c2.54-1.21,6-2.9,9.88-4.85l1.86-1,.23-.12,0,.27c.55,3.78,1,7.12,1.34,9.53.15,1.15.27,2.1.36,2.83a4.77,4.77,0,0,1,.08,1,6.77,6.77,0,0,1-.22-1l-.47-2.81c-.38-2.4-.9-5.74-1.46-9.52l.27.14-1.86,1c-3.84,1.95-7.37,3.61-9.94,4.75-1.29.58-2.34,1-3.07,1.33A8.14,8.14,0,0,1,37.71,208.72Z" style="fill:#3d3d3d"/><path d="M38,208.19a13.21,13.21,0,0,1-2.21,2.14,12.36,12.36,0,0,1-2.45,1.85,12.48,12.48,0,0,1,2.2-2.14A12.1,12.1,0,0,1,38,208.19Z" style="fill:#3d3d3d"/><path d="M66.21,225.72c-.1,0-.57-13-1-29s-.77-29-.66-29,.57,12.95,1,28.95S66.32,225.72,66.21,225.72Z" style="fill:#3d3d3d"/><path d="M54.22,203.71s8.49-6.09,8.49-5-1.61,1.65-2.7,3.76c0,0,10.62-3.37,10.39-2.33s-7,3.53-7,3.69,7.64-2.14,7.73-1.28-7,3-7,3,6.75-1.45,6.91-.53-6.07,2.26-6.07,2.26,5.22-1.08,5.35-.24c.08.5-14.54,5.44-14.46,5.8.05.19-1.61-9.11-1.61-9.11" style="fill:#3d3d3d"/><path d="M133.25,116.3a45.07,45.07,0,0,1-4.35-4,45.76,45.76,0,0,1-4.08-4.32,48.41,48.41,0,0,1,4.35,4A45.6,45.6,0,0,1,133.25,116.3Z" style="fill:#3d3d3d"/><path d="M66.18,146s.11.13.35.18a.91.91,0,0,0,.89-.37,2.33,2.33,0,0,0,.19-1.56c-.06-.66-.13-1.35-.2-2.08-.13-1.49-.23-2.83-.28-3.81a7,7,0,0,1,0-1.58,5.81,5.81,0,0,1,.28,1.56c.12,1,.26,2.31.39,3.79.06.73.11,1.43.17,2.09a2.48,2.48,0,0,1-.32,1.75,1.05,1.05,0,0,1-1.16.35C66.19,146.18,66.16,146,66.18,146Z" style="fill:#3d3d3d"/><path d="M70,154a3.91,3.91,0,0,1-1.27.94,8.12,8.12,0,0,1-3.7,1,8.22,8.22,0,0,1-3.74-.82,3.73,3.73,0,0,1-1.3-.89s.53.28,1.41.64a8.85,8.85,0,0,0,7.2-.15C69.45,154.32,69.94,154,70,154Z" style="fill:#3d3d3d"/><path d="M67.48,148.11s-.12.34-.58.64a2.45,2.45,0,0,1-2.07.27,2.5,2.5,0,0,1-1.53-1.43c-.2-.52-.14-.86-.1-.86s.11.31.35.74a2.5,2.5,0,0,0,1.39,1.19,2.56,2.56,0,0,0,1.83-.15C67.21,148.3,67.44,148.06,67.48,148.11Z" style="fill:#3d3d3d"/><path d="M63.72,146.53c0,.11-.4.19-.78.5s-.57.66-.68.63,0-.56.45-.94S63.73,146.42,63.72,146.53Z" style="fill:#3d3d3d"/><path d="M54.16,146.62s-.25.14-.68,0a.91.91,0,0,1-.56-.56.76.76,0,0,1,0-.52.66.66,0,0,1,.4-.43.63.63,0,0,1,.78.23l-.33.17a4.57,4.57,0,0,1-.47-1.51c.08,0,.42.54.81,1.36l-.33.17a.28.28,0,0,0-.33-.06.37.37,0,0,0-.18.48.72.72,0,0,0,.35.43C53.91,146.54,54.17,146.56,54.16,146.62Z" style="fill:#3d3d3d"/><path d="M71.11,139.36c-.1,0-.26-.33-.37-.79s-.1-.84,0-.87.27.33.37.79S71.22,139.34,71.11,139.36Z" style="fill:#3d3d3d"/><path d="M62.8,140.19c-.1,0-.28-.32-.41-.78s-.15-.85,0-.88.29.32.42.78S62.9,140.16,62.8,140.19Z" style="fill:#3d3d3d"/><path d="M53.54,141.77a29.66,29.66,0,0,1-2.11-9.43,11,11,0,0,1,.2-4.08,4.64,4.64,0,0,1,2.51-3.07c1.8-.76,4,0,5.79-.63a6.45,6.45,0,0,0,2.37-1.79,16.34,16.34,0,0,1,2.11-2.13,3.65,3.65,0,0,1,2.8-.81A2.11,2.11,0,0,1,69,121.94a5.26,5.26,0,0,1,4.73-2.68,5.19,5.19,0,0,1,3.82,8.45c-1.13,1.39-3.2,1.46-4.59,2.57-2.94,2.35-7.56,2.83-12.2,1.77-2-.46-4.43.32-4.83,2.35a35.26,35.26,0,0,0,0,4.48,3.73,3.73,0,0,1-.41,2.22,1.57,1.57,0,0,1-2,.67" style="fill:#3d3d3d"/><path d="M62.26,136.42c-.1.3-.54.44-1,.56s-.9.21-1.13,0-.12-.31,0-.54a1.4,1.4,0,0,1,.81-.55,1.37,1.37,0,0,1,1,.08C62.2,136.09,62.3,136.27,62.26,136.42Z" style="fill:#3d3d3d"/><path d="M71.35,135c-.13.3-.64.36-1.18.41s-1,.07-1.22-.2.27-.86,1.13-.94S71.49,134.7,71.35,135Z" style="fill:#3d3d3d"/><path d="M52.53,217.36a67.62,67.62,0,0,1-1.69-7.08,71.83,71.83,0,0,1-1.32-7.16,66.84,66.84,0,0,1,1.69,7.08A71.27,71.27,0,0,1,52.53,217.36Z" style="fill:#3d3d3d"/><path d="M52.07,204.61c0,.09-.29.32-.74.51s-.85.25-.89.15.29-.32.74-.51S52,204.51,52.07,204.61Z" style="fill:#3d3d3d"/><path d="M79.52,179.18a23.27,23.27,0,0,1-4,.93,22.9,22.9,0,0,1-4.12.55,22,22,0,0,1,4.05-.93A22.9,22.9,0,0,1,79.52,179.18Z" style="fill:#3d3d3d"/><path d="M40,167.43a.94.94,0,0,1,.25,0,5.66,5.66,0,0,1,.68.25,8,8,0,0,1,2.23,1.51,9.68,9.68,0,0,1,2.22,3.32,12,12,0,0,1,.85,4.81,22.51,22.51,0,0,1-2.17,8.55c-.46,1-.87,1.85-1.15,2.41a5.94,5.94,0,0,1-.48.86,4.23,4.23,0,0,1,.34-.92c.28-.65.62-1.47,1-2.46a24,24,0,0,0,2-8.44,12.43,12.43,0,0,0-.79-4.68A9.28,9.28,0,0,0,40,167.43Z" style="fill:#3d3d3d"/><path d="M65.14,360s0-.12-.06-.34l-.12-1c-.1-.91-.25-2.22-.44-3.9-.37-3.39-.87-8.29-1.45-14.36-1.17-12.13-2.6-28.91-3.83-47.46s-2-35.39-2.47-47.57c-.22-6.09-.37-11-.45-14.42,0-1.69-.06-3-.08-3.93,0-.43,0-.77,0-1s0-.34,0-.34a2.82,2.82,0,0,1,0,.34c0,.25,0,.59.05,1,0,.92.09,2.23.16,3.92.13,3.43.33,8.35.57,14.42.51,12.18,1.35,29,2.58,47.55s2.61,35.33,3.72,47.47c.56,6.05,1,11,1.33,14.37.16,1.68.28,3,.37,3.9,0,.44.06.78.08,1S65.14,360,65.14,360Z" style="fill:#3d3d3d"/><path d="M75.5,359.19c0,.11-4.56.53-10.19,1s-10.22.68-10.23.57,4.56-.53,10.2-1S75.49,359.09,75.5,359.19Z" style="fill:#3d3d3d"/><path d="M102.46,360.72s0-.11-.08-.34-.13-.59-.22-1c-.19-.92-.45-2.25-.8-3.94-.68-3.43-1.64-8.39-2.77-14.53-2.3-12.27-5.27-29.26-8.66-48S83.22,257.21,80.61,245c-.64-3.06-1.27-5.81-1.79-8.23s-1-4.51-1.4-6.21-.68-3-.88-3.92c-.1-.43-.17-.77-.23-1l-.06-.35s0,.11.1.34.15.58.26,1c.22.9.54,2.22,1,3.9s.91,3.77,1.45,6.19,1.2,5.17,1.85,8.22c2.68,12.2,6,29.12,9.43,47.87l8.55,48,2.66,14.55c.31,1.7.55,3,.72,3.95.08.44.14.78.18,1S102.46,360.72,102.46,360.72Z" style="fill:#3d3d3d"/><path d="M114.07,360.93c0,.11-4.47.18-10,.18s-10-.1-10-.21,4.46-.18,10-.17S114.07,360.82,114.07,360.93Z" style="fill:#3d3d3d"/><path d="M52,226a4.44,4.44,0,0,1,.43,1.8,7.77,7.77,0,0,1-1,4.36,7.69,7.69,0,0,1-3.26,3.06,4.13,4.13,0,0,1-1.77.53c0-.06.67-.22,1.64-.77a7.92,7.92,0,0,0,4.1-7.16C52.17,226.7,52,226,52,226Z" style="fill:#3d3d3d"/><path d="M70.73,237.74a.9.9,0,0,1-.34.56,1.85,1.85,0,0,1-1.71.41,1.56,1.56,0,0,1-1-.77,3.91,3.91,0,0,1-.41-1.36c-.15-1-.31-2-.49-3.12-.33-2.21-.61-4.21-.8-5.66a15.67,15.67,0,0,1-.22-2.37,14.54,14.54,0,0,1,.49,2.33c.25,1.44.58,3.44.91,5.65.16,1.1.32,2.14.46,3.11a3.64,3.64,0,0,0,.33,1.27,1.33,1.33,0,0,0,.81.66,1.8,1.8,0,0,0,1.55-.26C70.61,238,70.69,237.72,70.73,237.74Z" style="fill:#3d3d3d"/><path d="M87.12,233.73a1.35,1.35,0,0,1-.47,0,5.18,5.18,0,0,1-1.25-.21,7.69,7.69,0,0,1-1.74-.71,8.87,8.87,0,0,1-1.85-1.39,9.34,9.34,0,0,1-1.4-1.84,8.06,8.06,0,0,1-.72-1.74,5.18,5.18,0,0,1-.21-1.25c0-.3,0-.47,0-.47s.12.65.45,1.64a8.77,8.77,0,0,0,.77,1.65,10.05,10.05,0,0,0,1.36,1.74,10.5,10.5,0,0,0,1.75,1.36,9.34,9.34,0,0,0,1.65.76C86.47,233.61,87.12,233.66,87.12,233.73Z" style="fill:#3d3d3d"/><path d="M59.21,365.29s19.59,3.34,18.65,2.26a14.37,14.37,0,0,0-3.22-2.26Z" style="fill:#3d3d3d"/><path d="M97.46,365.29s19.59,3.34,18.65,2.26a14.37,14.37,0,0,0-3.22-2.26Z" style="fill:#3d3d3d"/></g><path d="M123.86,104.25s3.86-9.72,4.44-8.81-.46,2.26-.24,4.63c0,0,7.11-8.58,7.49-7.59s-4,6.78-3.93,6.91,5.27-5.94,5.82-5.26-4.29,6.3-4.29,6.3,4.9-4.88,5.52-4.19-3.88,5.2-3.88,5.2,3.81-3.74,4.36-3.11c.34.38-9.3,12.46-9,12.72s-6.26-6.8-6.26-6.8" style="fill:#f9b9b4"/><path d="M42.35,221.55c.4,2.51,4.82,86.23,10,140.62H73S62.8,236.65,65.21,236.44c2.79-.24,26.3,125.73,26.3,125.73H111.2l-30-144.27Z" style="fill:#251a51"/><path d="M124.76,101.71s-17.37,20.8-26.88,29.57-28.79,20.16-28.79,20.16l0,0c-4.52.88-7.52,1.77-9.56,2.32-6.34,1.71-7.75,1.92-12.12,3.63a37.41,37.41,0,0,0-19,16.4c-6,10.7-13.69,27.57-12.45,42.48,1.33,16.07,14.9,11.26,24.77,5.46l.06.66H83.11V173.67s0-.49-.06-1.31l.06.09s15.36-18.63,22.59-25.87c12.32-12.32,26.22-35.76,26.22-35.76ZM34.88,205.35l4.84-19.77c.32,3.4-1.36,14.88-1.06,18.07Z" style="fill:url(#h)"/><path d="M53.72,155.24S51,168.05,54.83,166.19s6.74-3.56,6.74-3.56,3.85,4.74,5.71,1.85-1.77-12.32-1.77-12.32Z" style="fill:#f4d3b9"/><path d="M50.49,126.69l.89,11.71S47,139,48.24,143s4.25,2.25,4.25,2.25.76,10.29,11.27,7,7-19.57,6-29.36Z" style="fill:#f9b9b4"/><path d="M51.38,142.69l2.83,15.15a6.06,6.06,0,0,0,7.36,4.79h0a6.07,6.07,0,0,0,4.56-7L64.6,147Z" style="fill:#f9b9b4"/><g style="opacity:0.36"><path d="M52.9,210.89a2.51,2.51,0,0,1-.43.6c-.29.37-.74.89-1.31,1.51a49.71,49.71,0,0,1-4.78,4.55,51.09,51.09,0,0,1-5.32,3.89c-.72.44-1.31.79-1.72,1a2.7,2.7,0,0,1-.67.32,26.81,26.81,0,0,1,2.24-1.56c1.38-1,3.26-2.31,5.23-4S49.79,214,51,212.81,52.86,210.85,52.9,210.89Z" style="fill:#251a51"/></g><g style="opacity:0.36"><path d="M31.73,210.39a12,12,0,0,1,1.32-2.68,11.64,11.64,0,0,1,1.64-2.49,12.22,12.22,0,0,1-1.31,2.68A11.88,11.88,0,0,1,31.73,210.39Z" style="fill:#251a51"/></g><g style="opacity:0.36"><path d="M34.6,205.6a7.81,7.81,0,0,1,1.09-.56l3-1.44c2.55-1.21,6-2.9,9.89-4.84l1.85-.95.24-.12,0,.26c.55,3.78,1,7.13,1.33,9.53.15,1.16.27,2.11.36,2.84a6.49,6.49,0,0,1,.09,1,5,5,0,0,1-.22-1l-.47-2.82c-.39-2.39-.9-5.73-1.47-9.52l.28.14-1.86,1c-3.84,2-7.37,3.6-9.95,4.75-1.29.57-2.34,1-3.06,1.32A6.79,6.79,0,0,1,34.6,205.6Z" style="fill:#251a51"/></g><g style="opacity:0.36"><path d="M34.88,205.07a12.48,12.48,0,0,1-2.2,2.14,12.57,12.57,0,0,1-2.46,1.85,12.78,12.78,0,0,1,2.21-2.14A12.36,12.36,0,0,1,34.88,205.07Z" style="fill:#251a51"/></g><g style="opacity:0.36"><path d="M63.1,222.6c-.11,0-.57-13-1.05-28.95s-.76-29-.66-29,.57,13,1,29S63.2,222.6,63.1,222.6Z" style="fill:#251a51"/></g><path d="M51.11,200.6s8.48-6.09,8.48-5-1.6,1.65-2.69,3.76c0,0,10.61-3.37,10.39-2.33s-7,3.53-7,3.7,7.64-2.15,7.73-1.29-7,3-7,3,6.75-1.46,6.9-.54-6.07,2.27-6.07,2.27,5.23-1.08,5.35-.25c.08.51-14.54,5.44-14.45,5.81,0,.19-1.61-9.11-1.61-9.11" style="fill:#f9b9b4"/><g style="opacity:0.36"><path d="M130.14,113.19a46.87,46.87,0,0,1-4.35-4,48.3,48.3,0,0,1-4.09-4.32,43.91,43.91,0,0,1,4.35,4.05A46.76,46.76,0,0,1,130.14,113.19Z" style="fill:#251a51"/></g><path d="M63.06,142.87s.11.12.35.17a.92.92,0,0,0,.9-.36,2.33,2.33,0,0,0,.18-1.56c-.06-.66-.13-1.36-.2-2.09-.13-1.48-.22-2.83-.28-3.8a6.69,6.69,0,0,1,0-1.59,7,7,0,0,1,.27,1.56c.12,1,.26,2.31.39,3.8.06.73.12,1.43.17,2.09a2.44,2.44,0,0,1-.32,1.75,1.06,1.06,0,0,1-1.15.35C63.08,143.06,63,142.86,63.06,142.87Z" style="fill:#251a51"/><path d="M66.86,150.9a3.86,3.86,0,0,1-1.27.95,8.25,8.25,0,0,1-3.7,1,8.05,8.05,0,0,1-3.73-.82,3.57,3.57,0,0,1-1.31-.89c0-.05.53.29,1.42.65a9,9,0,0,0,7.2-.15C66.34,151.21,66.82,150.85,66.86,150.9Z" style="fill:#251a51"/><path d="M64.36,145s-.11.34-.58.64a2.42,2.42,0,0,1-3.59-1.16c-.2-.51-.14-.86-.1-.86s.1.32.34.75a2.57,2.57,0,0,0,1.4,1.19,2.54,2.54,0,0,0,1.82-.15C64.1,145.19,64.32,145,64.36,145Z" style="fill:#251a51"/><path d="M60.6,143.41c0,.11-.4.2-.78.5s-.57.66-.67.63,0-.55.44-.93S60.62,143.31,60.6,143.41Z" style="fill:#251a51"/><path d="M51.05,143.51s-.26.13-.68,0a1,1,0,0,1-.57-.57.8.8,0,0,1,0-.51.66.66,0,0,1,.4-.43.62.62,0,0,1,.78.23l-.32.16a4,4,0,0,1-.47-1.51,4.19,4.19,0,0,1,.8,1.37l-.32.16a.3.3,0,0,0-.33-.06.37.37,0,0,0-.19.48.76.76,0,0,0,.35.43C50.79,143.43,51.05,143.45,51.05,143.51Z" style="fill:#251a51"/><path d="M68,136.24c-.1,0-.27-.33-.37-.78s-.11-.85,0-.87.26.32.37.78S68.1,136.22,68,136.24Z" style="fill:#251a51"/><path d="M59.69,137.07c-.1,0-.29-.32-.42-.78s-.14-.85,0-.88.28.32.41.78S59.79,137.05,59.69,137.07Z" style="fill:#251a51"/><path d="M50.42,138.66a29.77,29.77,0,0,1-2.1-9.44,10.76,10.76,0,0,1,.19-4.08A4.71,4.71,0,0,1,51,122.07c1.81-.75,4,.05,5.79-.63a6.38,6.38,0,0,0,2.38-1.78,17.07,17.07,0,0,1,2.11-2.14,3.64,3.64,0,0,1,2.8-.81,2.09,2.09,0,0,1,1.74,2.11,5.18,5.18,0,1,1,8.55,5.77c-1.12,1.39-3.2,1.46-4.59,2.58-2.94,2.34-7.56,2.83-12.2,1.76-2-.46-4.42.33-4.83,2.36a35.27,35.27,0,0,0,0,4.48,3.71,3.71,0,0,1-.41,2.21,1.59,1.59,0,0,1-2,.68" style="fill:#251a51"/><path d="M59.14,133.3c-.1.31-.53.44-1,.57s-.89.2-1.13,0-.11-.32,0-.54a1.44,1.44,0,0,1,1.79-.47C59.09,133,59.18,133.15,59.14,133.3Z" style="fill:#251a51"/><path d="M68.23,131.86c-.13.29-.64.35-1.17.41s-1,.06-1.23-.2.28-.87,1.13-.94S68.37,131.58,68.23,131.86Z" style="fill:#251a51"/><g style="opacity:0.36"><path d="M49.41,214.25a70.58,70.58,0,0,1-1.69-7.09A66.31,66.31,0,0,1,46.41,200a72.6,72.6,0,0,1,1.68,7.08A71.16,71.16,0,0,1,49.41,214.25Z" style="fill:#251a51"/></g><g style="opacity:0.36"><path d="M49,201.49c0,.1-.29.33-.74.51s-.85.26-.89.16.3-.33.75-.51S48.91,201.39,49,201.49Z" style="fill:#251a51"/></g><g style="opacity:0.36"><path d="M76.4,176.07a23.55,23.55,0,0,1-4.05.92,21.87,21.87,0,0,1-4.12.55,22.76,22.76,0,0,1,4-.92A22,22,0,0,1,76.4,176.07Z" style="fill:#251a51"/></g><g style="opacity:0.36"><path d="M36.88,164.32a.6.6,0,0,1,.25.05,4.74,4.74,0,0,1,.69.25A7.75,7.75,0,0,1,40,166.13a9.89,9.89,0,0,1,2.23,3.31,12.21,12.21,0,0,1,.84,4.82,22.22,22.22,0,0,1-2.17,8.54c-.46,1-.86,1.85-1.15,2.42a5.4,5.4,0,0,1-.48.85,5,5,0,0,1,.35-.92l1-2.45a23.68,23.68,0,0,0,2-8.45,12,12,0,0,0-.79-4.68,9.81,9.81,0,0,0-2.09-3.25A10,10,0,0,0,36.88,164.32Z" style="fill:#251a51"/></g><path d="M62,356.85s0-.11-.05-.34-.07-.58-.13-1c-.1-.91-.24-2.22-.43-3.9-.38-3.39-.88-8.3-1.46-14.36-1.17-12.14-2.59-28.91-3.83-47.47s-2-35.38-2.47-47.56c-.22-6.09-.37-11-.45-14.43,0-1.69-.06-3-.08-3.92,0-.44,0-.78,0-1s0-.35,0-.35l0,.35c0,.24,0,.58.05,1,0,.91.09,2.23.15,3.92.14,3.42.33,8.34.57,14.42.51,12.17,1.35,29,2.58,47.55s2.62,35.33,3.72,47.46c.56,6.06,1,11,1.34,14.37.15,1.68.28,3,.36,3.91q.06.64.09,1C62,356.73,62,356.85,62,356.85Z" style="fill:#4a4182"/><path d="M72.38,356.07c0,.11-4.55.54-10.19,1s-10.21.68-10.22.58,4.55-.53,10.19-1S72.37,356,72.38,356.07Z" style="fill:#4a4182"/><path d="M99.35,357.61s0-.12-.09-.35-.12-.58-.22-1c-.18-.92-.45-2.24-.79-3.94-.69-3.42-1.64-8.39-2.78-14.52-2.29-12.28-5.26-29.27-8.66-48s-6.71-35.67-9.32-47.88c-.63-3-1.26-5.81-1.79-8.23s-1-4.5-1.39-6.2-.68-3-.89-3.92c-.09-.44-.17-.78-.22-1a3.36,3.36,0,0,1-.06-.36s0,.12.1.35.14.58.25,1c.23.91.55,2.22,1,3.9s.91,3.78,1.46,6.2,1.19,5.16,1.84,8.22c2.68,12.19,6,29.11,9.44,47.86s6.35,35.72,8.54,48l2.66,14.54c.31,1.71.56,3,.73,4,.08.44.13.78.18,1S99.35,357.61,99.35,357.61Z" style="fill:#4a4182"/><path d="M111,357.81c0,.11-4.46.19-10,.18s-10-.1-10-.2,4.47-.19,10-.18S111,357.71,111,357.81Z" style="fill:#4a4182"/><path d="M48.91,222.88a4.33,4.33,0,0,1,.43,1.81,7.59,7.59,0,0,1-4.24,7.41,4,4,0,0,1-1.77.54c0-.07.67-.23,1.65-.78a8.08,8.08,0,0,0,3.05-3,8.19,8.19,0,0,0,1-4.16C49.05,223.58,48.85,222.9,48.91,222.88Z" style="fill:#4a4182"/><path d="M67.61,234.63s0,.25-.33.56a1.89,1.89,0,0,1-1.72.41,1.58,1.58,0,0,1-1-.77,4,4,0,0,1-.4-1.37c-.16-1-.32-2-.49-3.11-.34-2.21-.62-4.22-.8-5.67a12.83,12.83,0,0,1-.22-2.36,15,15,0,0,1,.48,2.32c.26,1.44.58,3.44.92,5.65l.45,3.12a3.88,3.88,0,0,0,.34,1.26,1.3,1.3,0,0,0,.81.67,1.74,1.74,0,0,0,1.54-.27C67.49,234.83,67.58,234.61,67.61,234.63Z" style="fill:#4a4182"/><path d="M84,230.61s-.16,0-.46,0a5.61,5.61,0,0,1-1.25-.2,7.75,7.75,0,0,1-1.75-.71,9.89,9.89,0,0,1-1.84-1.39,9.15,9.15,0,0,1-1.4-1.84,7.38,7.38,0,0,1-.72-1.75,5.87,5.87,0,0,1-.22-1.25,1.27,1.27,0,0,1,0-.46c.07,0,.12.65.45,1.63a8.82,8.82,0,0,0,.77,1.65A10.08,10.08,0,0,0,79,228.06a9.57,9.57,0,0,0,1.75,1.35,8.73,8.73,0,0,0,1.65.76C83.35,230.5,84,230.54,84,230.61Z" style="fill:#4a4182"/><path d="M56.1,362.17s19.58,3.34,18.64,2.27a14,14,0,0,0-3.22-2.27Z" style="fill:#171330"/><path d="M94.34,362.17s19.59,3.34,18.65,2.27a14.18,14.18,0,0,0-3.22-2.27Z" style="fill:#171330"/></g><path d="M47.14,5.9v5.63A11.36,11.36,0,0,0,58.49,22.91h79.56A11.36,11.36,0,0,0,149.4,11.53V3.47Z" style="fill:url(#i)"/><path d="M70.68,281.12v-3.63l-1.79,3h-.46l-1.79-2.95v3.58h-1v-5.47h.83l2.17,3.63,2.12-3.63h.84v5.47Z" style="fill:#6a6f82"/><path d="M76.4,277.34a1.73,1.73,0,0,1,.48,1.33v2.45H76v-.51a1.08,1.08,0,0,1-.51.42,2.24,2.24,0,0,1-1.61,0,1.16,1.16,0,0,1-.73-1.09,1.1,1.1,0,0,1,.41-.9,2.13,2.13,0,0,1,1.32-.34h1.07v-.06a.86.86,0,0,0-.26-.67,1.12,1.12,0,0,0-.78-.24,2.37,2.37,0,0,0-.69.11,1.94,1.94,0,0,0-.57.31l-.38-.71A2.34,2.34,0,0,1,74,277a3.79,3.79,0,0,1,1-.13A2.07,2.07,0,0,1,76.4,277.34Zm-.89,3a.92.92,0,0,0,.4-.47v-.49h-1c-.56,0-.84.19-.84.55a.52.52,0,0,0,.21.43,1,1,0,0,0,.59.15A1.19,1.19,0,0,0,75.51,280.29Z" style="fill:#6a6f82"/><path d="M82.14,277.36a1.83,1.83,0,0,1,.48,1.37v2.39h-1v-2.27a1.18,1.18,0,0,0-.25-.82,1,1,0,0,0-.74-.28,1.13,1.13,0,0,0-.85.33,1.3,1.3,0,0,0-.31.93v2.11h-1V277h.93v.54a1.47,1.47,0,0,1,.6-.44,2.19,2.19,0,0,1,.83-.15A1.77,1.77,0,0,1,82.14,277.36Z" style="fill:#6a6f82"/><path d="M87.24,277.34a1.74,1.74,0,0,1,.49,1.33v2.45h-.92v-.51a1.18,1.18,0,0,1-.51.42,1.94,1.94,0,0,1-.8.14,1.91,1.91,0,0,1-.82-.16,1.24,1.24,0,0,1-.54-.44,1.13,1.13,0,0,1-.19-.65,1.11,1.11,0,0,1,.42-.9,2.08,2.08,0,0,1,1.31-.34h1.07v-.06a.83.83,0,0,0-.26-.67,1.09,1.09,0,0,0-.77-.24,2.26,2.26,0,0,0-.69.11,1.88,1.88,0,0,0-.58.31l-.38-.71a2.34,2.34,0,0,1,.79-.39,3.85,3.85,0,0,1,1-.13A2,2,0,0,1,87.24,277.34Zm-.89,3a.88.88,0,0,0,.4-.47v-.49h-1c-.56,0-.84.19-.84.55a.52.52,0,0,0,.21.43,1,1,0,0,0,.58.15A1.19,1.19,0,0,0,86.35,280.29Z" style="fill:#6a6f82"/><path d="M93.53,277v3.54a2,2,0,0,1-2.24,2.2,4.24,4.24,0,0,1-1.14-.15,2.56,2.56,0,0,1-.89-.44l.44-.74a2,2,0,0,0,.69.36,2.43,2.43,0,0,0,.84.14,1.4,1.4,0,0,0,1-.31,1.3,1.3,0,0,0,.32-.95v-.22a1.6,1.6,0,0,1-.61.41,2.22,2.22,0,0,1-.79.14,2.25,2.25,0,0,1-1.07-.25,2,2,0,0,1-.76-.72,2,2,0,0,1-.27-1,2,2,0,0,1,.27-1.05,1.92,1.92,0,0,1,.76-.71,2.25,2.25,0,0,1,1.07-.25,2.14,2.14,0,0,1,.82.15,1.49,1.49,0,0,1,.62.45V277Zm-1.31,2.82a1.15,1.15,0,0,0,.35-.86,1.12,1.12,0,0,0-.35-.85,1.43,1.43,0,0,0-1.83,0,1.12,1.12,0,0,0-.35.85,1.15,1.15,0,0,0,.35.86,1.43,1.43,0,0,0,1.83,0Z" style="fill:#6a6f82"/><path d="M99.09,279.35H95.83a1.12,1.12,0,0,0,.44.73,1.63,1.63,0,0,0,2-.19l.53.6a1.73,1.73,0,0,1-.71.51,2.5,2.5,0,0,1-1,.17,2.6,2.6,0,0,1-1.21-.27,2,2,0,0,1-.8-.76,2.19,2.19,0,0,1-.29-1.11,2.11,2.11,0,0,1,.28-1.09,1.88,1.88,0,0,1,.77-.76,2.12,2.12,0,0,1,1.1-.28,2.18,2.18,0,0,1,1.09.27,1.89,1.89,0,0,1,.75.76,2.28,2.28,0,0,1,.27,1.13C99.11,279.12,99.1,279.22,99.09,279.35ZM96.21,278a1.22,1.22,0,0,0-.39.74h2.36a1.18,1.18,0,0,0-.38-.74,1.27,1.27,0,0,0-1.59,0Z" style="fill:#6a6f82"/><path d="M103.53,281a2.54,2.54,0,0,1-.93-.48l.35-.79a3,3,0,0,0,.83.44,3,3,0,0,0,1,.16,1.69,1.69,0,0,0,.91-.19.59.59,0,0,0,.3-.52.5.5,0,0,0-.17-.38,1.08,1.08,0,0,0-.42-.24c-.17-.06-.41-.12-.7-.2s-.75-.2-1-.29a1.63,1.63,0,0,1-.66-.47,1.21,1.21,0,0,1-.28-.85,1.42,1.42,0,0,1,.25-.83,1.72,1.72,0,0,1,.74-.59,3,3,0,0,1,1.21-.22,4.06,4.06,0,0,1,1,.13,2.51,2.51,0,0,1,.83.36l-.32.79a3.08,3.08,0,0,0-.75-.32,2.52,2.52,0,0,0-.75-.11,1.52,1.52,0,0,0-.89.2.63.63,0,0,0-.3.54.49.49,0,0,0,.17.38,1.18,1.18,0,0,0,.43.24c.17.05.4.12.7.19a8.33,8.33,0,0,1,1,.29,1.77,1.77,0,0,1,.67.47,1.25,1.25,0,0,1,.28.84,1.39,1.39,0,0,1-.25.82,1.65,1.65,0,0,1-.74.59,3.13,3.13,0,0,1-1.22.22A4.19,4.19,0,0,1,103.53,281Z" style="fill:#6a6f82"/><path d="M110.76,280.89a1,1,0,0,1-.42.21,1.72,1.72,0,0,1-.52.07,1.48,1.48,0,0,1-1.06-.36,1.36,1.36,0,0,1-.37-1v-2h-.68V277h.68v-1h1v1h1.12v.78h-1.12v2a.66.66,0,0,0,.15.47.54.54,0,0,0,.43.16.9.9,0,0,0,.55-.17Z" style="fill:#6a6f82"/><path d="M114.94,277.34a1.7,1.7,0,0,1,.49,1.33v2.45h-.92v-.51a1.18,1.18,0,0,1-.51.42,1.94,1.94,0,0,1-.8.14,1.86,1.86,0,0,1-.81-.16,1.15,1.15,0,0,1-.74-1.09,1.11,1.11,0,0,1,.42-.9,2.12,2.12,0,0,1,1.31-.34h1.08v-.06a.86.86,0,0,0-.26-.67,1.14,1.14,0,0,0-.78-.24,2.37,2.37,0,0,0-.69.11,1.94,1.94,0,0,0-.57.31l-.38-.71a2.38,2.38,0,0,1,.78-.39,3.93,3.93,0,0,1,1-.13A2,2,0,0,1,114.94,277.34Zm-.88,3a.92.92,0,0,0,.4-.47v-.49h-1c-.56,0-.84.19-.84.55a.52.52,0,0,0,.21.43,1,1,0,0,0,.59.15A1.19,1.19,0,0,0,114.06,280.29Z" style="fill:#6a6f82"/><path d="M119.57,280.89a1,1,0,0,1-.42.21,1.77,1.77,0,0,1-.52.07,1.48,1.48,0,0,1-1.06-.36,1.36,1.36,0,0,1-.37-1v-2h-.69V277h.69v-1h1v1h1.12v.78h-1.12v2a.66.66,0,0,0,.15.47.54.54,0,0,0,.43.16.9.9,0,0,0,.55-.17Z" style="fill:#6a6f82"/><path d="M120.81,276.09a.54.54,0,0,1-.18-.41.54.54,0,0,1,.18-.42.62.62,0,0,1,.44-.17.61.61,0,0,1,.44.16.52.52,0,0,1,.18.4.64.64,0,0,1-.17.44.64.64,0,0,1-.45.17A.58.58,0,0,1,120.81,276.09Zm0,.86h1v4.17h-1Z" style="fill:#6a6f82"/><path d="M123.7,281a2.47,2.47,0,0,1-.78-.34l.38-.74a2.17,2.17,0,0,0,.67.3,2.64,2.64,0,0,0,.78.12c.58,0,.87-.16.87-.46a.31.31,0,0,0-.22-.31,3.61,3.61,0,0,0-.72-.16,5.05,5.05,0,0,1-.83-.18,1.29,1.29,0,0,1-.56-.36,1,1,0,0,1-.24-.7,1.1,1.1,0,0,1,.49-.95,2.24,2.24,0,0,1,1.34-.36,3.61,3.61,0,0,1,.86.1,2.28,2.28,0,0,1,.7.26l-.38.74a2.27,2.27,0,0,0-1.19-.31,1.29,1.29,0,0,0-.65.13.37.37,0,0,0-.22.34.33.33,0,0,0,.24.33,3.07,3.07,0,0,0,.73.18,8.33,8.33,0,0,1,.82.18,1.33,1.33,0,0,1,.55.35,1,1,0,0,1,.23.68,1.07,1.07,0,0,1-.51.94,2.31,2.31,0,0,1-1.38.35A3.62,3.62,0,0,1,123.7,281Z" style="fill:#6a6f82"/><path d="M130.3,280.89a.94.94,0,0,1-.41.21,1.81,1.81,0,0,1-.52.07,1.46,1.46,0,0,1-1.06-.36,1.37,1.37,0,0,1-.38-1v-2h-.68V277h.68v-1h1v1H130v.78h-1.11v2a.66.66,0,0,0,.15.47.52.52,0,0,0,.42.16.9.9,0,0,0,.55-.17Z" style="fill:#6a6f82"/><path d="M131.54,276.09a.54.54,0,0,1-.18-.41.54.54,0,0,1,.18-.42.68.68,0,0,1,.89,0,.52.52,0,0,1,.18.4.6.6,0,0,1-.18.44.63.63,0,0,1-.45.17A.6.6,0,0,1,131.54,276.09Zm0,.86h1v4.17h-1Z" style="fill:#6a6f82"/><path d="M134.88,280.9a2,2,0,0,1-.8-.76,2.19,2.19,0,0,1-.29-1.11,2.15,2.15,0,0,1,.29-1.1,2,2,0,0,1,.8-.75,2.34,2.34,0,0,1,1.16-.28,2.21,2.21,0,0,1,1.08.25,1.68,1.68,0,0,1,.7.72l-.75.44a1.18,1.18,0,0,0-.45-.44,1.28,1.28,0,0,0-.59-.14,1.25,1.25,0,0,0-.9.35,1.29,1.29,0,0,0-.36.95,1.26,1.26,0,0,0,.36,1,1.21,1.21,0,0,0,.9.36,1.18,1.18,0,0,0,.59-.15,1.16,1.16,0,0,0,.45-.43l.75.44a1.7,1.7,0,0,1-.71.72,2.17,2.17,0,0,1-1.07.25A2.45,2.45,0,0,1,134.88,280.9Z" style="fill:#6a6f82"/><path d="M139.34,281a2.4,2.4,0,0,1-.77-.34L139,280a2.07,2.07,0,0,0,.67.3,2.64,2.64,0,0,0,.78.12c.58,0,.87-.16.87-.46a.32.32,0,0,0-.22-.31,3.61,3.61,0,0,0-.72-.16,5.05,5.05,0,0,1-.83-.18,1.32,1.32,0,0,1-.57-.36,1,1,0,0,1-.23-.7,1.1,1.1,0,0,1,.49-.95,2.24,2.24,0,0,1,1.34-.36,3.67,3.67,0,0,1,.86.1,2.38,2.38,0,0,1,.7.26l-.38.74a2.27,2.27,0,0,0-1.19-.31,1.27,1.27,0,0,0-.65.13.37.37,0,0,0-.22.34.33.33,0,0,0,.24.33,2.94,2.94,0,0,0,.73.18c.33.06.61.12.82.18a1.33,1.33,0,0,1,.55.35,1,1,0,0,1,.23.68,1.07,1.07,0,0,1-.51.94,2.33,2.33,0,0,1-1.38.35A3.74,3.74,0,0,1,139.34,281Z" style="fill:#6a6f82"/><rect x="42.59" y="344.28" width="119.74" height="27.75" rx="11.61" style="fill:url(#j)"/><path d="M84.21,360.16a2.76,2.76,0,0,1-1-1,2.78,2.78,0,0,1-.37-1.44,2.73,2.73,0,0,1,.38-1.45,2.66,2.66,0,0,1,1-1,3.3,3.3,0,0,1,2.71-.13,2.44,2.44,0,0,1,.93.68l-.65.62a1.9,1.9,0,0,0-1.46-.64,2.05,2.05,0,0,0-1,.24,1.7,1.7,0,0,0-.69.69,2.09,2.09,0,0,0,0,2,1.67,1.67,0,0,0,.69.68,2,2,0,0,0,1,.25,1.91,1.91,0,0,0,1.46-.65l.65.63a2.42,2.42,0,0,1-.93.67,3.14,3.14,0,0,1-1.23.24A3.07,3.07,0,0,1,84.21,360.16Z" style="fill:#fff"/><path d="M89.71,360.22a1.93,1.93,0,0,1-.79-.76,2.12,2.12,0,0,1-.28-1.1,2.16,2.16,0,0,1,.28-1.11,2,2,0,0,1,.79-.75,2.46,2.46,0,0,1,2.28,0,2,2,0,0,1,.79.75,2.16,2.16,0,0,1,.29,1.11,2.12,2.12,0,0,1-.29,1.1,1.93,1.93,0,0,1-.79.76,2.46,2.46,0,0,1-2.28,0Zm2-.92a1.3,1.3,0,0,0,.35-.94,1.32,1.32,0,0,0-.35-.95,1.2,1.2,0,0,0-.89-.36,1.18,1.18,0,0,0-.89.36,1.32,1.32,0,0,0-.34.95,1.29,1.29,0,0,0,.34.94,1.18,1.18,0,0,0,.89.36A1.2,1.2,0,0,0,91.74,359.3Z" style="fill:#fff"/><path d="M98,356.68a1.83,1.83,0,0,1,.48,1.37v2.39h-1v-2.26a1.19,1.19,0,0,0-.25-.83,1,1,0,0,0-.73-.28,1.1,1.1,0,0,0-.85.33,1.3,1.3,0,0,0-.32.93v2.11h-1v-4.17h.93v.54a1.52,1.52,0,0,1,.61-.44,2.1,2.1,0,0,1,.82-.15A1.74,1.74,0,0,1,98,356.68Z" style="fill:#fff"/><path d="M102.62,360.21a1.2,1.2,0,0,1-.42.22,2.18,2.18,0,0,1-.52.07,1.46,1.46,0,0,1-1.06-.36,1.39,1.39,0,0,1-.37-1.05v-2h-.69v-.78h.69v-.95h1v.95h1.12v.78h-1.12v2a.65.65,0,0,0,.15.46.54.54,0,0,0,.43.16.85.85,0,0,0,.54-.17Z" style="fill:#fff"/><path d="M103.85,355.42a.61.61,0,0,1-.17-.42.57.57,0,0,1,.17-.42.64.64,0,0,1,.45-.17.68.68,0,0,1,.44.16.52.52,0,0,1,.18.4.62.62,0,0,1-.17.44.6.6,0,0,1-.45.17A.64.64,0,0,1,103.85,355.42Zm0,.85h1v4.17h-1Z" style="fill:#fff"/><path d="M110.07,356.68a1.83,1.83,0,0,1,.48,1.37v2.39h-1v-2.26a1.15,1.15,0,0,0-.26-.83,1,1,0,0,0-.73-.28,1.11,1.11,0,0,0-.85.33,1.34,1.34,0,0,0-.31.93v2.11h-1v-4.17h.93v.54a1.56,1.56,0,0,1,.6-.44,2.19,2.19,0,0,1,.83-.15A1.77,1.77,0,0,1,110.07,356.68Z" style="fill:#fff"/><path d="M116.2,356.27v4.17h-.93v-.53a1.47,1.47,0,0,1-.58.43,1.91,1.91,0,0,1-.76.16,1.81,1.81,0,0,1-1.31-.47,1.84,1.84,0,0,1-.48-1.38v-2.38h1v2.25a1.21,1.21,0,0,0,.25.84,1,1,0,0,0,.72.28,1.07,1.07,0,0,0,.83-.33,1.26,1.26,0,0,0,.31-.93v-2.11Z" style="fill:#fff"/><path d="M121.76,358.67H118.5a1.11,1.11,0,0,0,.45.73,1.46,1.46,0,0,0,.9.27,1.51,1.51,0,0,0,1.13-.46l.52.61a1.8,1.8,0,0,1-.71.5,2.5,2.5,0,0,1-1,.18,2.56,2.56,0,0,1-1.2-.28,1.92,1.92,0,0,1-.81-.76,2.12,2.12,0,0,1-.29-1.1,2.22,2.22,0,0,1,.28-1.1,1.94,1.94,0,0,1,.77-.76,2.26,2.26,0,0,1,1.11-.28,2.16,2.16,0,0,1,1.08.27,2,2,0,0,1,.75.76,2.3,2.3,0,0,1,.27,1.13C121.78,358.45,121.77,358.54,121.76,358.67Zm-2.88-1.39a1.22,1.22,0,0,0-.39.74h2.36a1.13,1.13,0,0,0-.38-.73,1.15,1.15,0,0,0-.79-.29A1.22,1.22,0,0,0,118.88,357.28Z" style="fill:#fff"/><g style="opacity:0.25;mix-blend-mode:multiply"><path d="M149.94,290.55a28,28,0,0,0,2.79-7.69c.17-1.2-1.51-2.23-2.16-.91a28.36,28.36,0,0,0-2.15,8c-.13.85,1.08,1.57,1.52.64Z" style="fill:#3d3d3d"/></g><path d="M147.94,288.55a28,28,0,0,0,2.79-7.69c.17-1.2-1.51-2.23-2.16-.91a28.36,28.36,0,0,0-2.15,8c-.13.85,1.08,1.57,1.52.64Z" style="fill:#6e3281"/><g style="opacity:0.25;mix-blend-mode:multiply"><path d="M47.9,271.32c-1.17,2.31-3,5.1-3.3,7.73-.29,3.2,3.08,2.23,5,1.8s6.1-.58,5.59-3.42c-.23-1.27-1.54-2.25-2.37-3.11l-3.62-3.76c-1.22-1.26-3.18.7-1.92,1.93l2.8,2.73c.52.51,2.73,2.13,2.62,3l.37-.88c-.63.79-2.87.95-3.79,1.18-.62.15-1.29.26-1.9.47-1,.34-.5.15-.28-.68a58.05,58.05,0,0,0,1.53-6.64c0-.4-.51-.75-.73-.31Z" style="fill:#3d3d3d"/></g><path d="M45.9,269.32c-1.17,2.31-3,5.1-3.3,7.73-.29,3.2,3.08,2.23,5,1.8s6.1-.58,5.59-3.42c-.23-1.27-1.54-2.25-2.37-3.11l-3.62-3.76c-1.22-1.26-3.18.7-1.92,1.93l2.8,2.73c.52.51,2.73,2.13,2.62,3l.37-.88c-.63.79-2.87.95-3.79,1.18-.62.15-1.29.26-1.9.47-1,.34-.5.15-.28-.68a58.05,58.05,0,0,0,1.53-6.64c0-.4-.51-.75-.73-.31Z" style="fill:#dbea83"/><g style="opacity:0.46"><path d="M156,17.18a.46.46,0,0,1,.46.46.47.47,0,0,1-.46.46.46.46,0,0,1-.46-.46A.45.45,0,0,1,156,17.18Z" style="fill:#251a51"/><path d="M157.07,16.53l0,0,0,0h0a1.5,1.5,0,0,0-2.07.05l-.07.07-.09.09a.29.29,0,0,0,.41.41l.16-.16a.93.93,0,0,1,1.31,0l.11.11a.3.3,0,0,0,.41,0,.32.32,0,0,0,.08-.2.32.32,0,0,0-.08-.21Z" style="fill:#251a51"/><path d="M157.85,16l-.1-.1h0l-.07-.07-.05,0a2.51,2.51,0,0,0-3.38.08h0l-.17.18a.26.26,0,0,0,0,.37.27.27,0,0,0,.37,0l.17-.17h0a2,2,0,0,1,2.72,0l.14.13a.25.25,0,0,0,.37,0A.27.27,0,0,0,157.85,16Z" style="fill:#251a51"/></g><g style="opacity:0.48"><path d="M26.61,18.45a.12.12,0,0,1-.09,0,.12.12,0,0,1,0-.08V15.79l.05,0-.57.34-.06,0a.14.14,0,0,1-.1-.05.18.18,0,0,1,0-.09s0-.07.07-.1l.71-.43a.16.16,0,0,1,.1,0,.12.12,0,0,1,.08,0,.14.14,0,0,1,0,.09v2.7a.09.09,0,0,1,0,.08A.12.12,0,0,1,26.61,18.45Z" style="fill:#251a51"/><path d="M28.39,18.49a.79.79,0,0,1-.56-.2,1.19,1.19,0,0,1-.34-.54,2.56,2.56,0,0,1,0-1.55,1.14,1.14,0,0,1,.34-.54.9.9,0,0,1,1.13,0,1.22,1.22,0,0,1,.34.54,2.79,2.79,0,0,1,0,1.55,1.28,1.28,0,0,1-.34.54A.8.8,0,0,1,28.39,18.49Zm0-.26a.62.62,0,0,0,.42-.15,1,1,0,0,0,.25-.44,2.21,2.21,0,0,0,.08-.66,2.24,2.24,0,0,0-.08-.67,1,1,0,0,0-.25-.44.62.62,0,0,0-.42-.15.59.59,0,0,0-.41.15,1,1,0,0,0-.25.44,2.22,2.22,0,0,0-.09.67,2.19,2.19,0,0,0,.09.66,1,1,0,0,0,.25.44A.59.59,0,0,0,28.39,18.23Z" style="fill:#251a51"/><path d="M30,16.69a.15.15,0,0,1-.11,0,.21.21,0,0,1,0-.12v-.08a.17.17,0,0,1,0-.12.16.16,0,0,1,.11,0h0a.13.13,0,0,1,.11,0s0,.06,0,.12v.08a.16.16,0,0,1,0,.12.12.12,0,0,1-.11,0Zm0,1.76a.15.15,0,0,1-.11,0,.21.21,0,0,1,0-.12V18.2a.21.21,0,0,1,0-.12A.15.15,0,0,1,30,18h0a.12.12,0,0,1,.11,0,.16.16,0,0,1,0,.12v.09a.16.16,0,0,1,0,.12.12.12,0,0,1-.11,0Z" style="fill:#251a51"/><path d="M30.79,18h.05a.09.09,0,0,1,.06,0,.47.47,0,0,0,.21.15.79.79,0,0,0,.28,0,.78.78,0,0,0,.37-.09A.75.75,0,0,0,32,17.9a.7.7,0,0,0,.1-.38.67.67,0,0,0-.1-.39.7.7,0,0,0-.28-.23.8.8,0,0,0-.34-.07h-.23a.09.09,0,0,1-.08,0,.12.12,0,0,1,0-.09.09.09,0,0,1,0-.05.05.05,0,0,1,0,0l.86-1,.05.07H30.74a.11.11,0,0,1-.08,0,.12.12,0,0,1,0-.09.14.14,0,0,1,.12-.12h1.41a.12.12,0,0,1,.11.05.12.12,0,0,1,0,.08.07.07,0,0,1,0,0s0,0,0,0l-.85,1-.09-.05.08,0,.12,0a1,1,0,0,1,.43.11.85.85,0,0,1,.33.32.87.87,0,0,1,.13.5,1,1,0,0,1-.14.52.93.93,0,0,1-.37.34,1.14,1.14,0,0,1-.52.12,1,1,0,0,1-.34-.06.75.75,0,0,1-.3-.17l0-.05a.11.11,0,0,1,0-.05.17.17,0,0,1,0-.1A.12.12,0,0,1,30.79,18Z" style="fill:#251a51"/><path d="M33.87,18.49a.8.8,0,0,1-.57-.2,1.28,1.28,0,0,1-.34-.54,2.79,2.79,0,0,1,0-1.55,1.22,1.22,0,0,1,.34-.54.84.84,0,0,1,.57-.2.82.82,0,0,1,.56.2,1.14,1.14,0,0,1,.34.54,2.56,2.56,0,0,1,0,1.55,1.19,1.19,0,0,1-.34.54A.77.77,0,0,1,33.87,18.49Zm0-.26a.59.59,0,0,0,.41-.15,1,1,0,0,0,.25-.44,2.19,2.19,0,0,0,.09-.66,2.22,2.22,0,0,0-.09-.67,1,1,0,0,0-.25-.44.59.59,0,0,0-.41-.15.58.58,0,0,0-.41.15,1,1,0,0,0-.26.44,2.8,2.8,0,0,0,0,1.33,1,1,0,0,0,.26.44A.58.58,0,0,0,33.87,18.23Z" style="fill:#251a51"/><path d="M37.64,15.83l-1,2.54a.09.09,0,0,1,0,.06.09.09,0,0,1-.07,0,.1.1,0,0,1-.09,0,.09.09,0,0,1,0-.07V18.3l1.11-2.73s0-.05,0-.06a.12.12,0,0,1,.08,0l.07,0,0,.06,1.11,2.71v0a.12.12,0,0,1-.12.13.11.11,0,0,1-.08,0,.09.09,0,0,1,0-.06l-1-2.56Zm-.77,1.77.1-.25h1.31l0,.25Z" style="fill:#251a51"/><path d="M39.51,15.5h.06a.12.12,0,0,1,0,.05l1.16,1.74h-.11l1.16-1.74A.12.12,0,0,1,42,15.5a.09.09,0,0,1,.08,0,.1.1,0,0,1,0,.09v2.7a.09.09,0,0,1,0,.08.12.12,0,0,1-.09,0,.13.13,0,0,1-.1,0,.09.09,0,0,1,0-.08V15.88h.08l-1.07,1.62,0,0h-.12l0,0-1.07-1.63.08-.06v2.51a.09.09,0,0,1,0,.08.1.1,0,0,1-.09,0,.12.12,0,0,1-.09,0,.11.11,0,0,1,0-.08v-2.7a.14.14,0,0,1,.13-.13Z" style="fill:#251a51"/></g><g style="opacity:0.48"><path d="M161.68,16.67v0a.82.82,0,0,1,.25.16.55.55,0,0,1,.18.24.73.73,0,0,1,.07.3.69.69,0,0,1-.12.39.81.81,0,0,1-.3.28.92.92,0,0,1-.44.1.88.88,0,0,1-.43-.1.84.84,0,0,1-.31-.28.77.77,0,0,1-.11-.39.7.7,0,0,1,.25-.55,1.58,1.58,0,0,1,.24-.15l0,0a.81.81,0,0,1-.2-.14.8.8,0,0,1-.15-.21.67.67,0,0,1-.06-.28.77.77,0,0,1,.11-.39.81.81,0,0,1,.28-.27.85.85,0,0,1,.8,0,.81.81,0,0,1,.28.27.76.76,0,0,1,.1.39.64.64,0,0,1-.06.28.8.8,0,0,1-.15.21A.66.66,0,0,1,161.68,16.67Zm-.37,1.2a.63.63,0,0,0,.44-.15.5.5,0,0,0,.17-.39.57.57,0,0,0-.08-.29.6.6,0,0,0-.22-.2.67.67,0,0,0-.31-.07.6.6,0,0,0-.3.07.56.56,0,0,0-.23.2.57.57,0,0,0-.08.29.54.54,0,0,0,.17.39A.63.63,0,0,0,161.31,17.87ZM160.76,16a.51.51,0,0,0,.08.28.61.61,0,0,0,.2.19.6.6,0,0,0,.27.06.63.63,0,0,0,.27-.06.58.58,0,0,0,.19-.19.44.44,0,0,0,.08-.28.49.49,0,0,0-.15-.38.58.58,0,0,0-.78,0A.46.46,0,0,0,160.76,16Z" style="fill:#251a51"/><path d="M163.33,18.08a1.26,1.26,0,0,1-.33,0,.9.9,0,0,1-.29-.16l0-.05a.14.14,0,0,1,0-.06s0-.05,0-.08a.11.11,0,0,1,.08,0,.16.16,0,0,1,.09,0,1,1,0,0,0,.22.13.69.69,0,0,0,.25,0,.84.84,0,0,0,.4-.09.7.7,0,0,0,.28-.26.79.79,0,0,0,.09-.38.65.65,0,0,0-.09-.35.62.62,0,0,0-.24-.24.79.79,0,0,0-.38-.08.77.77,0,0,0-.27,0l-.2.09-.12.05a.11.11,0,0,1-.08,0s0,0-.05-.06a.09.09,0,0,1,0-.07l.17-1.09a.09.09,0,0,1,0-.07.11.11,0,0,1,.08,0h1.2a.11.11,0,0,1,.08,0,.16.16,0,0,1,0,.09.11.11,0,0,1,0,.08.12.12,0,0,1-.08,0H163l0,0-.16,1-.07-.05a.35.35,0,0,1,.15-.08,1,1,0,0,1,.22-.07,1,1,0,0,1,.25,0,1,1,0,0,1,.46.11.76.76,0,0,1,.32.32.88.88,0,0,1,.12.46,1,1,0,0,1-.07.39,1,1,0,0,1-.21.31,1.16,1.16,0,0,1-.32.2A1.07,1.07,0,0,1,163.33,18.08Z" style="fill:#251a51"/><path d="M165.34,16.7a.49.49,0,0,1-.3-.09.64.64,0,0,1-.18-.27,1.11,1.11,0,0,1,0-.72.53.53,0,0,1,.19-.27.5.5,0,0,1,.6,0,.59.59,0,0,1,.18.27,1.11,1.11,0,0,1,0,.72.66.66,0,0,1-.19.27A.49.49,0,0,1,165.34,16.7Zm0-.2a.25.25,0,0,0,.24-.15.81.81,0,0,0,.08-.37.74.74,0,0,0-.09-.38.26.26,0,0,0-.24-.14.25.25,0,0,0-.24.15A.82.82,0,0,0,165,16a.7.7,0,0,0,.08.37A.25.25,0,0,0,165.35,16.5Zm0,1.59a.12.12,0,0,1-.08,0,.1.1,0,0,1,0-.07.19.19,0,0,1,0-.07l1.71-2.59a.1.1,0,0,1,.08-.05.11.11,0,0,1,.08,0,.08.08,0,0,1,0,.08.14.14,0,0,1,0,.06L165.38,18A.09.09,0,0,1,165.3,18.09Zm1.68,0a.44.44,0,0,1-.3-.1.55.55,0,0,1-.18-.26,1,1,0,0,1,0-.72.59.59,0,0,1,.18-.27.48.48,0,0,1,.31-.1.44.44,0,0,1,.3.1.59.59,0,0,1,.18.27,1,1,0,0,1,.06.36.86.86,0,0,1-.07.36.55.55,0,0,1-.18.26A.44.44,0,0,1,167,18.1Zm0-.2a.25.25,0,0,0,.24-.15.81.81,0,0,0,.08-.37.74.74,0,0,0-.09-.38.26.26,0,0,0-.24-.14.25.25,0,0,0-.24.15.9.9,0,0,0,0,.74A.27.27,0,0,0,167,17.9Z" style="fill:#251a51"/><path d="M171.54,18.45a.35.35,0,0,1-.36-.33v-2.6a.35.35,0,0,1,.36-.34h6a.35.35,0,0,1,.36.34V16h.47v1.54h-.46v.53a.35.35,0,0,1-.36.33Zm6.13-3h-6.25v2.8h6.25Zm-6,.27h4.54V18h-4.55Z" style="fill:#251a51"/></g></g></svg>